<svg width="30" height="40" viewBox="0 0 30 40" fill="none" xmlns="http://www.w3.org/2000/svg">
<g clip-path="url(#clip0_132_5574)">
<path d="M15.0007 0C13.8154 0 12.8578 1.11719 12.8578 2.5V4C7.96942 5.15625 4.28639 10.2031 4.28639 16.25V17.7188C4.28639 21.3906 3.1279 24.9375 1.03862 27.6875L0.543082 28.3359C-0.0194179 29.0703 -0.153347 30.125 0.188171 31.0234C0.529689 31.9219 1.29978 32.5 2.14353 32.5H27.8578C28.7016 32.5 29.465 31.9219 29.8132 31.0234C30.1614 30.125 30.0208 29.0703 29.4583 28.3359L28.9627 27.6875C26.8734 24.9375 25.715 21.3984 25.715 17.7188V16.25C25.715 10.2031 22.0319 5.15625 17.1435 4V2.5C17.1435 1.11719 16.1859 0 15.0007 0ZM18.0342 38.5391C18.8377 37.6016 19.2864 36.3281 19.2864 35H15.0007H10.715C10.715 36.3281 11.1636 37.6016 11.9672 38.5391C12.7708 39.4766 13.8623 40 15.0007 40C16.1391 40 17.2306 39.4766 18.0342 38.5391Z" fill="#031EAB"/>
</g>
<defs>
<clipPath id="clip0_132_5574">
<rect width="30" height="40" fill="white"/>
</clipPath>
</defs>
</svg>
