<svg width="21" height="21" viewBox="0 0 21 21" fill="none" xmlns="http://www.w3.org/2000/svg">
<g clip-path="url(#clip0_112_5902)">
<rect width="20" height="20" transform="translate(0.625 0.191406)" fill="white" fill-opacity="0.22"/>
<path d="M9.91071 0.191406H15.4509C16.0179 0.191406 16.5625 0.390625 16.9643 0.742188L19.9955 3.39453C20.3973 3.74609 20.625 4.22266 20.625 4.71875V13.3164C20.625 14.3516 19.6652 15.1914 18.4821 15.1914H9.91071C8.72768 15.1914 7.76786 14.3516 7.76786 13.3164V2.06641C7.76786 1.03125 8.72768 0.191406 9.91071 0.191406ZM2.76786 5.19141H6.33929V7.69141H3.48214V17.6914H12.0536V16.4414H14.9107V18.3164C14.9107 19.3516 13.9509 20.1914 12.7679 20.1914H2.76786C1.58482 20.1914 0.625 19.3516 0.625 18.3164V7.06641C0.625 6.03125 1.58482 5.19141 2.76786 5.19141Z" fill="#1E43A5"/>
</g>
<defs>
<clipPath id="clip0_112_5902">
<rect width="20" height="20" fill="white" transform="translate(0.625 0.191406)"/>
</clipPath>
</defs>
</svg>
