<svg width="20" height="20" viewBox="0 0 20 20" fill="none" xmlns="http://www.w3.org/2000/svg">
<g clip-path="url(#clip0_99_7219)">
<rect width="20" height="20" fill="white" fill-opacity="0.22"/>
<path d="M9.28571 0H14.8259C15.3929 0 15.9375 0.199219 16.3393 0.550781L19.3705 3.20312C19.7723 3.55469 20 4.03125 20 4.52734V13.125C20 14.1602 19.0402 15 17.8571 15H9.28571C8.10268 15 7.14286 14.1602 7.14286 13.125V1.875C7.14286 0.839844 8.10268 0 9.28571 0ZM2.14286 5H5.71429V7.5H2.85714V17.5H11.4286V16.25H14.2857V18.125C14.2857 19.1602 13.3259 20 12.1429 20H2.14286C0.959821 20 0 19.1602 0 18.125V6.875C0 5.83984 0.959821 5 2.14286 5Z" fill="#1E43A5"/>
</g>
<defs>
<clipPath id="clip0_99_7219">
<rect width="20" height="20" fill="white"/>
</clipPath>
</defs>
</svg>
