<svg width="20" height="21" viewBox="0 0 20 21" fill="none" xmlns="http://www.w3.org/2000/svg">
<g clip-path="url(#clip0_112_6020)">
<rect width="20" height="20" transform="translate(0 0.941895)" fill="white" fill-opacity="0.22"/>
<path d="M9.28571 0.941895H14.8259C15.3929 0.941895 15.9375 1.14111 16.3393 1.49268L19.3705 4.14502C19.7723 4.49658 20 4.97314 20 5.46924V14.0669C20 15.1021 19.0402 15.9419 17.8571 15.9419H9.28571C8.10268 15.9419 7.14286 15.1021 7.14286 14.0669V2.81689C7.14286 1.78174 8.10268 0.941895 9.28571 0.941895ZM2.14286 5.94189H5.71429V8.44189H2.85714V18.4419H11.4286V17.1919H14.2857V19.0669C14.2857 20.1021 13.3259 20.9419 12.1429 20.9419H2.14286C0.959821 20.9419 0 20.1021 0 19.0669V7.81689C0 6.78174 0.959821 5.94189 2.14286 5.94189Z" fill="#1E43A5"/>
</g>
<defs>
<clipPath id="clip0_112_6020">
<rect width="20" height="20" fill="white" transform="translate(0 0.941895)"/>
</clipPath>
</defs>
</svg>
