<svg width="25" height="21" viewBox="0 0 25 21" fill="none" xmlns="http://www.w3.org/2000/svg">
<g clip-path="url(#clip0_129_922)">
<path d="M16.3977 5.92273H11.1823C10.7227 5.92273 10.3501 6.29527 10.3501 6.75498C10.3501 7.21464 10.7226 7.58723 11.1823 7.58723H16.3977C16.8576 7.58723 17.2299 7.21468 17.2299 6.75498C17.2299 6.29527 16.8574 5.92273 16.3977 5.92273Z" fill="#031EAB"/>
<path d="M18.395 9.94519H11.1823C10.7227 9.94519 10.3501 10.3177 10.3501 10.7774C10.3501 11.2371 10.7226 11.6097 11.1823 11.6097H18.395C18.8547 11.6097 19.2273 11.2371 19.2273 10.7774C19.2273 10.3177 18.8547 9.94519 18.395 9.94519Z" fill="#031EAB"/>
<path d="M22.1678 0.707397H7.43724C6.97757 0.707397 6.60499 1.07994 6.60499 1.53965V9.39036H5.13474C3.40618 9.39036 2 10.7968 2 12.5251V17.1579C2 18.8864 3.40618 20.2926 5.13474 20.2926C5.27621 20.2926 5.41549 20.2832 5.55171 20.2649H19.2827C21.3322 20.2649 23 18.5973 23 16.5476V1.53965C23 1.07994 22.6275 0.707397 22.1678 0.707397ZM6.60503 17.1579C6.60503 17.8711 6.0943 18.4675 5.41939 18.6004H5.13478V18.6281C4.3239 18.6281 3.6645 17.9684 3.6645 17.1578V12.5251C3.6645 11.7145 4.32419 11.0548 5.13478 11.0548H6.60507L6.60503 17.1579ZM21.3355 16.5476C21.3355 17.6603 20.3957 18.6004 19.2827 18.6004H7.91745C8.14242 18.1684 8.26948 17.6777 8.26948 17.1579V2.37185H21.3355V16.5476Z" fill="#031EAB"/>
<path d="M16.3977 13.7183H11.1823C10.7227 13.7183 10.3501 14.0908 10.3501 14.5505C10.3501 15.0102 10.7226 15.3828 11.1823 15.3828H16.3977C16.8576 15.3828 17.2299 15.0102 17.2299 14.5505C17.2299 14.0908 16.8574 13.7183 16.3977 13.7183Z" fill="#031EAB"/>
</g>
<defs>
<clipPath id="clip0_129_922">
<rect width="21" height="21" fill="white" transform="translate(2)"/>
</clipPath>
</defs>
</svg>
