<svg width="25" height="21" viewBox="0 0 25 21" fill="none" xmlns="http://www.w3.org/2000/svg">
<g clip-path="url(#clip0_129_2221)">
<path d="M16.3972 5.92285H11.1819C10.7222 5.92285 10.3496 6.2954 10.3496 6.7551C10.3496 7.21476 10.7222 7.58735 11.1819 7.58735H16.3972C16.8571 7.58735 17.2294 7.2148 17.2294 6.7551C17.2294 6.2954 16.8569 5.92285 16.3972 5.92285Z" fill="#FFF6F6"/>
<path d="M18.3945 9.94531H11.1819C10.7222 9.94531 10.3496 10.3179 10.3496 10.7776C10.3496 11.2372 10.7222 11.6098 11.1819 11.6098H18.3945C18.8542 11.6098 19.2268 11.2373 19.2268 10.7776C19.2268 10.3179 18.8542 9.94531 18.3945 9.94531Z" fill="#FFF6F6"/>
<path d="M22.1678 0.707031H7.43724C6.97757 0.707031 6.60499 1.07958 6.60499 1.53928V9.39H5.13474C3.40618 9.39 2 10.7965 2 12.5247V17.1575C2 18.8861 3.40618 20.2922 5.13474 20.2922C5.27621 20.2922 5.41549 20.2828 5.55171 20.2645H19.2827C21.3322 20.2645 23 18.597 23 16.5472V1.53928C23 1.07958 22.6275 0.707031 22.1678 0.707031ZM6.60503 17.1575C6.60503 17.8707 6.0943 18.4672 5.41939 18.6H5.13478V18.6277C4.3239 18.6277 3.6645 17.968 3.6645 17.1575V12.5247C3.6645 11.7141 4.32419 11.0545 5.13478 11.0545H6.60507L6.60503 17.1575ZM21.3355 16.5472C21.3355 17.6599 20.3957 18.6 19.2827 18.6H7.91745C8.14242 18.1681 8.26948 17.6773 8.26948 17.1575V2.37149H21.3355V16.5472Z" fill="#FFF6F6"/>
<path d="M16.3972 13.7178H11.1819C10.7222 13.7178 10.3496 14.0903 10.3496 14.55C10.3496 15.0097 10.7222 15.3823 11.1819 15.3823H16.3972C16.8571 15.3823 17.2294 15.0097 17.2294 14.55C17.2294 14.0903 16.8569 13.7178 16.3972 13.7178Z" fill="#FFF6F6"/>
</g>
<defs>
<clipPath id="clip0_129_2221">
<rect width="21" height="21" fill="white" transform="translate(2)"/>
</clipPath>
</defs>
</svg>
