<svg width="25" height="23" viewBox="0 0 25 23" fill="none" xmlns="http://www.w3.org/2000/svg">
<path d="M20.2782 3.76281C18.2006 1.68527 15.4382 0.541016 12.5 0.541016C9.56184 0.541016 6.79942 1.68523 4.7218 3.76281C2.64426 5.84044 1.5 8.60286 1.5 11.541C1.5 14.4792 2.64421 17.2416 4.7218 19.3192C6.79942 21.3968 9.56184 22.541 12.5 22.541C15.4382 22.541 18.2006 21.3968 20.2782 19.3192C22.3557 17.2416 23.5 14.4792 23.5 11.541C23.5 8.60286 22.3558 5.84044 20.2782 3.76281ZM6.27404 18.9874C6.6373 15.862 9.32435 13.4491 12.5 13.4491C14.1741 13.4491 15.7484 14.1014 16.9325 15.2854C17.9328 16.2859 18.5638 17.5922 18.7261 18.9872C17.0393 20.4 14.8673 21.252 12.5 21.252C10.1327 21.252 7.96091 20.4001 6.27404 18.9874ZM12.5 12.1214C10.6579 12.1214 9.15901 10.6226 9.15901 8.78045C9.15901 6.93816 10.6579 5.43945 12.5 5.43945C14.3421 5.43945 15.841 6.93816 15.841 8.78045C15.841 10.6226 14.3421 12.1214 12.5 12.1214V12.1214ZM19.8356 17.8976C19.5044 16.5638 18.8158 15.3456 17.8439 14.3739C17.0517 13.5817 16.1144 12.9873 15.0922 12.6149C16.321 11.7816 17.1301 10.3736 17.1301 8.78045C17.1301 6.2275 15.0529 4.15039 12.5 4.15039C9.94705 4.15039 7.86995 6.2275 7.86995 8.78045C7.86995 10.3745 8.67965 11.7829 9.90946 12.6161C8.969 12.9588 8.09875 13.4887 7.34998 14.1863C6.26566 15.196 5.51272 16.4836 5.1636 17.8965C3.68505 16.192 2.78906 13.9693 2.78906 11.541C2.78906 6.18638 7.14536 1.83008 12.5 1.83008C17.8546 1.83008 22.2109 6.18638 22.2109 11.541C22.2109 13.9697 21.3146 16.1931 19.8356 17.8976Z" fill="#FFF6F6" stroke="#FFF6F6" stroke-width="0.3"/>
</svg>
