<svg width="25" height="23" viewBox="0 0 25 23" fill="none" xmlns="http://www.w3.org/2000/svg">
<path d="M12.873 6.42676H7.12305C6.93242 6.42676 6.74961 6.50248 6.61481 6.63727C6.48002 6.77207 6.4043 6.95488 6.4043 7.14551C6.4043 7.33613 6.48002 7.51895 6.61481 7.65374C6.74961 7.78853 6.93242 7.86426 7.12305 7.86426H12.873C13.0637 7.86426 13.2465 7.78853 13.3813 7.65374C13.5161 7.51895 13.5918 7.33613 13.5918 7.14551C13.5918 6.95488 13.5161 6.77207 13.3813 6.63727C13.2465 6.50248 13.0637 6.42676 12.873 6.42676ZM12.873 10.2721H7.12305C6.93242 10.2721 6.74961 10.3478 6.61481 10.4826C6.48002 10.6174 6.4043 10.8002 6.4043 10.9908C6.4043 11.1814 6.48002 11.3643 6.61481 11.4991C6.74961 11.6338 6.93242 11.7096 7.12305 11.7096H12.873C13.0637 11.7096 13.2465 11.6338 13.3813 11.4991C13.5161 11.3643 13.5918 11.1814 13.5918 10.9908C13.5918 10.8002 13.5161 10.6174 13.3813 10.4826C13.2465 10.3478 13.0637 10.2721 12.873 10.2721ZM12.873 14.2036H7.12305C6.93242 14.2036 6.74961 14.2794 6.61481 14.4141C6.48002 14.5489 6.4043 14.7318 6.4043 14.9224C6.4043 15.113 6.48002 15.2958 6.61481 15.4306C6.74961 15.5654 6.93242 15.6411 7.12305 15.6411H12.873C13.0637 15.6411 13.2465 15.5654 13.3813 15.4306C13.5161 15.2958 13.5918 15.113 13.5918 14.9224C13.5918 14.7318 13.5161 14.5489 13.3813 14.4141C13.2465 14.2794 13.0637 14.2036 12.873 14.2036Z" fill="#FFF6F6" stroke="#FFF6F6" stroke-width="0.1"/>
<path d="M19.5935 1H5.40535C5.03663 1.00094 4.67172 1.07462 4.33152 1.21681C3.99132 1.359 3.68251 1.56691 3.42279 1.82864C3.16307 2.09036 2.95754 2.40075 2.81796 2.74204C2.67839 3.08332 2.60752 3.44878 2.60941 3.8175V21.3478C2.60894 21.5277 2.65636 21.7045 2.7468 21.86C2.83725 22.0155 2.96745 22.1441 3.12404 22.2326C3.28063 22.3212 3.45797 22.3664 3.63784 22.3638C3.81771 22.3611 3.99363 22.3106 4.14754 22.2175L6.79254 20.6291C6.83244 20.6042 6.8785 20.591 6.92551 20.591C6.97251 20.591 7.01857 20.6042 7.05847 20.6291L9.99816 22.39C10.1528 22.4885 10.3323 22.5409 10.5157 22.5409C10.7002 22.54 10.8811 22.4904 11.0403 22.3972L13.9944 20.6291C14.0343 20.6042 14.0804 20.591 14.1274 20.591C14.1744 20.591 14.2204 20.6042 14.2604 20.6291L16.891 22.2175C17.0454 22.3092 17.2217 22.3577 17.4013 22.3577C17.5809 22.3577 17.7572 22.3092 17.9116 22.2175C18.0662 22.1291 18.1948 22.0015 18.2844 21.8475C18.374 21.6936 18.4214 21.5187 18.4219 21.3406V9.2225H20.6788C21.1319 9.22061 21.5659 9.03977 21.8863 8.71938C22.2067 8.39898 22.3875 7.96498 22.3894 7.51188V3.8175C22.3913 3.44878 22.3204 3.08332 22.1809 2.74204C22.0413 2.40075 21.8358 2.09036 21.576 1.82864C21.3163 1.56691 21.0075 1.359 20.6673 1.21681C20.3271 1.07462 19.9622 1.00094 19.5935 1ZM16.9844 20.5931L15.0007 19.4C14.7364 19.2431 14.4347 19.1603 14.1274 19.1603C13.82 19.1603 13.5184 19.2431 13.2541 19.4L10.5228 21.0387L7.79879 19.3928C7.53137 19.2329 7.22533 19.149 6.91372 19.1502C6.60212 19.1515 6.29677 19.2379 6.03066 19.4L4.04691 20.6003V3.8175C4.04405 3.6373 4.07708 3.45833 4.14406 3.29102C4.21105 3.12371 4.31066 2.97141 4.43708 2.84297C4.56351 2.71453 4.71423 2.61254 4.88047 2.54293C5.0467 2.47332 5.22513 2.43748 5.40535 2.4375H17.2791C17.0893 2.7991 16.9883 3.20069 16.9844 3.60906V20.5716V20.5931ZM20.9519 7.51188C20.9519 7.58431 20.9231 7.65378 20.8719 7.705C20.8207 7.75622 20.7512 7.785 20.6788 7.785H18.4219V3.63062C18.419 3.47497 18.4472 3.3203 18.5048 3.17566C18.5624 3.03102 18.6483 2.89931 18.7573 2.78823C18.8664 2.67715 18.9965 2.58892 19.1401 2.5287C19.2837 2.46848 19.4378 2.43747 19.5935 2.4375C19.9538 2.4375 20.2993 2.58062 20.554 2.83538C20.8088 3.09013 20.9519 3.43566 20.9519 3.79594V7.51188Z" fill="#FFF6F6" stroke="#FFF6F6" stroke-width="0.1"/>
</svg>
