<svg width="25" height="19" viewBox="0 0 25 19" fill="none" xmlns="http://www.w3.org/2000/svg">
<path d="M3.5 2.5C3.5 1.96957 3.68964 1.46086 4.02721 1.08579C4.36477 0.710714 4.82261 0.5 5.3 0.5H10.7V18.5H5.3C4.82261 18.5 4.36477 18.2893 4.02721 17.9142C3.68964 17.5391 3.5 17.0304 3.5 16.5V2.5ZM14.3 0.5H19.7C20.1774 0.5 20.6352 0.710714 20.9728 1.08579C21.3104 1.46086 21.5 1.96957 21.5 2.5V7.5H14.3V0.5ZM14.3 11.5H21.5V16.5C21.5 17.0304 21.3104 17.5391 20.9728 17.9142C20.6352 18.2893 20.1774 18.5 19.7 18.5H14.3V11.5Z" fill="white" stroke="black" stroke-opacity="0.23" stroke-linecap="round" stroke-linejoin="round"/>
</svg>
