<svg width="25" height="24" viewBox="0 0 25 24" fill="none" xmlns="http://www.w3.org/2000/svg">
<path d="M21.0904 3.58918H19.1506V1.64946C19.1506 1.03978 18.6518 0.541016 18.0424 0.541016H3.90967C3.30004 0.541016 2.80127 1.03978 2.80127 1.64946V19.3844C2.80127 19.994 3.30004 20.4928 3.90971 20.4928H5.84948V22.4326C5.84948 23.0422 6.34802 23.541 6.95793 23.541H16.3793C16.9887 23.541 17.8511 23.1991 18.2947 22.7815L21.3911 19.8669C21.8353 19.4493 22.1983 18.6085 22.1983 17.9989L22.1989 4.69772C22.1988 4.08799 21.7 3.58918 21.0904 3.58918ZM5.84939 4.69767V19.6615H3.90967C3.7595 19.6615 3.63259 19.5346 3.63259 19.3844V1.64946C3.63259 1.49929 3.7595 1.37238 3.90967 1.37238H18.0425C18.1924 1.37238 18.3195 1.49929 18.3195 1.64946V3.58923H6.95784C6.34793 3.58923 5.84939 4.08799 5.84939 4.69767ZM20.8213 19.2616L17.7249 22.176C17.6615 22.2356 17.5789 22.294 17.4877 22.3497V19.8C17.4877 19.6096 17.5645 19.4384 17.6911 19.3109C17.8188 19.1843 17.9901 19.1073 18.1805 19.1073H20.953C20.91 19.1657 20.8659 19.2194 20.8213 19.2616ZM21.3669 17.9988C21.3669 18.0811 21.3519 18.1764 21.3292 18.2759H18.1804C17.3394 18.2775 16.658 18.9589 16.6563 19.8V22.676C16.5574 22.696 16.4621 22.7096 16.3792 22.7096H6.95784V22.7096C6.80735 22.7096 6.68076 22.5827 6.68076 22.4325V4.69763C6.68076 4.54745 6.80739 4.42055 6.95784 4.42055H21.0903C21.2405 4.42055 21.3674 4.54745 21.3674 4.69763L21.3669 17.9988Z" fill="#FFF6F6" stroke="#FFF6F6" stroke-width="0.8"/>
<path d="M18.0424 7.46863H10.0062C9.95164 7.4686 9.89758 7.47933 9.84714 7.50021C9.79669 7.52109 9.75086 7.5517 9.71226 7.59031C9.67365 7.62891 9.64303 7.67474 9.62216 7.72519C9.60128 7.77563 9.59055 7.8297 9.59058 7.88429C9.59055 7.93888 9.60129 7.99294 9.62217 8.04338C9.64305 8.09383 9.67367 8.13966 9.71227 8.17826C9.75087 8.21686 9.7967 8.24748 9.84714 8.26836C9.89758 8.28924 9.95165 8.29998 10.0062 8.29995H18.0424C18.2718 8.29995 18.458 8.11402 18.458 7.88429C18.458 7.65456 18.2718 7.46863 18.0424 7.46863ZM18.0424 13.0108H10.0062C9.95164 13.0108 9.89758 13.0215 9.84714 13.0424C9.79669 13.0633 9.75086 13.0939 9.71226 13.1325C9.67365 13.1711 9.64303 13.2169 9.62216 13.2674C9.60128 13.3178 9.59055 13.3719 9.59058 13.4265C9.59055 13.4811 9.60129 13.5351 9.62217 13.5856C9.64305 13.636 9.67367 13.6818 9.71227 13.7205C9.75087 13.7591 9.7967 13.7897 9.84714 13.8106C9.89758 13.8314 9.95165 13.8422 10.0062 13.8421H18.0424C18.0969 13.8421 18.151 13.8314 18.2014 13.8105C18.2519 13.7896 18.2977 13.759 18.3363 13.7204C18.3749 13.6818 18.4055 13.636 18.4264 13.5856C18.4473 13.5351 18.458 13.4811 18.458 13.4265C18.458 13.3719 18.4473 13.3178 18.4264 13.2674C18.4055 13.217 18.3749 13.1711 18.3363 13.1325C18.2977 13.0939 18.2519 13.0633 18.2014 13.0424C18.151 13.0216 18.0969 13.0108 18.0424 13.0108ZM14.44 15.7819H10.0063C9.77655 15.7819 9.59062 15.9678 9.59062 16.1976C9.59062 16.4273 9.77655 16.6132 10.0063 16.6132H14.44C14.6694 16.6132 14.8554 16.4273 14.8554 16.1976C14.8554 15.9678 14.6694 15.7819 14.44 15.7819ZM18.0424 10.2397H10.0062C9.77651 10.2397 9.59058 10.4257 9.59058 10.6554C9.59058 10.8851 9.77655 11.071 10.0062 11.071H18.0424C18.2718 11.071 18.458 10.8851 18.458 10.6554C18.458 10.4257 18.2718 10.2397 18.0424 10.2397Z" fill="#FFF6F6" stroke="#FFF6F6" stroke-width="0.8"/>
</svg>
