<svg width="25" height="24" viewBox="0 0 25 24" fill="none" xmlns="http://www.w3.org/2000/svg">
<path d="M21.0899 3.58918H19.1501V1.64946C19.1502 1.03978 18.6513 0.541016 18.0419 0.541016H3.90918C3.29955 0.541016 2.80078 1.03978 2.80078 1.64946V19.3844C2.80078 19.994 3.29955 20.4928 3.90923 20.4928H5.84899V22.4326C5.84899 23.0422 6.34754 23.541 6.95744 23.541H16.3788C16.9882 23.541 17.8506 23.1991 18.2942 22.7815L21.3906 19.8669C21.8348 19.4493 22.1978 18.6085 22.1978 17.9989L22.1984 4.69772C22.1983 4.08799 21.6995 3.58918 21.0899 3.58918ZM5.8489 4.69767V19.6615H3.90918C3.75901 19.6615 3.6321 19.5346 3.6321 19.3844V1.64946C3.6321 1.49929 3.75901 1.37238 3.90918 1.37238H18.042C18.1919 1.37238 18.3191 1.49929 18.3191 1.64946V3.58923H6.95735C6.34745 3.58923 5.8489 4.08799 5.8489 4.69767ZM20.8208 19.2616L17.7244 22.176C17.661 22.2356 17.5784 22.294 17.4872 22.3497V19.8C17.4872 19.6096 17.564 19.4384 17.6906 19.3109C17.8184 19.1843 17.9896 19.1073 18.18 19.1073H20.9525C20.9095 19.1657 20.8654 19.2194 20.8208 19.2616ZM21.3664 17.9988C21.3664 18.0811 21.3514 18.1764 21.3287 18.2759H18.1799C17.339 18.2775 16.6575 18.9589 16.6558 19.8V22.676C16.5569 22.696 16.4616 22.7096 16.3788 22.7096H6.95735V22.7096C6.80686 22.7096 6.68027 22.5827 6.68027 22.4325V4.69763C6.68027 4.54745 6.80691 4.42055 6.95735 4.42055H21.0898C21.24 4.42055 21.3669 4.54745 21.3669 4.69763L21.3664 17.9988Z" fill="#FFF6F6" stroke="#FFF6F6" stroke-width="0.8"/>
<path d="M18.0416 7.46875H10.0055C9.95091 7.46872 9.89685 7.47945 9.8464 7.50033C9.79596 7.52121 9.75013 7.55183 9.71152 7.59043C9.67292 7.62903 9.6423 7.67487 9.62142 7.72531C9.60055 7.77575 9.58981 7.82982 9.58984 7.88441C9.58982 7.939 9.60056 7.99307 9.62144 8.04351C9.64232 8.09395 9.67293 8.13978 9.71154 8.17838C9.75014 8.21698 9.79597 8.2476 9.84641 8.26848C9.89685 8.28936 9.95091 8.3001 10.0055 8.30007H18.0416C18.2711 8.30007 18.4573 8.11414 18.4573 7.88441C18.4573 7.65468 18.2711 7.46875 18.0416 7.46875ZM18.0416 13.0109H10.0055C9.95091 13.0109 9.89685 13.0216 9.8464 13.0425C9.79596 13.0634 9.75013 13.094 9.71152 13.1326C9.67292 13.1712 9.6423 13.2171 9.62142 13.2675C9.60055 13.3179 9.58981 13.372 9.58984 13.4266C9.58982 13.4812 9.60056 13.5353 9.62144 13.5857C9.64232 13.6361 9.67293 13.682 9.71154 13.7206C9.75014 13.7592 9.79597 13.7898 9.84641 13.8107C9.89685 13.8316 9.95091 13.8423 10.0055 13.8423H18.0416C18.0962 13.8423 18.1503 13.8315 18.2007 13.8106C18.2511 13.7898 18.297 13.7591 18.3356 13.7205C18.3742 13.6819 18.4048 13.6361 18.4257 13.5857C18.4465 13.5352 18.4573 13.4812 18.4573 13.4266C18.4573 13.372 18.4466 13.318 18.4257 13.2675C18.4048 13.2171 18.3742 13.1713 18.3356 13.1327C18.297 13.0941 18.2511 13.0634 18.2007 13.0426C18.1503 13.0217 18.0962 13.0109 18.0416 13.0109ZM14.4393 15.782H10.0056C9.77582 15.782 9.58989 15.968 9.58989 16.1977C9.58989 16.4274 9.77582 16.6134 10.0056 16.6134H14.4393C14.6687 16.6134 14.8546 16.4274 14.8546 16.1977C14.8546 15.968 14.6687 15.782 14.4393 15.782ZM18.0416 10.2398H10.0055C9.77578 10.2398 9.58984 10.4258 9.58984 10.6555C9.58984 10.8852 9.77582 11.0712 10.0055 11.0712H18.0416C18.2711 11.0712 18.4573 10.8852 18.4573 10.6555C18.4573 10.4258 18.2711 10.2398 18.0416 10.2398Z" fill="#FFF6F6" stroke="#FFF6F6" stroke-width="0.8"/>
</svg>
