<svg width="25" height="21" viewBox="0 0 25 21" fill="none" xmlns="http://www.w3.org/2000/svg">
<path d="M3.5 3.5C3.5 2.96957 3.68964 2.46086 4.02721 2.08579C4.36477 1.71071 4.82261 1.5 5.3 1.5H10.7V19.5H5.3C4.82261 19.5 4.36477 19.2893 4.02721 18.9142C3.68964 18.5391 3.5 18.0304 3.5 17.5V3.5ZM14.3 1.5H19.7C20.1774 1.5 20.6352 1.71071 20.9728 2.08579C21.3104 2.46086 21.5 2.96957 21.5 3.5V8.5H14.3V1.5ZM14.3 12.5H21.5V17.5C21.5 18.0304 21.3104 18.5391 20.9728 18.9142C20.6352 19.2893 20.1774 19.5 19.7 19.5H14.3V12.5Z" stroke="white" stroke-width="1.5" stroke-linecap="round" stroke-linejoin="round"/>
</svg>
