<svg width="25" height="24" viewBox="0 0 25 24" fill="none" xmlns="http://www.w3.org/2000/svg">
<path d="M19.5216 22.2666C18.5244 22.4441 17.6104 22.5884 16.7468 22.702C16.7457 22.702 16.7447 22.702 16.7431 22.702C16.3622 22.7519 15.9922 22.7954 15.6301 22.8329C15.6269 22.8329 15.6243 22.8334 15.6212 22.8334C15.2892 22.8677 14.9649 22.8956 14.6438 22.9192C14.5835 22.9235 14.5232 22.9278 14.4635 22.9316C14.1855 22.9503 13.9106 22.9653 13.6372 22.9761C13.5816 22.9782 13.5255 22.9814 13.4699 22.983C12.8235 23.0056 12.1859 23.0056 11.54 22.9836C11.4823 22.9814 11.4241 22.9782 11.3664 22.9761C11.0978 22.9648 10.827 22.9509 10.5532 22.9321C10.4882 22.9278 10.4233 22.9235 10.3578 22.9187C10.0465 22.8956 9.73162 22.8688 9.40996 22.8356C9.39801 22.8345 9.38658 22.8334 9.37462 22.8324C9.01503 22.7954 8.64817 22.7519 8.27091 22.7026C8.26935 22.7026 8.26779 22.7026 8.26623 22.7026C7.39947 22.5894 6.48179 22.4441 5.48044 22.2661L1.5 21.5572C3.56973 19.1151 4.61784 16.1743 4.61784 12.8002V7.9772C4.63551 5.06269 6.6382 2.80938 8.61439 1.8688C9.2021 1.58941 9.81164 1.38081 10.4316 1.23441C10.4368 1.23334 10.4425 1.23388 10.4477 1.2328C11.7286 0.935723 13.0911 0.922317 14.3866 1.19634C14.3933 1.19795 14.4001 1.19473 14.4068 1.1958C15.0844 1.34166 15.7516 1.5626 16.3944 1.86558C18.3114 2.77023 20.2377 5.00853 20.2195 7.97452V12.8008C20.2195 16.0359 21.3497 19.0443 23.5 21.5582L19.5216 22.2666Z" fill="#D2D2D2" stroke="#EEEEEE" stroke-width="0.6"/>
</svg>
