<svg width="25" height="24" viewBox="0 0 25 24" fill="none" xmlns="http://www.w3.org/2000/svg">
<path d="M20.2782 4.2218C18.2006 2.14426 15.4382 1 12.5 1C9.56184 1 6.79942 2.14421 4.7218 4.2218C2.64426 6.29942 1.5 9.06184 1.5 12C1.5 14.9382 2.64421 17.7006 4.7218 19.7782C6.79942 21.8557 9.56184 23 12.5 23C15.4382 23 18.2006 21.8558 20.2782 19.7782C22.3557 17.7006 23.5 14.9382 23.5 12C23.5 9.06184 22.3558 6.29942 20.2782 4.2218ZM6.27404 19.4464C6.6373 16.321 9.32435 13.9081 12.5 13.9081C14.1741 13.9081 15.7484 14.5603 16.9325 15.7443C17.9328 16.7449 18.5638 18.0512 18.7261 19.4462C17.0393 20.859 14.8673 21.7109 12.5 21.7109C10.1327 21.7109 7.96091 20.8591 6.27404 19.4464ZM12.5 12.5804C10.6579 12.5804 9.15901 11.0815 9.15901 9.23943C9.15901 7.39714 10.6579 5.89844 12.5 5.89844C14.3421 5.89844 15.841 7.39714 15.841 9.23943C15.841 11.0815 14.3421 12.5804 12.5 12.5804V12.5804ZM19.8356 18.3565C19.5044 17.0228 18.8158 15.8046 17.8439 14.8329C17.0517 14.0407 16.1144 13.4463 15.0922 13.0739C16.321 12.2405 17.1301 10.8326 17.1301 9.23943C17.1301 6.68648 15.0529 4.60938 12.5 4.60938C9.94705 4.60938 7.86995 6.68648 7.86995 9.23943C7.86995 10.8335 8.67965 12.2419 9.90946 13.0751C8.969 13.4178 8.09875 13.9477 7.34998 14.6452C6.26566 15.655 5.51272 16.9426 5.1636 18.3555C3.68505 16.651 2.78906 14.4283 2.78906 12C2.78906 6.64536 7.14536 2.28906 12.5 2.28906C17.8546 2.28906 22.2109 6.64536 22.2109 12C22.2109 14.4287 21.3146 16.6521 19.8356 18.3565Z" fill="#FFF6F6" stroke="#FFF6F6" stroke-width="0.3"/>
</svg>
