<svg width="25" height="16" viewBox="0 0 25 16" fill="none" xmlns="http://www.w3.org/2000/svg">
<path d="M4.375 0.541016C3.33984 0.541016 2.5 1.38086 2.5 2.41602C2.5 3.00586 2.77734 3.56055 3.25 3.91602L11.75 10.291C12.1953 10.623 12.8047 10.623 13.25 10.291L21.75 3.91602C22.2227 3.56055 22.5 3.00586 22.5 2.41602C22.5 1.38086 21.6602 0.541016 20.625 0.541016H4.375ZM2.5 4.91602V13.041C2.5 14.4199 3.62109 15.541 5 15.541H20C21.3789 15.541 22.5 14.4199 22.5 13.041V4.91602L14 11.291C13.1094 11.959 11.8906 11.959 11 11.291L2.5 4.91602Z" fill="#1E43A5"/>
</svg>
