<svg width="25" height="21" viewBox="0 0 25 21" fill="none" xmlns="http://www.w3.org/2000/svg">
<g clip-path="url(#clip0_129_2443)">
<path d="M16.3972 5.92273H11.1819C10.7222 5.92273 10.3496 6.29527 10.3496 6.75498C10.3496 7.21464 10.7222 7.58723 11.1819 7.58723H16.3972C16.8571 7.58723 17.2294 7.21468 17.2294 6.75498C17.2294 6.29527 16.8569 5.92273 16.3972 5.92273Z" fill="#FFF6F6"/>
<path d="M18.3945 9.94519H11.1819C10.7222 9.94519 10.3496 10.3177 10.3496 10.7774C10.3496 11.2371 10.7222 11.6097 11.1819 11.6097H18.3945C18.8542 11.6097 19.2268 11.2371 19.2268 10.7774C19.2268 10.3177 18.8542 9.94519 18.3945 9.94519Z" fill="#FFF6F6"/>
<path d="M22.1678 0.707397H7.43724C6.97757 0.707397 6.60499 1.07994 6.60499 1.53965V9.39036H5.13474C3.40618 9.39036 2 10.7968 2 12.5251V17.1579C2 18.8864 3.40618 20.2926 5.13474 20.2926C5.27621 20.2926 5.41549 20.2832 5.55171 20.2649H19.2827C21.3322 20.2649 23 18.5973 23 16.5476V1.53965C23 1.07994 22.6275 0.707397 22.1678 0.707397ZM6.60503 17.1579C6.60503 17.8711 6.0943 18.4675 5.41939 18.6004H5.13478V18.6281C4.3239 18.6281 3.6645 17.9684 3.6645 17.1578V12.5251C3.6645 11.7145 4.32419 11.0548 5.13478 11.0548H6.60507L6.60503 17.1579ZM21.3355 16.5476C21.3355 17.6603 20.3957 18.6004 19.2827 18.6004H7.91745C8.14242 18.1684 8.26948 17.6777 8.26948 17.1579V2.37185H21.3355V16.5476Z" fill="#FFF6F6"/>
<path d="M16.3972 13.7183H11.1819C10.7222 13.7183 10.3496 14.0908 10.3496 14.5505C10.3496 15.0102 10.7222 15.3828 11.1819 15.3828H16.3972C16.8571 15.3828 17.2294 15.0102 17.2294 14.5505C17.2294 14.0908 16.8569 13.7183 16.3972 13.7183Z" fill="#FFF6F6"/>
</g>
<defs>
<clipPath id="clip0_129_2443">
<rect width="21" height="21" fill="white" transform="translate(2)"/>
</clipPath>
</defs>
</svg>
