<svg width="25" height="24" viewBox="0 0 25 24" fill="none" xmlns="http://www.w3.org/2000/svg">
<path d="M21.0899 3.58918H19.1501V1.64946C19.1502 1.03978 18.6513 0.541016 18.0419 0.541016H3.90918C3.29955 0.541016 2.80078 1.03978 2.80078 1.64946V19.3844C2.80078 19.994 3.29955 20.4928 3.90923 20.4928H5.84899V22.4326C5.84899 23.0422 6.34754 23.541 6.95744 23.541H16.3788C16.9882 23.541 17.8506 23.1991 18.2942 22.7815L21.3906 19.8669C21.8348 19.4493 22.1978 18.6085 22.1978 17.9989L22.1984 4.69772C22.1983 4.08799 21.6995 3.58918 21.0899 3.58918ZM5.8489 4.69767V19.6615H3.90918C3.75901 19.6615 3.6321 19.5346 3.6321 19.3844V1.64946C3.6321 1.49929 3.75901 1.37238 3.90918 1.37238H18.042C18.1919 1.37238 18.3191 1.49929 18.3191 1.64946V3.58923H6.95735C6.34745 3.58923 5.8489 4.08799 5.8489 4.69767ZM20.8208 19.2616L17.7244 22.176C17.661 22.2356 17.5784 22.294 17.4872 22.3497V19.8C17.4872 19.6096 17.564 19.4384 17.6906 19.3109C17.8184 19.1843 17.9896 19.1073 18.18 19.1073H20.9525C20.9095 19.1657 20.8654 19.2194 20.8208 19.2616ZM21.3664 17.9988C21.3664 18.0811 21.3514 18.1764 21.3287 18.2759H18.1799C17.339 18.2775 16.6575 18.9589 16.6558 19.8V22.676C16.5569 22.696 16.4616 22.7096 16.3788 22.7096H6.95735V22.7096C6.80686 22.7096 6.68027 22.5827 6.68027 22.4325V4.69763C6.68027 4.54745 6.80691 4.42055 6.95735 4.42055H21.0898C21.24 4.42055 21.3669 4.54745 21.3669 4.69763L21.3664 17.9988Z" fill="#FFF6F6" stroke="#FFF6F6" stroke-width="0.8"/>
<path d="M18.0416 7.46863H10.0055C9.95091 7.4686 9.89685 7.47933 9.8464 7.50021C9.79596 7.52109 9.75013 7.5517 9.71152 7.59031C9.67292 7.62891 9.6423 7.67474 9.62142 7.72519C9.60055 7.77563 9.58981 7.8297 9.58984 7.88429C9.58982 7.93888 9.60056 7.99294 9.62144 8.04338C9.64232 8.09383 9.67293 8.13966 9.71154 8.17826C9.75014 8.21686 9.79597 8.24748 9.84641 8.26836C9.89685 8.28924 9.95091 8.29998 10.0055 8.29995H18.0416C18.2711 8.29995 18.4573 8.11402 18.4573 7.88429C18.4573 7.65456 18.2711 7.46863 18.0416 7.46863ZM18.0416 13.0108H10.0055C9.95091 13.0108 9.89685 13.0215 9.8464 13.0424C9.79596 13.0633 9.75013 13.0939 9.71152 13.1325C9.67292 13.1711 9.6423 13.2169 9.62142 13.2674C9.60055 13.3178 9.58981 13.3719 9.58984 13.4265C9.58982 13.4811 9.60056 13.5351 9.62144 13.5856C9.64232 13.636 9.67293 13.6818 9.71154 13.7205C9.75014 13.7591 9.79597 13.7897 9.84641 13.8106C9.89685 13.8314 9.95091 13.8422 10.0055 13.8421H18.0416C18.0962 13.8421 18.1503 13.8314 18.2007 13.8105C18.2511 13.7896 18.297 13.759 18.3356 13.7204C18.3742 13.6818 18.4048 13.636 18.4257 13.5856C18.4465 13.5351 18.4573 13.4811 18.4573 13.4265C18.4573 13.3719 18.4466 13.3178 18.4257 13.2674C18.4048 13.217 18.3742 13.1711 18.3356 13.1325C18.297 13.0939 18.2511 13.0633 18.2007 13.0424C18.1503 13.0216 18.0962 13.0108 18.0416 13.0108ZM14.4393 15.7819H10.0056C9.77582 15.7819 9.58989 15.9678 9.58989 16.1976C9.58989 16.4273 9.77582 16.6132 10.0056 16.6132H14.4393C14.6687 16.6132 14.8546 16.4273 14.8546 16.1976C14.8546 15.9678 14.6687 15.7819 14.4393 15.7819ZM18.0416 10.2397H10.0055C9.77578 10.2397 9.58984 10.4257 9.58984 10.6554C9.58984 10.8851 9.77582 11.071 10.0055 11.071H18.0416C18.2711 11.071 18.4573 10.8851 18.4573 10.6554C18.4573 10.4257 18.2711 10.2397 18.0416 10.2397Z" fill="#FFF6F6" stroke="#FFF6F6" stroke-width="0.8"/>
</svg>
