<svg width="25" height="21" viewBox="0 0 25 21" fill="none" xmlns="http://www.w3.org/2000/svg">
<g clip-path="url(#clip0_2_2429)">
<path d="M16.3992 5.92188H11.1838C10.7241 5.92188 10.3516 6.29442 10.3516 6.75412C10.3516 7.21379 10.7241 7.58637 11.1838 7.58637H16.3992C16.8591 7.58637 17.2314 7.21383 17.2314 6.75412C17.2314 6.29442 16.8588 5.92188 16.3992 5.92188Z" fill="#FFF6F6"/>
<path d="M18.3965 9.94531H11.1838C10.7241 9.94531 10.3516 10.3179 10.3516 10.7776C10.3516 11.2372 10.7241 11.6098 11.1838 11.6098H18.3965C18.8562 11.6098 19.2287 11.2373 19.2287 10.7776C19.2287 10.3179 18.8562 9.94531 18.3965 9.94531Z" fill="#FFF6F6"/>
<path d="M22.1678 0.707031H7.43724C6.97757 0.707031 6.60499 1.07958 6.60499 1.53928V9.39H5.13474C3.40618 9.39 2 10.7965 2 12.5247V17.1575C2 18.8861 3.40618 20.2922 5.13474 20.2922C5.27621 20.2922 5.41549 20.2828 5.55171 20.2645H19.2827C21.3322 20.2645 23 18.597 23 16.5472V1.53928C23 1.07958 22.6275 0.707031 22.1678 0.707031ZM6.60503 17.1575C6.60503 17.8707 6.0943 18.4672 5.41939 18.6H5.13478V18.6277C4.3239 18.6277 3.6645 17.968 3.6645 17.1575V12.5247C3.6645 11.7141 4.32419 11.0545 5.13478 11.0545H6.60507L6.60503 17.1575ZM21.3355 16.5472C21.3355 17.6599 20.3957 18.6 19.2827 18.6H7.91745C8.14242 18.1681 8.26948 17.6773 8.26948 17.1575V2.37149H21.3355V16.5472Z" fill="#FFF6F6"/>
<path d="M16.3992 13.7188H11.1838C10.7241 13.7188 10.3516 14.0913 10.3516 14.551C10.3516 15.0107 10.7241 15.3832 11.1838 15.3832H16.3992C16.8591 15.3832 17.2314 15.0107 17.2314 14.551C17.2314 14.0913 16.8588 13.7188 16.3992 13.7188Z" fill="#FFF6F6"/>
</g>
<defs>
<clipPath id="clip0_2_2429">
<rect width="21" height="21" fill="white" transform="translate(2)"/>
</clipPath>
</defs>
</svg>
