<svg width="25" height="23" viewBox="0 0 25 23" fill="none" xmlns="http://www.w3.org/2000/svg">
<path d="M12.8735 6.42651H7.12354C6.93291 6.42651 6.75009 6.50224 6.6153 6.63703C6.48051 6.77182 6.40479 6.95464 6.40479 7.14526C6.40479 7.33589 6.48051 7.5187 6.6153 7.6535C6.75009 7.78829 6.93291 7.86401 7.12354 7.86401H12.8735C13.0642 7.86401 13.247 7.78829 13.3818 7.6535C13.5166 7.5187 13.5923 7.33589 13.5923 7.14526C13.5923 6.95464 13.5166 6.77182 13.3818 6.63703C13.247 6.50224 13.0642 6.42651 12.8735 6.42651ZM12.8735 10.2718H7.12354C6.93291 10.2718 6.75009 10.3476 6.6153 10.4823C6.48051 10.6171 6.40479 10.8 6.40479 10.9906C6.40479 11.1812 6.48051 11.364 6.6153 11.4988C6.75009 11.6336 6.93291 11.7093 7.12354 11.7093H12.8735C13.0642 11.7093 13.247 11.6336 13.3818 11.4988C13.5166 11.364 13.5923 11.1812 13.5923 10.9906C13.5923 10.8 13.5166 10.6171 13.3818 10.4823C13.247 10.3476 13.0642 10.2718 12.8735 10.2718ZM12.8735 14.2034H7.12354C6.93291 14.2034 6.75009 14.2791 6.6153 14.4139C6.48051 14.5487 6.40479 14.7315 6.40479 14.9221C6.40479 15.1128 6.48051 15.2956 6.6153 15.4304C6.75009 15.5652 6.93291 15.6409 7.12354 15.6409H12.8735C13.0642 15.6409 13.247 15.5652 13.3818 15.4304C13.5166 15.2956 13.5923 15.1128 13.5923 14.9221C13.5923 14.7315 13.5166 14.5487 13.3818 14.4139C13.247 14.2791 13.0642 14.2034 12.8735 14.2034Z" fill="#FFF6F6" stroke="#FFF6F6" stroke-width="0.1"/>
<path d="M19.594 1H5.40584C5.03712 1.00094 4.67221 1.07462 4.33201 1.21681C3.99181 1.359 3.683 1.56691 3.42328 1.82864C3.16356 2.09036 2.95803 2.40075 2.81845 2.74204C2.67888 3.08332 2.60801 3.44878 2.6099 3.8175V21.3478C2.60943 21.5277 2.65685 21.7045 2.74729 21.86C2.83773 22.0155 2.96794 22.1441 3.12453 22.2326C3.28112 22.3212 3.45846 22.3664 3.63833 22.3638C3.8182 22.3611 3.99412 22.3106 4.14803 22.2175L6.79303 20.6291C6.83293 20.6042 6.87899 20.591 6.92599 20.591C6.973 20.591 7.01906 20.6042 7.05896 20.6291L9.99865 22.39C10.1533 22.4885 10.3328 22.5409 10.5162 22.5409C10.7006 22.54 10.8816 22.4904 11.0408 22.3972L13.9949 20.6291C14.0348 20.6042 14.0809 20.591 14.1279 20.591C14.1749 20.591 14.2209 20.6042 14.2608 20.6291L16.8915 22.2175C17.0459 22.3092 17.2222 22.3577 17.4018 22.3577C17.5814 22.3577 17.7577 22.3092 17.9121 22.2175C18.0667 22.1291 18.1953 22.0015 18.2849 21.8475C18.3745 21.6936 18.4219 21.5187 18.4224 21.3406V9.2225H20.6793C21.1324 9.22061 21.5664 9.03977 21.8868 8.71938C22.2072 8.39898 22.388 7.96498 22.3899 7.51188V3.8175C22.3918 3.44878 22.3209 3.08332 22.1813 2.74204C22.0418 2.40075 21.8362 2.09036 21.5765 1.82864C21.3168 1.56691 21.008 1.359 20.6678 1.21681C20.3276 1.07462 19.9627 1.00094 19.594 1ZM16.9849 20.5931L15.0012 19.4C14.7369 19.2431 14.4352 19.1603 14.1279 19.1603C13.8205 19.1603 13.5189 19.2431 13.2546 19.4L10.5233 21.0387L7.79927 19.3928C7.53185 19.2329 7.22582 19.149 6.91421 19.1502C6.6026 19.1515 6.29726 19.2379 6.03115 19.4L4.0474 20.6003V3.8175C4.04454 3.6373 4.07756 3.45833 4.14455 3.29102C4.21154 3.12371 4.31114 2.97141 4.43757 2.84297C4.564 2.71453 4.71472 2.61254 4.88096 2.54293C5.04719 2.47332 5.22562 2.43748 5.40584 2.4375H17.2796C17.0898 2.7991 16.9888 3.20069 16.9849 3.60906V20.5716V20.5931ZM20.9524 7.51188C20.9524 7.58431 20.9236 7.65378 20.8724 7.705C20.8212 7.75622 20.7517 7.785 20.6793 7.785H18.4224V3.63062C18.4195 3.47497 18.4477 3.3203 18.5053 3.17566C18.5629 3.03102 18.6487 2.89931 18.7578 2.78823C18.8669 2.67715 18.997 2.58892 19.1406 2.5287C19.2842 2.46848 19.4383 2.43747 19.594 2.4375C19.9542 2.4375 20.2998 2.58062 20.5545 2.83538C20.8093 3.09013 20.9524 3.43566 20.9524 3.79594V7.51188Z" fill="#FFF6F6" stroke="#FFF6F6" stroke-width="0.1"/>
</svg>
