<svg width="1208" height="111" viewBox="0 0 1208 111" fill="none" xmlns="http://www.w3.org/2000/svg">
<rect x="0.5" y="0.5" width="1207" height="110" fill="white"/>
<rect x="0.5" y="0.5" width="1207" height="110" stroke="black"/>
<path d="M44.5 33C44.5 29.1046 47.4555 26 51.0312 26H111.969C115.545 26 118.5 29.1046 118.5 33C118.5 35.2145 117.524 37.2871 115.875 38.61L84.0013 64.1087C84.0012 64.1088 84.0011 64.1088 84.0009 64.1089C82.5134 65.2918 80.4866 65.2918 78.9991 64.1089C78.9989 64.1088 78.9988 64.1088 78.9987 64.1087L47.1254 38.61C47.1253 38.6099 47.1253 38.6099 47.1252 38.6098C45.4763 37.287 44.5 35.2144 44.5 33ZM44.5 75.5V44.0403L75.5627 68.8904C79.0851 71.7084 83.9149 71.7084 87.4373 68.8904L118.5 44.0403V75.5C118.5 80.7704 114.49 85 109.625 85H53.375C48.5102 85 44.5 80.7704 44.5 75.5Z" fill="#1E43A5" stroke="black"/>
<path d="M198.009 43.0859C194.268 39.8047 189.286 38 183.991 38C173.062 38 164.17 45.7812 164.17 55.3438C164.17 58.3984 165.08 61.3828 166.812 64.0156L164 73L174.509 70.5859C177.402 71.9688 180.661 72.6953 183.982 72.6953H183.991C194.911 72.6953 204 64.9141 204 55.3516C204 50.7188 201.75 46.3672 198.009 43.0859ZM183.991 69.7734C181.027 69.7734 178.125 69.0781 175.598 67.7656L175 67.4531L168.768 68.8828L170.429 63.5625L170.036 63.0156C168.384 60.7188 167.518 58.0703 167.518 55.3438C167.518 47.3984 174.911 40.9297 184 40.9297C188.402 40.9297 192.536 42.4297 195.643 45.1562C198.75 47.8828 200.661 51.5 200.652 55.3516C200.652 63.3047 193.071 69.7734 183.991 69.7734ZM193.027 58.9766C192.536 58.7578 190.098 57.7109 189.643 57.5703C189.188 57.4219 188.857 57.3516 188.527 57.7891C188.196 58.2266 187.25 59.1953 186.955 59.4922C186.67 59.7812 186.375 59.8203 185.884 59.6016C182.973 58.3281 181.062 57.3281 179.143 54.4453C178.634 53.6797 179.652 53.7344 180.598 52.0781C180.759 51.7891 180.679 51.5391 180.554 51.3203C180.429 51.1016 179.438 48.9688 179.027 48.1016C178.625 47.2578 178.214 47.375 177.911 47.3594C177.625 47.3438 177.295 47.3438 176.964 47.3438C176.634 47.3438 176.098 47.4531 175.643 47.8828C175.188 48.3203 173.911 49.3672 173.911 51.5C173.911 53.6328 175.688 55.6953 175.929 55.9844C176.179 56.2734 179.42 60.6484 184.393 62.5312C187.536 63.7188 188.768 63.8203 190.339 63.6172C191.295 63.4922 193.268 62.5703 193.679 61.5547C194.089 60.5391 194.089 59.6719 193.964 59.4922C193.848 59.2969 193.518 59.1875 193.027 58.9766Z" fill="#1E43A5"/>
<path d="M266.357 52.0391C265.837 52.3433 265.391 52.7341 265.043 53.1893C264.696 53.6444 264.454 54.155 264.333 54.6918C264.086 55.776 264.343 56.9014 265.045 57.8203C265.747 58.7392 266.837 59.3765 268.076 59.5919C269.315 59.8072 270.602 59.5831 271.652 58.9688C272.702 58.3544 273.43 57.4002 273.676 56.316C273.923 55.2318 273.666 54.1064 272.964 53.1875C272.262 52.2686 271.172 51.6313 269.933 51.4159C268.693 51.2006 267.407 51.4247 266.357 52.0391ZM279.063 46.6953C278.598 46.2891 278.036 45.9688 277.42 45.7578C275.804 45.2031 272.277 45.2266 270 45.25C269.634 45.25 269.295 45.2578 269 45.2578C268.705 45.2578 268.357 45.2578 267.982 45.25C265.705 45.2266 262.196 45.1953 260.58 45.7578C259.964 45.9688 259.411 46.2891 258.938 46.6953C258.464 47.1016 258.107 47.5938 257.866 48.1328C257.232 49.5469 257.268 52.6406 257.286 54.6328C257.286 54.9531 257.295 55.25 257.295 55.5C257.295 55.75 257.295 56.0469 257.286 56.3672C257.268 58.3594 257.232 61.4531 257.866 62.8672C258.107 63.4062 258.473 63.8906 258.938 64.3047C259.402 64.7188 259.964 65.0312 260.58 65.2422C262.196 65.7969 265.723 65.7734 268 65.75C268.366 65.75 268.705 65.7422 269 65.7422C269.295 65.7422 269.643 65.7422 270.018 65.75C272.295 65.7734 275.804 65.8047 277.42 65.2422C278.036 65.0312 278.589 64.7109 279.063 64.3047C279.536 63.8984 279.893 63.4062 280.134 62.8672C280.777 61.4609 280.741 58.3828 280.714 56.3828C280.714 56.0547 280.705 55.75 280.705 55.4922C280.705 55.2344 280.705 54.9375 280.714 54.6016C280.741 52.6094 280.777 49.5312 280.134 48.1172C279.893 47.5781 279.527 47.0938 279.063 46.6797V46.6953ZM273.071 50.1719C274.686 51.1167 275.806 52.5842 276.185 54.2515C276.563 55.9188 276.169 57.6494 275.089 59.0625C274.555 59.7622 273.868 60.3629 273.068 60.8303C272.268 61.2977 271.37 61.6227 270.427 61.7866C268.521 62.1177 266.544 61.773 264.929 60.8281C263.314 59.8843 262.193 58.4178 261.814 56.7512C261.435 55.0847 261.828 53.3545 262.906 51.9414C263.985 50.5283 265.661 49.548 267.566 49.2161C269.47 48.8843 271.448 49.2281 273.062 50.1719H273.071ZM275.679 50.0703C275.402 49.9062 275.179 49.6719 275.045 49.3984C274.911 49.125 274.884 48.8281 274.946 48.5312C275.009 48.2344 275.179 47.9766 275.411 47.7656C275.643 47.5547 275.955 47.4141 276.286 47.3594C276.616 47.3047 276.964 47.3281 277.277 47.4453C277.589 47.5625 277.857 47.75 278.045 47.9922C278.232 48.2344 278.33 48.5234 278.33 48.8203C278.33 49.0156 278.286 49.2109 278.205 49.3906C278.125 49.5703 277.991 49.7344 277.839 49.875C277.688 50.0156 277.491 50.125 277.286 50.2031C277.08 50.2812 276.857 50.3203 276.634 50.3203C276.295 50.3203 275.964 50.2344 275.688 50.0703H275.679ZM289 43C289 40.2422 286.438 38 283.286 38H254.714C251.563 38 249 40.2422 249 43V68C249 70.7578 251.563 73 254.714 73H283.286C286.438 73 289 70.7578 289 68V43ZM280.875 65.8906C279.205 67.3516 277.179 67.8125 274.893 67.9141C272.536 68.0312 265.464 68.0312 263.107 67.9141C260.821 67.8125 258.795 67.3516 257.125 65.8906C255.455 64.4297 254.929 62.6562 254.821 60.6562C254.688 58.5938 254.688 52.4062 254.821 50.3438C254.938 48.3438 255.455 46.5703 257.125 45.1094C258.795 43.6484 260.83 43.1875 263.107 43.0938C265.464 42.9766 272.536 42.9766 274.893 43.0938C277.179 43.1953 279.205 43.6484 280.875 45.1094C282.545 46.5703 283.071 48.3438 283.179 50.3438C283.312 52.3984 283.312 58.5781 283.179 60.6484C283.062 62.6484 282.545 64.4219 280.875 65.8828V65.8906Z" fill="#1E43A5"/>
<g clip-path="url(#clip0_99_5364)">
<path d="M368.286 38H339.714C338.199 38 336.745 38.5268 335.674 39.4645C334.602 40.4021 334 41.6739 334 43V68C334 69.3261 334.602 70.5979 335.674 71.5355C336.745 72.4732 338.199 73 339.714 73H368.286C369.801 73 371.255 72.4732 372.326 71.5355C373.398 70.5979 374 69.3261 374 68V43C374 41.6739 373.398 40.4021 372.326 39.4645C371.255 38.5268 369.801 38 368.286 38ZM367.938 62.9453L367.929 62.9531C367.706 63.1678 367.444 63.3475 367.152 63.4844C366.571 63.7632 365.953 63.9784 365.313 64.125C365.188 64.1542 365.07 64.2018 364.964 64.2656C364.768 64.4141 364.777 64.625 364.571 64.9375C364.421 65.1697 364.214 65.3698 363.964 65.5234C363.366 65.8828 362.696 65.9062 361.982 65.9297C361.339 65.9531 360.607 65.9766 359.777 66.2188C359.438 66.3125 359.08 66.5078 358.67 66.7266C357.661 67.2656 356.286 68.0078 354 68.0078C351.714 68.0078 350.348 67.2734 349.348 66.7344C348.929 66.5078 348.571 66.3125 348.232 66.2188C347.402 65.9766 346.67 65.9531 346.027 65.9297C345.312 65.9062 344.643 65.8828 344.045 65.5234C343.834 65.3952 343.652 65.2335 343.509 65.0469C343.223 64.6875 343.25 64.4375 343.036 64.2734C342.924 64.2089 342.8 64.1614 342.67 64.1328C342.038 63.9871 341.43 63.7746 340.857 63.5C340.582 63.3714 340.332 63.2053 340.116 63.0078C339.527 62.4766 339.375 61.8516 339.607 61.3047C339.911 60.5781 340.643 60.3594 341.339 60.0312C342.661 59.4062 343.688 58.6172 344.411 57.6953C344.617 57.4338 344.796 57.1567 344.946 56.8672C345.018 56.6953 345.018 56.6094 344.964 56.5234C344.913 56.4546 344.847 56.396 344.768 56.3516C344.545 56.2188 344.312 56.0859 344.152 56C343.857 55.8359 343.625 55.7031 343.482 55.6094C342.92 55.2656 342.527 54.9062 342.286 54.5C342.115 54.2186 342.015 53.9082 341.994 53.59C341.972 53.2719 342.029 52.9534 342.161 52.6562C342.527 51.8047 343.455 51.2734 344.571 51.2734C344.805 51.2727 345.039 51.2936 345.268 51.3359C345.33 51.3516 345.393 51.3594 345.446 51.375C345.438 50.7969 345.455 50.1719 345.509 49.5703C345.723 47.4375 346.571 46.3203 347.464 45.4297C348.035 44.8704 348.708 44.3979 349.455 44.0312C350.812 43.3437 352.33 43 354 43C355.67 43 357.196 43.3438 358.545 44.0156C359.289 44.3834 359.958 44.8559 360.527 45.4141C361.42 46.3047 362.268 47.4219 362.482 49.5547C362.537 50.155 362.558 50.7573 362.545 51.3594C362.607 51.3438 362.67 51.3359 362.732 51.3203C362.961 51.278 363.195 51.2571 363.429 51.2578C364.545 51.2578 365.464 51.7891 365.839 52.6406C365.971 52.9378 366.028 53.2563 366.006 53.5744C365.985 53.8926 365.885 54.2029 365.714 54.4844C365.473 54.8906 365.08 55.2578 364.518 55.5938C364.366 55.6875 364.134 55.8203 363.848 55.9844C363.688 56.0781 363.446 56.2109 363.205 56.3516C363.134 56.3923 363.073 56.4455 363.027 56.5078C362.982 56.5859 362.982 56.6797 363.045 56.8359C363.197 57.1309 363.379 57.4133 363.589 57.6797C364.33 58.625 365.393 59.4219 366.759 60.0547C366.893 60.1172 367.027 60.1719 367.152 60.2344C367.214 60.2578 367.295 60.2969 367.375 60.3359C367.812 60.5469 368.196 60.8047 368.402 61.2891C368.625 61.8203 368.491 62.4297 367.938 62.9453ZM366.446 61.5C361.955 59.6016 361.241 56.6641 361.205 56.4453C361.17 56.1797 361.125 55.9766 361.455 55.7031C361.777 55.4453 363.196 54.6719 363.598 54.4297C364.25 54.0312 364.536 53.6328 364.33 53.1406C364.179 52.8047 363.821 52.6719 363.438 52.6719C363.318 52.6709 363.198 52.6814 363.08 52.7031C362.366 52.8359 361.67 53.1562 361.259 53.2422C361.209 53.2527 361.158 53.258 361.107 53.2578C360.893 53.2578 360.812 53.1719 360.83 52.9453C360.884 52.2578 360.991 50.9219 360.866 49.6719C360.696 47.9531 360.062 47.1016 359.312 46.3438C358.946 45.9844 357.25 44.4141 354 44.4141C350.75 44.4141 349.045 46 348.688 46.3594C347.938 47.1172 347.304 47.9688 347.134 49.6875C347.009 50.9375 347.125 52.2734 347.17 52.9609C347.188 53.1797 347.107 53.2734 346.893 53.2734C346.842 53.2736 346.791 53.2684 346.741 53.2578C346.339 53.1719 345.643 52.8594 344.929 52.7188C344.811 52.697 344.691 52.6865 344.571 52.6875C344.188 52.6875 343.83 52.8125 343.679 53.1562C343.464 53.6484 343.75 54.0469 344.411 54.4453C344.804 54.6875 346.232 55.4609 346.554 55.7188C346.884 55.9844 346.839 56.1953 346.804 56.4609C346.768 56.6797 346.054 59.6172 341.562 61.5156C341.304 61.625 340.848 61.8672 341.643 62.2422C342.884 62.8359 343.705 62.7734 344.348 63.1328C344.893 63.4375 344.571 64.1016 344.964 64.3359C345.455 64.6328 346.893 64.3125 348.741 64.8516C350.295 65.2969 351.25 66.5703 354.009 66.5703C356.768 66.5703 357.741 65.2969 359.268 64.8516C361.125 64.3125 362.562 64.6328 363.045 64.3359C363.438 64.0938 363.116 63.4375 363.661 63.1328C364.304 62.7734 365.125 62.8359 366.366 62.2344C367.161 61.8594 366.705 61.6172 366.446 61.5Z" fill="#1E43A5"/>
</g>
<path d="M439 64.6484C436.75 62.1719 435.42 60.0078 434.982 58.1484C432.964 51.2734 445.036 51.2734 443.027 58.1484C442.536 60.0469 441.214 62.2109 439.009 64.6484H439ZM451.339 70.3672C447.58 71.7969 443.866 69.5156 440.687 66.4219C449.964 56.2578 444.804 50.7969 439 50.7969C434.098 50.7969 431.393 54.4297 432.455 58.6484C433.071 60.9297 434.705 63.5234 437.312 66.4219C434.411 69.2422 431.902 70.5391 429.705 70.7109C425.241 71.2891 421.75 67.5 423.339 63.5938C424.687 60.5312 433.312 45.5312 433.687 44.7188C435.098 42.3672 435.973 40.2344 438.991 40.2344C441.875 40.2344 442.866 42.2578 444.384 44.9141C447.598 50.4297 452.366 58.7812 454.634 63.5938C455.812 66.1797 454.509 69.1641 451.33 70.3594L451.339 70.3672ZM455.536 59.7344C444.027 38.3047 443.384 38 439 38C434.937 38 433.205 40.4766 431.437 43.6875C421.964 60.2734 421.045 62.625 420.964 62.8281C418.714 68.2422 423.348 73 428.964 73C430.902 73 434.375 72.5234 439 68.125C444.241 73.1094 448.045 73 449.036 73C454.652 73.0078 459.295 68.2422 457.036 62.8281C457.036 62.5234 455.536 59.7891 455.536 59.7344Z" fill="#1E43A5"/>
<g clip-path="url(#clip1_99_5364)">
<path d="M512.402 60.1172C512.402 62.1406 510.509 63.7969 508.196 63.7969C505.884 63.7969 504 62.1406 504 60.1172C504 58.0938 505.893 56.4375 508.205 56.4375H512.411V60.1172H512.402ZM514.518 60.1172C514.518 58.0938 516.411 56.4375 518.723 56.4375C521.036 56.4375 522.929 58.0938 522.929 60.1172V69.3203C522.929 71.3438 521.036 73 518.723 73C516.411 73 514.518 71.3438 514.518 69.3203V60.1172ZM518.723 45.3516C516.411 45.3516 514.518 43.6953 514.518 41.6719C514.518 39.6484 516.411 38 518.723 38C521.036 38 522.929 39.6562 522.929 41.6797V45.3594H518.723V45.3516ZM518.723 47.2031C521.036 47.2031 522.929 48.8594 522.929 50.8828C522.929 52.9062 521.036 54.5625 518.723 54.5625H508.205C505.893 54.5625 504 52.9062 504 50.8828C504 48.8594 505.893 47.2031 508.205 47.2031H518.723ZM535.598 50.8828C535.598 48.8594 537.491 47.2031 539.804 47.2031C542.116 47.2031 544.009 48.8594 544.009 50.8828C544.009 52.9062 542.116 54.5625 539.804 54.5625H535.598V50.8828ZM533.482 50.8828C533.482 52.9062 531.589 54.5625 529.277 54.5625C526.964 54.5625 525.071 52.9062 525.071 50.8828V41.6797C525.071 39.6562 526.964 38 529.277 38C531.589 38 533.482 39.6562 533.482 41.6797V50.8828ZM529.277 65.6484C531.589 65.6484 533.482 67.3047 533.482 69.3281C533.482 71.3516 531.589 73.0078 529.277 73.0078C526.964 73.0078 525.071 71.3516 525.071 69.3281V65.6484H529.277ZM529.277 63.7969C526.964 63.7969 525.071 62.1406 525.071 60.1172C525.071 58.0938 526.964 56.4375 529.277 56.4375H539.795C542.107 56.4375 544 58.0938 544 60.1172C544 62.1406 542.107 63.7969 539.795 63.7969H529.277Z" fill="#1E43A5"/>
</g>
<g clip-path="url(#clip2_99_5364)">
<path d="M624.027 38H594.009C591.241 38 589 39.9609 589 42.375C588.991 42.375 589 42.0625 589 68.625C589 71.0391 591.241 73 594 73H624.018C626.768 72.9844 628.991 71.0312 628.991 68.625V42.375C629 39.9688 626.777 38.0156 624.027 38ZM606.589 64.5078C606.571 65.6562 605.509 66.5859 604.188 66.5859H596.804C595.482 66.5938 594.402 65.6641 594.393 64.5078V44.6484C594.393 43.4922 595.464 42.5469 596.795 42.5469H604.196C605.518 42.5469 606.598 43.4844 606.598 44.6484V64.5078H606.589ZM623.83 55.7578C623.83 56.9141 622.759 57.8594 621.429 57.8594H614.196C612.875 57.8594 611.795 56.9219 611.795 55.7578V44.6562C611.795 43.5 612.866 42.5547 614.188 42.5547H621.429C622.75 42.5547 623.83 43.4922 623.83 44.6562V55.7578Z" fill="#1E43A5"/>
</g>
<path d="M694 36.125C682.952 36.125 674 44.7969 674 55.5C674 66.2031 682.952 74.875 694 74.875C705.048 74.875 714 66.2031 714 55.5C714 44.7969 705.048 36.125 694 36.125ZM703.274 49.3047C702.976 52.3672 701.669 59.8047 701.008 63.2344C700.726 64.6875 700.177 65.1719 699.645 65.2188C698.484 65.3203 697.605 64.4766 696.476 63.7578C694.718 62.6406 693.718 61.9453 692.016 60.8516C690.04 59.5938 691.323 58.8984 692.444 57.7656C692.742 57.4688 697.855 52.9609 697.952 52.5547C697.968 52.5 697.976 52.3125 697.855 52.2109C697.734 52.1094 697.565 52.1484 697.444 52.1719C697.266 52.2083 694.454 54.0078 689.008 57.5703C688.212 58.1016 687.489 58.3594 686.839 58.3438C686.121 58.3281 684.75 57.9531 683.726 57.6328C682.476 57.2422 681.476 57.0312 681.565 56.3594C681.608 56.0104 682.105 55.6536 683.056 55.2891C688.884 52.8307 692.772 51.2083 694.718 50.4219C700.274 48.1875 701.427 47.7969 702.177 47.7812C702.347 47.7812 702.71 47.8203 702.952 48.0078C703.11 48.1423 703.21 48.3289 703.234 48.5312C703.277 48.7868 703.291 49.0462 703.274 49.3047Z" fill="#1E43A5"/>
<path d="M791.781 40.9531C791.77 40.9279 791.753 40.9084 791.731 40.8984C789.35 39.5327 786.838 38.5584 784.256 38C784.233 37.9947 784.209 37.9986 784.188 38.0112C784.166 38.0238 784.149 38.0445 784.137 38.0703C783.795 38.8471 783.484 39.645 783.206 40.4609C780.422 39.9327 777.59 39.9327 774.806 40.4609C774.527 39.643 774.212 38.8449 773.862 38.0703C773.85 38.0453 773.833 38.0252 773.812 38.0127C773.79 38.0002 773.767 37.9958 773.744 38C771.158 38.5559 768.641 39.5302 766.256 40.8984C766.235 40.9095 766.218 40.9287 766.206 40.9531C761.444 49.8515 760.137 58.5234 760.775 67.0937C760.777 67.1153 760.782 67.1362 760.791 67.155C760.799 67.1738 760.811 67.1902 760.825 67.2031C763.599 69.768 766.702 71.7255 770 72.9922C770.024 73.0013 770.049 73.001 770.073 72.9912C770.096 72.9814 770.117 72.9626 770.131 72.9375C770.839 71.7332 771.466 70.458 772.006 69.125C772.013 69.1066 772.018 69.0866 772.018 69.0662C772.019 69.0458 772.016 69.0254 772.01 69.0064C772.005 68.9873 771.996 68.97 771.984 68.9554C771.973 68.9409 771.959 68.9295 771.944 68.9219C770.953 68.4472 769.994 67.8751 769.075 67.2109C769.059 67.1985 769.045 67.1814 769.035 67.161C769.025 67.1406 769.02 67.1176 769.018 67.0939C769.017 67.0701 769.021 67.0464 769.028 67.0246C769.036 67.0028 769.048 66.9837 769.062 66.9687C769.256 66.789 769.45 66.6015 769.631 66.414C769.647 66.3965 769.667 66.385 769.688 66.3808C769.709 66.3767 769.73 66.3801 769.75 66.3906C775.762 69.8203 782.275 69.8203 788.219 66.3906C788.238 66.379 788.259 66.3743 788.28 66.3771C788.301 66.3799 788.321 66.39 788.337 66.4062C788.519 66.5937 788.712 66.789 788.906 66.9687C788.921 66.9837 788.933 67.0028 788.94 67.0246C788.948 67.0464 788.951 67.0701 788.95 67.0939C788.949 67.1176 788.943 67.1406 788.933 67.161C788.924 67.1814 788.91 67.1985 788.894 67.2109C787.978 67.8786 787.018 68.4483 786.025 68.914C786.01 68.9216 785.996 68.9331 785.985 68.9476C785.973 68.9622 785.964 68.9795 785.958 68.9986C785.952 69.0176 785.95 69.038 785.95 69.0584C785.951 69.0788 785.955 69.0988 785.962 69.1172C786.512 70.4436 787.139 71.7178 787.837 72.9297C787.852 72.9548 787.873 72.9736 787.896 72.9834C787.92 72.9932 787.945 72.9935 787.969 72.9844C791.277 71.7234 794.388 69.7656 797.169 67.1953C797.183 67.1828 797.195 67.1665 797.203 67.1476C797.212 67.1287 797.217 67.1076 797.219 67.0859C797.981 57.1875 795.931 48.5859 791.781 40.9531ZM772.906 61.875C771.094 61.875 769.606 59.7969 769.606 57.25C769.606 54.7031 771.069 52.6172 772.906 52.6172C774.762 52.6172 776.237 54.7109 776.206 57.2422C776.206 59.7969 774.744 61.875 772.906 61.875ZM785.119 61.875C783.306 61.875 781.819 59.7969 781.819 57.25C781.819 54.7031 783.275 52.6172 785.119 52.6172C786.975 52.6172 788.45 54.7109 788.419 57.2422C788.419 59.7969 786.969 61.875 785.119 61.875Z" fill="#1E43A5"/>
<path d="M881.92 58.9219C882.179 57.8281 882.339 56.6641 882.339 55.5C882.339 46.6328 874.134 39.4609 864.009 39.4609C862.679 39.4609 861.357 39.5938 860.098 39.8281C858.402 38.6797 856.295 38 854 38C848.482 38 844 41.9219 844 46.75C844 48.7578 844.777 50.6016 846.08 52.0781C845.821 53.1719 845.661 54.3359 845.661 55.5C845.661 64.3672 853.866 71.5391 863.991 71.5391C865.321 71.5391 866.643 71.4062 867.902 71.1719C869.598 72.3125 871.705 72.9922 873.991 72.9922C879.509 72.9922 883.991 69.0703 883.991 64.2422C884 62.2422 883.223 60.3984 881.92 58.9219ZM864.545 66.0703C858.688 66.0703 853.786 63.7891 853.786 60.9922C853.786 59.7422 854.589 58.6016 856.42 58.6016C859.205 58.6016 859.464 62.1094 864.286 62.1094C866.58 62.1094 868.062 61.2187 868.062 60.0547C868.062 58.5937 866.634 58.3672 864.312 57.8672C858.732 56.6641 853.795 56.1484 853.795 51.0547C853.795 46.4297 859.027 44.7188 863.536 44.7188C868.455 44.7188 873.429 46.4297 873.429 49.0469C873.429 50.3672 872.411 51.5312 870.723 51.5312C868.196 51.5312 868.116 48.9141 864.027 48.9141C861.732 48.9141 860.277 49.4609 860.277 50.6719C860.277 52.2188 862.134 52.375 866.446 53.25C870.143 53.9766 874.545 55.3438 874.545 59.3125C874.545 63.9297 869.446 66.0703 864.545 66.0703Z" fill="#1E43A5"/>
<g clip-path="url(#clip3_99_5364)">
<path d="M963.688 39.3984C962.695 38.4844 958.68 35.5703 949.727 35.5312C949.727 35.5312 939.172 34.8984 934.031 39.6172C931.172 42.4765 930.164 46.6719 930.055 51.8672C929.945 57.0625 929.813 66.7969 939.195 69.4375H939.203L939.195 73.4687C939.195 73.4687 939.133 75.1015 940.211 75.4297C941.508 75.8359 942.274 74.5937 943.516 73.2578C944.195 72.5234 945.133 71.4453 945.844 70.625C952.266 71.164 957.195 69.9297 957.758 69.75C959.055 69.3281 966.391 68.3906 967.578 58.6562C968.813 48.6094 966.984 42.2656 963.688 39.3984ZM964.774 57.9219C963.766 66.0469 957.82 66.5625 956.727 66.914C956.258 67.0625 951.922 68.1406 946.477 67.789C946.477 67.789 942.414 72.6875 941.149 73.9609C940.734 74.375 940.281 74.3359 940.289 73.5156C940.289 72.9765 940.32 66.8203 940.32 66.8203C940.313 66.8203 940.313 66.8203 940.32 66.8203C932.367 64.6172 932.836 56.3281 932.922 51.9922C933.008 47.6562 933.828 44.1015 936.25 41.7109C940.602 37.7656 949.563 38.3515 949.563 38.3515C957.133 38.3828 960.758 40.664 961.602 41.4297C964.391 43.8203 965.813 49.539 964.774 57.9219ZM953.914 51.6094C953.945 52.2812 952.938 52.3281 952.906 51.6562C952.82 49.9375 952.016 49.1015 950.359 49.0078C949.688 48.9687 949.75 47.9609 950.414 48C952.594 48.1172 953.805 49.3672 953.914 51.6094ZM955.5 52.4922C955.578 49.1797 953.508 46.5859 949.578 46.2969C948.914 46.25 948.984 45.2422 949.649 45.289C954.18 45.6172 956.594 48.7344 956.508 52.5156C956.5 53.1875 955.484 53.1562 955.5 52.4922ZM959.172 53.539C959.18 54.2109 958.164 54.2187 958.164 53.5469C958.117 47.1797 953.875 43.7109 948.727 43.6719C948.063 43.664 948.063 42.664 948.727 42.664C954.484 42.7031 959.117 46.6797 959.172 53.539ZM958.289 61.2031V61.2187C957.445 62.7031 955.867 64.3437 954.242 63.8203L954.227 63.7969C952.578 63.3359 948.695 61.3359 946.242 59.3828C944.977 58.3828 943.82 57.2031 942.93 56.0703C942.125 55.0625 941.313 53.8672 940.524 52.4297C938.859 49.4219 938.492 48.0781 938.492 48.0781C937.969 46.4531 939.602 44.875 941.094 44.0312H941.109C941.828 43.6562 942.516 43.7812 942.977 44.3359C942.977 44.3359 943.945 45.4922 944.359 46.0625C944.75 46.5937 945.274 47.4453 945.547 47.9219C946.024 48.7734 945.727 49.6406 945.258 50L944.32 50.75C943.844 51.1328 943.906 51.8437 943.906 51.8437C943.906 51.8437 945.297 57.1015 950.492 58.4297C950.492 58.4297 951.203 58.4922 951.586 58.0156L952.336 57.0781C952.695 56.6094 953.563 56.3125 954.414 56.789C955.563 57.4375 957.024 58.4453 957.992 59.3594C958.539 59.8047 958.664 60.4844 958.289 61.2031Z" fill="#1E43A5"/>
</g>
<g clip-path="url(#clip4_99_5364)">
<path d="M1034 70.5C1045.05 70.5 1054 63.2266 1054 54.25C1054 45.2734 1045.05 38 1034 38C1022.95 38 1014 45.2734 1014 54.25C1014 57.7734 1015.38 61.0312 1017.73 63.6953C1017.58 65.6094 1016.84 67.3125 1016.05 68.6094C1015.62 69.3281 1015.19 69.9062 1014.87 70.2969C1014.7 70.4922 1014.58 70.6406 1014.48 70.7422C1014.44 70.7891 1014.41 70.8281 1014.38 70.8516L1014.36 70.875C1014 71.2344 1013.9 71.7656 1014.09 72.2344C1014.29 72.7031 1014.74 73.0078 1015.25 73.0078C1017.49 73.0078 1019.75 72.3125 1021.62 71.5C1023.41 70.7188 1024.94 69.7891 1025.87 69.1094C1028.35 70.0078 1031.1 70.5078 1034 70.5078V70.5ZM1021.5 52.125C1021.5 50.5391 1022.79 49.25 1024.37 49.25H1025.87C1026.56 49.25 1027.12 49.8125 1027.12 50.5C1027.12 51.1875 1026.56 51.75 1025.87 51.75H1024.37C1024.16 51.75 1024 51.9219 1024 52.125C1024 52.25 1024.06 52.3672 1024.17 52.4375L1026.47 53.9688C1027.27 54.5 1027.75 55.3984 1027.75 56.3672C1027.75 57.9531 1026.46 59.2422 1024.87 59.2422H1022.75C1022.06 59.2422 1021.5 58.6797 1021.5 57.9922C1021.5 57.3047 1022.06 56.7422 1022.75 56.7422H1024.87C1025.09 56.7422 1025.25 56.5703 1025.25 56.3672C1025.25 56.2422 1025.19 56.125 1025.08 56.0547L1022.78 54.5234C1021.98 53.9922 1021.5 53.0938 1021.5 52.125ZM1043.12 49.25H1044.62C1045.31 49.25 1045.87 49.8125 1045.87 50.5C1045.87 51.1875 1045.31 51.75 1044.62 51.75H1043.12C1042.91 51.75 1042.75 51.9219 1042.75 52.125C1042.75 52.25 1042.81 52.3672 1042.92 52.4375L1045.22 53.9688C1046.02 54.5 1046.5 55.3984 1046.5 56.3672C1046.5 57.9531 1045.21 59.2422 1043.62 59.2422H1041.5C1040.81 59.2422 1040.25 58.6797 1040.25 57.9922C1040.25 57.3047 1040.81 56.7422 1041.5 56.7422H1043.62C1043.84 56.7422 1044 56.5703 1044 56.3672C1044 56.2422 1043.94 56.125 1043.83 56.0547L1041.53 54.5234C1040.73 53.9922 1040.25 53.0938 1040.25 52.125C1040.25 50.5391 1041.54 49.25 1043.12 49.25ZM1031.25 49.75L1034 53.4141L1036.75 49.75C1037.07 49.3203 1037.63 49.1406 1038.15 49.3125C1038.66 49.4844 1039 49.9609 1039 50.5V58C1039 58.6875 1038.44 59.25 1037.75 59.25C1037.06 59.25 1036.5 58.6875 1036.5 58V54.25L1035 56.25C1034.77 56.5625 1034.39 56.75 1034 56.75C1033.61 56.75 1033.23 56.5625 1033 56.25L1031.5 54.25V58C1031.5 58.6875 1030.94 59.25 1030.25 59.25C1029.56 59.25 1029 58.6875 1029 58V50.5C1029 49.9609 1029.34 49.4844 1029.85 49.3125C1030.36 49.1406 1030.92 49.3203 1031.25 49.75Z" fill="#1E43A5"/>
</g>
<path d="M1137.83 53.7344C1139.39 54.7109 1139.39 56.2969 1137.83 57.2734L1113.83 72.2734C1112.26 73.25 1109.73 73.25 1108.16 72.2734C1106.6 71.2969 1106.6 69.7109 1108.16 68.7344L1129.34 55.5L1108.18 42.2656C1106.61 41.2891 1106.61 39.7031 1108.18 38.7266C1109.74 37.75 1112.28 37.75 1113.84 38.7266L1137.84 53.7266L1137.83 53.7344Z" fill="#74C0FC"/>
<defs>
<clipPath id="clip0_99_5364">
<rect width="40" height="40" fill="white" transform="translate(334 35.5)"/>
</clipPath>
<clipPath id="clip1_99_5364">
<rect width="40" height="40" fill="white" transform="translate(504 35.5)"/>
</clipPath>
<clipPath id="clip2_99_5364">
<rect width="40" height="40" fill="white" transform="translate(589 35.5)"/>
</clipPath>
<clipPath id="clip3_99_5364">
<rect width="40" height="40" fill="white" transform="translate(929 35.5)"/>
</clipPath>
<clipPath id="clip4_99_5364">
<rect width="40" height="40" fill="white" transform="translate(1014 35.5)"/>
</clipPath>
</defs>
</svg>
