<svg width="25" height="23" viewBox="0 0 25 23" fill="none" xmlns="http://www.w3.org/2000/svg">
<path d="M12.874 6.42651H7.12402C6.9334 6.42651 6.75058 6.50224 6.61579 6.63703C6.481 6.77182 6.40527 6.95464 6.40527 7.14526C6.40527 7.33589 6.481 7.5187 6.61579 7.6535C6.75058 7.78829 6.9334 7.86401 7.12402 7.86401H12.874C13.0646 7.86401 13.2475 7.78829 13.3823 7.6535C13.517 7.5187 13.5928 7.33589 13.5928 7.14526C13.5928 6.95464 13.517 6.77182 13.3823 6.63703C13.2475 6.50224 13.0646 6.42651 12.874 6.42651ZM12.874 10.2718H7.12402C6.9334 10.2718 6.75058 10.3476 6.61579 10.4823C6.481 10.6171 6.40527 10.8 6.40527 10.9906C6.40527 11.1812 6.481 11.364 6.61579 11.4988C6.75058 11.6336 6.9334 11.7093 7.12402 11.7093H12.874C13.0646 11.7093 13.2475 11.6336 13.3823 11.4988C13.517 11.364 13.5928 11.1812 13.5928 10.9906C13.5928 10.8 13.517 10.6171 13.3823 10.4823C13.2475 10.3476 13.0646 10.2718 12.874 10.2718ZM12.874 14.2034H7.12402C6.9334 14.2034 6.75058 14.2791 6.61579 14.4139C6.481 14.5487 6.40527 14.7315 6.40527 14.9221C6.40527 15.1128 6.481 15.2956 6.61579 15.4304C6.75058 15.5652 6.9334 15.6409 7.12402 15.6409H12.874C13.0646 15.6409 13.2475 15.5652 13.3823 15.4304C13.517 15.2956 13.5928 15.1128 13.5928 14.9221C13.5928 14.7315 13.517 14.5487 13.3823 14.4139C13.2475 14.2791 13.0646 14.2034 12.874 14.2034Z" fill="#FFF6F6" stroke="#FFF6F6" stroke-width="0.1"/>
<path d="M19.5945 1H5.40633C5.03761 1.00094 4.6727 1.07462 4.3325 1.21681C3.99229 1.359 3.68349 1.56691 3.42377 1.82864C3.16405 2.09036 2.95851 2.40075 2.81894 2.74204C2.67937 3.08332 2.6085 3.44878 2.61039 3.8175V21.3478C2.60992 21.5277 2.65734 21.7045 2.74778 21.86C2.83822 22.0155 2.96843 22.1441 3.12502 22.2326C3.28161 22.3212 3.45895 22.3664 3.63882 22.3638C3.81869 22.3611 3.99461 22.3106 4.14851 22.2175L6.79351 20.6291C6.83341 20.6042 6.87948 20.591 6.92648 20.591C6.97349 20.591 7.01955 20.6042 7.05945 20.6291L9.99914 22.39C10.1538 22.4885 10.3333 22.5409 10.5166 22.5409C10.7011 22.54 10.8821 22.4904 11.0413 22.3972L13.9954 20.6291C14.0353 20.6042 14.0814 20.591 14.1284 20.591C14.1754 20.591 14.2214 20.6042 14.2613 20.6291L16.892 22.2175C17.0464 22.3092 17.2227 22.3577 17.4023 22.3577C17.5819 22.3577 17.7582 22.3092 17.9126 22.2175C18.0672 22.1291 18.1958 22.0015 18.2854 21.8475C18.375 21.6936 18.4224 21.5187 18.4229 21.3406V9.2225H20.6798C21.1329 9.22061 21.5669 9.03977 21.8873 8.71938C22.2077 8.39898 22.3885 7.96498 22.3904 7.51188V3.8175C22.3923 3.44878 22.3214 3.08332 22.1818 2.74204C22.0423 2.40075 21.8367 2.09036 21.577 1.82864C21.3173 1.56691 21.0085 1.359 20.6683 1.21681C20.3281 1.07462 19.9632 1.00094 19.5945 1ZM16.9854 20.5931L15.0016 19.4C14.7374 19.2431 14.4357 19.1603 14.1284 19.1603C13.821 19.1603 13.5194 19.2431 13.2551 19.4L10.5238 21.0387L7.79976 19.3928C7.53234 19.2329 7.22631 19.149 6.9147 19.1502C6.60309 19.1515 6.29775 19.2379 6.03164 19.4L4.04789 20.6003V3.8175C4.04503 3.6373 4.07805 3.45833 4.14504 3.29102C4.21202 3.12371 4.31163 2.97141 4.43806 2.84297C4.56449 2.71453 4.71521 2.61254 4.88145 2.54293C5.04768 2.47332 5.2261 2.43748 5.40633 2.4375H17.2801C17.0903 2.7991 16.9893 3.20069 16.9854 3.60906V20.5716V20.5931ZM20.9529 7.51188C20.9529 7.58431 20.9241 7.65378 20.8729 7.705C20.8217 7.75622 20.7522 7.785 20.6798 7.785H18.4229V3.63062C18.42 3.47497 18.4482 3.3203 18.5058 3.17566C18.5634 3.03102 18.6492 2.89931 18.7583 2.78823C18.8674 2.67715 18.9975 2.58892 19.1411 2.5287C19.2846 2.46848 19.4388 2.43747 19.5945 2.4375C19.9547 2.4375 20.3003 2.58062 20.555 2.83538C20.8098 3.09013 20.9529 3.43566 20.9529 3.79594V7.51188Z" fill="#FFF6F6" stroke="#FFF6F6" stroke-width="0.1"/>
</svg>
