<svg width="25" height="21" viewBox="0 0 25 21" fill="none" xmlns="http://www.w3.org/2000/svg">
<g clip-path="url(#clip0_129_4792)">
<path d="M16.3972 5.92285H11.1819C10.7222 5.92285 10.3496 6.2954 10.3496 6.7551C10.3496 7.21476 10.7222 7.58735 11.1819 7.58735H16.3972C16.8571 7.58735 17.2294 7.2148 17.2294 6.7551C17.2294 6.2954 16.8569 5.92285 16.3972 5.92285Z" fill="#FFF6F6"/>
<path d="M18.3945 9.94531H11.1819C10.7222 9.94531 10.3496 10.3179 10.3496 10.7776C10.3496 11.2372 10.7222 11.6098 11.1819 11.6098H18.3945C18.8542 11.6098 19.2268 11.2373 19.2268 10.7776C19.2268 10.3179 18.8542 9.94531 18.3945 9.94531Z" fill="#FFF6F6"/>
<path d="M22.1678 0.70752H7.43724C6.97757 0.70752 6.60499 1.08006 6.60499 1.53977V9.39049H5.13474C3.40618 9.39049 2 10.797 2 12.5252V17.158C2 18.8865 3.40618 20.2927 5.13474 20.2927C5.27621 20.2927 5.41549 20.2833 5.55171 20.265H19.2827C21.3322 20.265 23 18.5975 23 16.5477V1.53977C23 1.08006 22.6275 0.70752 22.1678 0.70752ZM6.60503 17.158C6.60503 17.8712 6.0943 18.4677 5.41939 18.6005H5.13478V18.6282C4.3239 18.6282 3.6645 17.9685 3.6645 17.1579V12.5252C3.6645 11.7146 4.32419 11.0549 5.13478 11.0549H6.60507L6.60503 17.158ZM21.3355 16.5477C21.3355 17.6604 20.3957 18.6005 19.2827 18.6005H7.91745C8.14242 18.1686 8.26948 17.6778 8.26948 17.158V2.37197H21.3355V16.5477Z" fill="#FFF6F6"/>
<path d="M16.3972 13.7183H11.1819C10.7222 13.7183 10.3496 14.0908 10.3496 14.5505C10.3496 15.0102 10.7222 15.3828 11.1819 15.3828H16.3972C16.8571 15.3828 17.2294 15.0102 17.2294 14.5505C17.2294 14.0908 16.8569 13.7183 16.3972 13.7183Z" fill="#FFF6F6"/>
</g>
<defs>
<clipPath id="clip0_129_4792">
<rect width="21" height="21" fill="white" transform="translate(2)"/>
</clipPath>
</defs>
</svg>
