<svg width="25" height="21" viewBox="0 0 25 21" fill="none" xmlns="http://www.w3.org/2000/svg">
<g clip-path="url(#clip0_129_3324)">
<path d="M16.3972 5.92285H11.1819C10.7222 5.92285 10.3496 6.2954 10.3496 6.7551C10.3496 7.21476 10.7222 7.58735 11.1819 7.58735H16.3972C16.8571 7.58735 17.2294 7.2148 17.2294 6.7551C17.2294 6.2954 16.8569 5.92285 16.3972 5.92285Z" fill="#FFF6F6"/>
<path d="M18.3945 9.94507H11.1819C10.7222 9.94507 10.3496 10.3176 10.3496 10.7773C10.3496 11.237 10.7222 11.6096 11.1819 11.6096H18.3945C18.8542 11.6096 19.2268 11.237 19.2268 10.7773C19.2268 10.3176 18.8542 9.94507 18.3945 9.94507Z" fill="#FFF6F6"/>
<path d="M22.1678 0.707275H7.43724C6.97757 0.707275 6.60499 1.07982 6.60499 1.53952V9.39024H5.13474C3.40618 9.39024 2 10.7967 2 12.525V17.1577C2 18.8863 3.40618 20.2925 5.13474 20.2925C5.27621 20.2925 5.41549 20.283 5.55171 20.2648H19.2827C21.3322 20.2648 23 18.5972 23 16.5475V1.53952C23 1.07982 22.6275 0.707275 22.1678 0.707275ZM6.60503 17.1577C6.60503 17.871 6.0943 18.4674 5.41939 18.6003H5.13478V18.628C4.3239 18.628 3.6645 17.9683 3.6645 17.1577V12.525C3.6645 11.7144 4.32419 11.0547 5.13478 11.0547H6.60507L6.60503 17.1577ZM21.3355 16.5474C21.3355 17.6601 20.3957 18.6003 19.2827 18.6003H7.91745C8.14242 18.1683 8.26948 17.6776 8.26948 17.1577V2.37173H21.3355V16.5474Z" fill="#FFF6F6"/>
<path d="M16.3972 13.7183H11.1819C10.7222 13.7183 10.3496 14.0908 10.3496 14.5505C10.3496 15.0102 10.7222 15.3828 11.1819 15.3828H16.3972C16.8571 15.3828 17.2294 15.0102 17.2294 14.5505C17.2294 14.0908 16.8569 13.7183 16.3972 13.7183Z" fill="#FFF6F6"/>
</g>
<defs>
<clipPath id="clip0_129_3324">
<rect width="21" height="21" fill="white" transform="translate(2)"/>
</clipPath>
</defs>
</svg>
