<svg width="16" height="16" viewBox="0 0 16 16" fill="none" xmlns="http://www.w3.org/2000/svg">
<path fill-rule="evenodd" clip-rule="evenodd" d="M12.6666 14.6667C13.7712 14.6667 14.6666 13.7712 14.6666 12.6667V6C14.6666 4.89543 13.7712 3.99999 12.6666 3.99999H5.99998C4.89541 3.99999 3.99998 4.89543 3.99998 6V12.6667C3.99998 13.7712 4.89541 14.6667 5.99998 14.6667H12.6666ZM5.33331 12.6667C5.33331 13.0349 5.63179 13.3333 5.99998 13.3333H12.6666C13.0348 13.3333 13.3333 13.0349 13.3333 12.6667V6C13.3333 5.6318 13.0348 5.33333 12.6666 5.33333H5.99998C5.63179 5.33333 5.33331 5.6318 5.33331 6V12.6667Z" fill="#2C3236"/>
<path d="M3.33331 1.33333C2.22874 1.33333 1.33331 2.22876 1.33331 3.33333V8.66666C1.33331 9.03485 1.63179 9.33333 1.99998 9.33333C2.36817 9.33333 2.66665 9.03485 2.66665 8.66666V3.33333C2.66665 2.96514 2.96512 2.66666 3.33331 2.66666H8.66665C9.03484 2.66666 9.33331 2.36818 9.33331 1.99999C9.33331 1.63181 9.03484 1.33333 8.66665 1.33333H3.33331Z" fill="#2C3236"/>
</svg>
