<svg width="16" height="16" viewBox="0 0 16 16" fill="none" xmlns="http://www.w3.org/2000/svg">
<path fill-rule="evenodd" clip-rule="evenodd" d="M3.33331 2.66666C2.96512 2.66666 2.66665 2.96514 2.66665 3.33333V9.44713C2.87517 9.37343 3.09956 9.33333 3.33331 9.33333H7.66665C7.84346 9.33333 8.01303 9.40357 8.13805 9.52859L8.60946 10H12.9213L11.4037 6.9648C11.3099 6.77712 11.3099 6.5562 11.4037 6.36852L12.9213 3.33333H8.66665V6C8.66665 6.36819 8.36817 6.66666 7.99998 6.66666C7.63179 6.66666 7.33331 6.36819 7.33331 6V2.66666H3.33331ZM8.60946 1.99999H14C14.231 1.99999 14.4456 2.11963 14.5671 2.31617C14.6886 2.51272 14.6996 2.75815 14.5963 2.9648L12.7453 6.66666L14.5963 10.3685C14.6996 10.5752 14.6886 10.8206 14.5671 11.0171C14.4456 11.2137 14.231 11.3333 14 11.3333H8.33331C8.1565 11.3333 7.98693 11.2631 7.86191 11.1381L7.3905 10.6667H3.33331C2.96512 10.6667 2.66665 10.9651 2.66665 11.3333V14C2.66665 14.3682 2.36817 14.6667 1.99998 14.6667C1.63179 14.6667 1.33331 14.3682 1.33331 14V3.33333C1.33331 2.22876 2.22874 1.33333 3.33331 1.33333H7.66665C7.84346 1.33333 8.01303 1.40357 8.13805 1.52859L8.47103 1.86157C8.47127 1.86181 8.4715 1.86204 8.47174 1.86228L8.60946 1.99999Z" fill="#2C3236"/>
</svg>
