<svg width="9" height="6" viewBox="0 0 9 6" fill="none" xmlns="http://www.w3.org/2000/svg">
<path d="M8.46693 0.967577L8.46694 0.967579C8.74917 1.09565 8.87528 1.42814 8.74506 1.71085L8.74501 1.71095C8.61507 1.9925 8.281 2.11529 7.99851 1.98706C6.65116 1.37553 4.99455 1.37418 3.65747 1.98684L3.65747 1.98684C2.94904 2.3114 1.7753 3.24014 1.76633 4.66338C1.76457 4.97336 1.51099 5.22048 1.20282 5.22048H1.20282H1.20281H1.20281H1.20281H1.2028H1.2028H1.20279H1.20279H1.20278H1.20278H1.20277H1.20277H1.20276H1.20276H1.20275H1.20275H1.20274H1.20274H1.20273H1.20273H1.20272H1.20272H1.20271H1.20271H1.2027H1.2027H1.20269H1.20269H1.20268H1.20268H1.20267H1.20267H1.20266H1.20266H1.20265H1.20265H1.20265H1.20264H1.20264H1.20263H1.20263H1.20262H1.20262H1.20261H1.20261H1.2026H1.2026H1.20259H1.20259H1.20258H1.20258H1.20257H1.20257H1.20256H1.20256H1.20255H1.20255H1.20254H1.20254H1.20253H1.20253H1.20252H1.20252H1.20251H1.20251H1.2025H1.2025H1.2025H1.20249H1.20249H1.20248H1.20248H1.20247H1.20247H1.20246H1.20246H1.20245H1.20245H1.20244H1.20244H1.20243H1.20243H1.20242H1.20242H1.20241H1.20241H1.2024H1.2024H1.20239H1.20239H1.20238H1.20238H1.20237H1.20237H1.20236H1.20236H1.20235H1.20235H1.20234H1.20234H1.20234H1.20233H1.20233H1.20232H1.20232H1.20231H1.20231H1.2023H1.2023H1.20229H1.20229H1.20228H1.20228H1.20227H1.20227H1.20226H1.20226H1.20225H1.20225H1.20224H1.20224H1.20223H1.20223H1.20222H1.20222H1.20221H1.20221H1.2022H1.2022H1.20219H1.20219H1.20218H1.20218H1.20218H1.20217H1.20217H1.20216H1.20216H1.20215H1.20215H1.20214H1.20214H1.20213H1.20213H1.20212H1.20212H1.20211H1.20211H1.2021H1.2021H1.20209H1.20209H1.20208H1.20208H1.20207H1.20207H1.20206H1.20206H1.20205H1.20205H1.20204H1.20204H1.20203H1.20203H1.20202H1.20202H1.20202H1.20201H1.20201H1.202H1.202H1.20199H1.20199H1.20198H1.20198H1.20197H1.20197H1.20196H1.20196H1.20195H1.20195H1.20194H1.20194H1.20193H1.20193H1.20192H1.20192H1.20191H1.20191H1.2019H1.2019H1.20189H1.20189H1.20188H1.20188H1.20187H1.20187H1.20187H1.20186H1.20186H1.20185H1.20185H1.20184H1.20184H1.20183H1.20183H1.20182H1.20182H1.20181H1.20181H1.2018H1.2018H1.20179H1.20179H1.20178H1.20178H1.20177H1.20177H1.20176H1.20176H1.20175H1.20175H1.20174H1.20174H1.20173H1.20173H1.20172H1.20172H1.20171H1.20171H1.20171H1.2017H1.2017H1.20169H1.20169H1.20168H1.20168H1.20167H1.20167H1.20166H1.20166H1.20165H1.20165H1.20164H1.20164H1.20163H1.20163H1.20162H1.20162H1.20161H1.20161H1.2016H1.2016H1.20159H1.20159H1.20158H1.20158H1.20157H1.20157H1.20156H1.20156H1.20155H1.20155H1.20155H1.20154H1.20154H1.20153H1.20153H1.20152H1.20152H1.20151H1.20151H1.2015H1.2015H1.20149H1.20149H1.20148H1.20148H1.20147H1.20147H1.20146H1.20146H1.20145H1.20145H1.20144H1.20144H1.20143H1.20143H1.20142H1.20142H1.20141H1.20141H1.2014H1.2014H1.2014H1.20139H1.20139H1.20138H1.20138H1.20137H1.20137H1.20136H1.20136H1.20135H1.20135H1.20134H1.20134H1.20133H1.20133H1.20132H1.20132H1.20131H1.20131H1.2013H1.2013H1.20129H1.20129H1.20128H1.20128H1.20127H1.20127H1.20126H1.20126H1.20125H1.20125H1.20124H1.20124H1.20124H1.20123H1.20123H1.20122H1.20122H1.20121H1.20121H1.2012H1.2012H1.20119H1.20119H1.20118H1.20118H1.20117H1.20117H1.20116H1.20116H1.20115H1.20115H1.20114H1.20114H1.20113H1.20113H1.20112H1.20112H1.20111H1.20111H1.2011H1.2011H1.20109H1.20109H1.20108H1.20108H1.20108H1.20107H1.20107H1.20106H1.20106H1.20105H1.20105H1.20104H1.20104H1.20103H1.20103H1.20102H1.20102H1.20101H1.20101H1.201H1.201H1.20099H1.20099H1.20098H1.20098H1.20097H1.20097H1.20096H1.20096H1.20095H1.20095H1.20094H1.20094H1.20093H1.20093H1.20092H1.20092H1.20092H1.20091H1.20091H1.2009H1.2009H1.20089H1.20089H1.20088H1.20088H1.20087H1.20087H1.20086H1.20086H1.20085H1.20085H1.20084H1.20084H1.20083H1.20083H1.20082H1.20082H1.20081H1.20081H1.2008H1.2008H1.20079H1.20079H1.20078H1.20078H1.20077H1.20077H1.20077H1.20076H1.20076H1.20075H1.20075H1.20074H1.20074H1.20073H1.20073H1.20072H1.20072H1.20071H1.20071H1.2007H1.2007H1.20069H1.20069H1.20068H1.20068H1.20067H1.20067H1.20066H1.20066H1.20065H1.20065H1.20064H1.20064H1.20063H1.20063H1.20062H1.20062H1.20061H1.20061H1.20061H1.2006H1.2006H1.20059H1.20059H1.20058H1.20058H1.20057H1.20057H1.20056H1.20056H1.20055H1.20055H1.20054H1.20054H1.20053H1.20053H1.20052H1.20052H1.20051H1.20051H1.2005H1.2005H1.20049H1.20049H1.20048H1.20048H1.20047H1.20047H1.20046H1.20046H1.20045H1.20045H1.20045H1.20044H1.20044H1.20043H1.20043H1.20042H1.20042H1.20041H1.20041H1.2004H1.2004H1.20039H1.20039H1.20038H1.20038H1.20037H1.20037H1.20036H1.20036H1.20035H1.20035H1.20034H1.19927L1.19927 5.22047C0.888917 5.21824 0.637616 4.96709 0.639315 4.65669L0.639316 4.65654C0.652269 2.65018 2.25499 1.39493 3.18644 0.968609L8.46693 0.967577ZM8.46693 0.967577C6.82537 0.222785 4.81788 0.22173 3.18645 0.968603L8.46693 0.967577Z" stroke="white" stroke-width="0.3"/>
</svg>
