<svg width="27" height="26" viewBox="0 0 27 26" fill="none" xmlns="http://www.w3.org/2000/svg">
<g clip-path="url(#clip0_99_5403)">
<path d="M6.66349 2.08972C5.17167 2.08972 3.87267 3.06628 3.5124 4.45789L0.620092 15.5858C0.554127 15.8348 0.523682 16.0887 0.523682 16.3427V20.8397C0.523682 22.5634 1.97998 23.9647 3.77118 23.9647H23.2562C25.0474 23.9647 26.5037 22.5634 26.5037 20.8397V16.3427C26.5037 16.0887 26.4732 15.8348 26.4073 15.5858L23.515 4.45789C23.1547 3.06628 21.8557 2.08972 20.3639 2.08972H6.66349ZM6.66349 5.21472H20.3639L22.7995 14.5897H20.2015C19.5875 14.5897 19.0243 14.9218 18.7503 15.454L18.0247 16.8505C17.7507 17.3778 17.1874 17.7147 16.5734 17.7147H10.459C9.84502 17.7147 9.28178 17.3827 9.00778 16.8505L8.28216 15.454C8.00815 14.9266 7.44492 14.5897 6.83094 14.5897H4.22786L6.66349 5.21472Z" fill="#74C0FC"/>
</g>
<defs>
<clipPath id="clip0_99_5403">
<rect width="25.98" height="25" fill="white" transform="translate(0.523682 0.527222)"/>
</clipPath>
</defs>
</svg>
