<svg width="24" height="23" viewBox="0 0 24 23" fill="none" xmlns="http://www.w3.org/2000/svg">
<path d="M19.4846 20.1545L13.2226 13.8925C12.7226 14.3185 12.1476 14.6482 11.4976 14.8815C10.8476 15.1149 10.1943 15.2315 9.53762 15.2315C7.93628 15.2315 6.58095 14.6772 5.47162 13.5685C4.36228 12.4592 3.80762 11.1042 3.80762 9.50353C3.80762 7.90286 4.36162 6.5472 5.46962 5.43653C6.57828 4.3252 7.93295 3.76953 9.53362 3.76953C11.135 3.76953 12.491 4.3242 13.6016 5.43353C14.7123 6.54286 15.2676 7.89853 15.2676 9.50053C15.2676 10.1952 15.1446 10.8675 14.8986 11.5175C14.6519 12.1675 14.3286 12.7235 13.9286 13.1855L20.1906 19.4465L19.4846 20.1545ZM9.53762 14.2305C10.8643 14.2305 11.9846 13.7739 12.8986 12.8605C13.8119 11.9472 14.2686 10.8269 14.2686 9.49953C14.2686 8.17286 13.8119 7.05286 12.8986 6.13953C11.9853 5.2262 10.8653 4.76953 9.53862 4.76953C8.21195 4.76953 7.09162 5.2262 6.17762 6.13953C5.26428 7.05286 4.80762 8.17286 4.80762 9.49953C4.80762 10.8262 5.26428 11.9462 6.17762 12.8595C7.09095 13.7729 8.21095 14.2305 9.53762 14.2305Z" fill="#9B9FA5"/>
</svg>
