<svg width="24" height="24" viewBox="0 0 24 24" fill="none" xmlns="http://www.w3.org/2000/svg">
<path d="M19.4856 20.9324L13.2236 14.6704C12.7236 15.0964 12.1486 15.426 11.4986 15.6594C10.8486 15.8927 10.1953 16.0094 9.53859 16.0094C7.93726 16.0094 6.58193 15.455 5.47259 14.3464C4.36326 13.237 3.80859 11.882 3.80859 10.2814C3.80859 8.6807 4.36259 7.32503 5.47059 6.21436C6.57926 5.10303 7.93393 4.54736 9.53459 4.54736C11.1359 4.54736 12.4919 5.10203 13.6026 6.21136C14.7133 7.3207 15.2686 8.67636 15.2686 10.2784C15.2686 10.973 15.1456 11.6454 14.8996 12.2954C14.6529 12.9454 14.3296 13.5014 13.9296 13.9634L20.1916 20.2244L19.4856 20.9324ZM9.53859 15.0084C10.8653 15.0084 11.9856 14.5517 12.8996 13.6384C13.8129 12.725 14.2696 11.6047 14.2696 10.2774C14.2696 8.9507 13.8129 7.8307 12.8996 6.91736C11.9863 6.00403 10.8663 5.54736 9.53959 5.54736C8.21293 5.54736 7.09259 6.00403 6.17859 6.91736C5.26526 7.8307 4.80859 8.9507 4.80859 10.2774C4.80859 11.604 5.26526 12.724 6.17859 13.6374C7.09193 14.5507 8.21193 15.0084 9.53859 15.0084Z" fill="#9B9FA5"/>
</svg>
