<svg width="24" height="24" viewBox="0 0 24 24" fill="none" xmlns="http://www.w3.org/2000/svg">
<path d="M8.73828 5.51172L6.52344 11.1016L4.33594 5.51172H0.582031L4.71875 15.2422L3.21094 18.75H6.89062L12.3945 5.51172H8.73828ZM12.8555 10.8164C12.4058 10.8164 11.9663 10.9497 11.5924 11.1995C11.2185 11.4494 10.9272 11.8044 10.7551 12.2198C10.583 12.6353 10.538 13.0924 10.6257 13.5334C10.7134 13.9744 10.93 14.3795 11.2479 14.6974C11.5659 15.0154 11.9709 15.2319 12.4119 15.3196C12.8529 15.4073 13.3101 15.3623 13.7255 15.1902C14.1409 15.0182 14.496 14.7268 14.7458 14.3529C14.9956 13.979 15.1289 13.5395 15.1289 13.0898C15.1289 12.4869 14.8894 11.9086 14.463 11.4823C14.0367 11.0559 13.4584 10.8164 12.8555 10.8164ZM15.418 1.25L11.7852 9.98047H15.875L19.4961 1.25H15.418Z" fill="#1E43A5"/>
</svg>
