<svg width="24" height="24" viewBox="0 0 24 24" fill="none" xmlns="http://www.w3.org/2000/svg">
<path d="M20 10C20 15.3516 15.5242 19.6875 10 19.6875C8.96774 19.6875 7.97581 19.5352 7.04032 19.2539C7.44758 18.6094 8.05645 17.5547 8.28226 16.7148C8.40322 16.2617 8.90323 14.4102 8.90323 14.4102C9.22984 15.0117 10.1815 15.5234 11.1935 15.5234C14.2097 15.5234 16.3831 12.8359 16.3831 9.49609C16.3831 6.29688 13.6855 3.90234 10.2177 3.90234C5.90323 3.90234 3.60887 6.70703 3.60887 9.76562C3.60887 11.1875 4.39113 12.957 5.6371 13.5195C5.82661 13.6055 5.92742 13.5664 5.97177 13.3906C6.00403 13.2578 6.17339 12.5977 6.25 12.293C6.27419 12.1953 6.2621 12.1094 6.18145 12.0156C5.77419 11.5273 5.44355 10.6367 5.44355 9.80469C5.44355 7.66797 7.1129 5.60156 9.95968 5.60156C12.4153 5.60156 14.1371 7.22266 14.1371 9.54297C14.1371 12.1641 12.7702 13.9805 10.9919 13.9805C10.0121 13.9805 9.27419 13.1953 9.5121 12.2305C9.79435 11.0781 10.3387 9.83594 10.3387 9.00391C10.3387 8.26172 9.92742 7.64062 9.07258 7.64062C8.06855 7.64062 7.2621 8.64453 7.2621 9.99219C7.2621 10.8516 7.56048 11.4297 7.56048 11.4297C7.56048 11.4297 6.57258 15.4844 6.39113 16.2422C6.18952 17.0781 6.27016 18.2578 6.35484 19.0234C2.6371 17.6133 0 14.1055 0 10C0 4.64844 4.47581 0.3125 10 0.3125C15.5242 0.3125 20 4.64844 20 10Z" fill="#1E43A5"/>
</svg>
