<svg width="24" height="24" viewBox="0 0 24 24" fill="none" xmlns="http://www.w3.org/2000/svg">
<g clip-path="url(#clip0_132_5548)">
<path d="M10.0039 5.50781C7.16462 5.50781 4.87444 7.51172 4.87444 9.99609C4.87444 12.4805 7.16462 14.4844 10.0039 14.4844C12.8432 14.4844 15.1334 12.4805 15.1334 9.99609C15.1334 7.51172 12.8432 5.50781 10.0039 5.50781ZM10.0039 12.9141C8.16908 12.9141 6.66908 11.6055 6.66908 9.99609C6.66908 8.38672 8.16462 7.07812 10.0039 7.07812C11.8432 7.07812 13.3387 8.38672 13.3387 9.99609C13.3387 11.6055 11.8387 12.9141 10.0039 12.9141ZM16.5396 5.32422C16.5396 5.90625 16.0039 6.37109 15.3432 6.37109C14.678 6.37109 14.1468 5.90234 14.1468 5.32422C14.1468 4.74609 14.6825 4.27734 15.3432 4.27734C16.0039 4.27734 16.5396 4.74609 16.5396 5.32422ZM19.9369 6.38672C19.861 4.98438 19.495 3.74219 18.3209 2.71875C17.1512 1.69531 15.7316 1.375 14.1289 1.30469C12.4771 1.22266 7.52623 1.22266 5.87444 1.30469C4.27623 1.37109 2.85658 1.69141 1.68248 2.71484C0.508371 3.73828 0.146763 4.98047 0.0664062 6.38281C-0.0273437 7.82812 -0.0273437 12.1602 0.0664062 13.6055C0.142299 15.0078 0.508371 16.25 1.68248 17.2734C2.85658 18.2969 4.27176 18.6172 5.87444 18.6875C7.52623 18.7695 12.4771 18.7695 14.1289 18.6875C15.7316 18.6211 17.1512 18.3008 18.3209 17.2734C19.4905 16.25 19.8566 15.0078 19.9369 13.6055C20.0307 12.1602 20.0307 7.83203 19.9369 6.38672ZM17.803 15.1562C17.4548 15.9219 16.7807 16.5117 15.9012 16.8203C14.5843 17.2773 11.4593 17.1719 10.0039 17.1719C8.54855 17.1719 5.41908 17.2734 4.10658 16.8203C3.23158 16.5156 2.55748 15.9258 2.2048 15.1562C1.68248 14.0039 1.80301 11.2695 1.80301 9.99609C1.80301 8.72266 1.68694 5.98437 2.2048 4.83594C2.55301 4.07031 3.22712 3.48047 4.10658 3.17187C5.42355 2.71484 8.54855 2.82031 10.0039 2.82031C11.4593 2.82031 14.5887 2.71875 15.9012 3.17187C16.7762 3.47656 17.4503 4.06641 17.803 4.83594C18.3253 5.98828 18.2048 8.72266 18.2048 9.99609C18.2048 11.2695 18.3253 14.0078 17.803 15.1562Z" fill="#1E43A5"/>
</g>
<defs>
<clipPath id="clip0_132_5548">
<rect width="24" height="24" fill="white"/>
</clipPath>
</defs>
</svg>
