<svg width="20" height="23" viewBox="0 0 20 23" fill="none" xmlns="http://www.w3.org/2000/svg">
<mask id="path-1-outside-1_129_2542" maskUnits="userSpaceOnUse" x="-0.576172" y="-0.667114" width="20" height="23" fill="black">
<rect fill="white" x="-0.576172" y="-0.667114" width="20" height="23"/>
<path fill-rule="evenodd" clip-rule="evenodd" d="M15.9823 8.21018V11.7515C15.9823 14.1845 16.8784 16.3426 18.645 18.1661C18.7459 18.27 18.7823 18.4236 18.7394 18.5637C18.6966 18.7043 18.582 18.8086 18.4421 18.8335L14.843 19.4788C14.1763 19.5985 13.5619 19.6965 12.9767 19.7773C12.3153 21.1247 11.0152 21.9893 9.5949 21.9893C8.17498 21.9893 6.87529 21.1251 6.21349 19.7784C5.62603 19.6973 5.00861 19.5989 4.33809 19.4788L0.738615 18.8335C0.598672 18.8083 0.483758 18.7043 0.441282 18.5637C0.398806 18.4232 0.435214 18.27 0.535716 18.1661C2.22301 16.4249 3.0786 14.2668 3.0786 11.7515V8.20781C3.09377 5.71973 4.77613 3.80455 6.43649 3.00997C6.82409 2.82412 7.22344 2.67568 7.62962 2.56188V2.30162C7.62962 1.21606 8.48028 0.332886 9.52588 0.332886C10.5715 0.332886 11.4221 1.21606 11.4221 2.30162V2.52763C11.8731 2.64457 12.3168 2.80207 12.7472 3.00642C14.2498 3.7195 15.9986 5.51026 15.9823 8.21018ZM9.52699 1.12073C8.89969 1.12073 8.38921 1.65071 8.38921 2.30196V2.39213C9.14204 2.26574 9.90891 2.26101 10.6648 2.37363V2.30196C10.6648 1.65071 10.1543 1.12073 9.52699 1.12073ZM9.59742 21.2024C8.63716 21.2024 7.73985 20.7071 7.16376 19.8972C8.01139 19.9877 8.80251 20.0334 9.59325 20.0334C10.387 20.0334 11.1808 19.9877 12.0318 19.896C11.4554 20.7067 10.5577 21.2024 9.59742 21.2024ZM12.6873 19.0222C13.3177 18.9388 13.9848 18.8328 14.7125 18.7025L17.6161 18.1824C16.0467 16.3365 15.2219 14.1276 15.2219 11.7521V8.2084C15.2351 6.03059 13.8293 4.38709 12.4302 3.72284C11.9611 3.50037 11.4741 3.33815 10.9796 3.23105C10.9773 3.23068 10.9749 3.23101 10.9726 3.23133C10.97 3.2317 10.9674 3.23207 10.9648 3.23145C10.0193 3.03024 9.02492 3.04008 8.09007 3.25822C8.08817 3.25861 8.08618 3.25871 8.08419 3.25881C8.0822 3.25891 8.08021 3.25901 8.07831 3.2594C7.62586 3.36689 7.181 3.52006 6.75207 3.7252C5.30978 4.41583 3.84815 6.07035 3.83525 8.21037V11.7517C3.83525 14.2292 3.07031 16.3885 1.55975 18.1816L4.46481 18.7021C5.19563 18.8328 5.86538 18.9396 6.49797 19.0226H6.50139C6.77672 19.0589 7.04447 19.0908 7.30691 19.1179L7.3327 19.1203C7.56746 19.1447 7.79728 19.1644 8.02446 19.1813C8.07199 19.1848 8.11915 19.188 8.16631 19.1911L8.16705 19.1912C8.36692 19.2049 8.56451 19.2152 8.76058 19.2234C8.7816 19.2242 8.80272 19.2252 8.82384 19.2262C8.84501 19.2272 8.86618 19.2282 8.88725 19.229C9.35866 19.2451 9.824 19.2451 10.2958 19.2286C10.3202 19.2279 10.3448 19.2267 10.3693 19.2256C10.3855 19.2248 10.4017 19.2241 10.4179 19.2234C10.6174 19.2156 10.818 19.2045 11.0209 19.1908C11.0645 19.188 11.1085 19.1849 11.1525 19.1817C11.3869 19.1644 11.6235 19.1439 11.8659 19.1187C11.867 19.1187 11.8681 19.1186 11.8691 19.1185C11.8702 19.1184 11.8712 19.1183 11.8723 19.1183C12.1367 19.0908 12.4067 19.0589 12.6847 19.0222H12.6873Z"/>
</mask>
<path d="M15.9823 8.21018L15.6823 8.20836V8.21018H15.9823ZM18.645 18.1661L18.4295 18.3748L18.4297 18.375L18.645 18.1661ZM18.7394 18.5637L18.4525 18.476L18.4525 18.4762L18.7394 18.5637ZM18.4421 18.8335L18.3897 18.5381L18.3891 18.5382L18.4421 18.8335ZM14.843 19.4788L14.79 19.1835L14.79 19.1835L14.843 19.4788ZM12.9767 19.7773L12.9357 19.4801L12.7777 19.5019L12.7074 19.6451L12.9767 19.7773ZM6.21349 19.7784L6.48274 19.6461L6.41243 19.5031L6.25453 19.4813L6.21349 19.7784ZM4.33809 19.4788L4.28515 19.7741L4.2852 19.7741L4.33809 19.4788ZM0.738615 18.8335L0.685449 19.1287L0.685673 19.1287L0.738615 18.8335ZM0.441282 18.5637L0.728457 18.477L0.441282 18.5637ZM0.535716 18.1661L0.320278 17.9573L0.320038 17.9575L0.535716 18.1661ZM3.0786 8.20781L2.7786 8.20598V8.20781H3.0786ZM6.43649 3.00997L6.566 3.28058L6.5662 3.28048L6.43649 3.00997ZM7.62962 2.56188L7.71055 2.85076L7.92962 2.78939V2.56188H7.62962ZM11.4221 2.52763H11.1221V2.75975L11.3468 2.81802L11.4221 2.52763ZM12.7472 3.00642L12.6186 3.27743L12.6186 3.27745L12.7472 3.00642ZM8.38921 2.39213H8.08921V2.7467L8.43888 2.68799L8.38921 2.39213ZM10.6648 2.37363L10.6206 2.67035L10.9648 2.72163V2.37363H10.6648ZM7.16376 19.8972L7.19563 19.5989L6.53309 19.5281L6.91929 20.0711L7.16376 19.8972ZM12.0318 19.896L12.2763 20.0698L12.6629 19.5262L11.9997 19.5977L12.0318 19.896ZM14.7125 18.7025L14.7654 18.9978L14.7654 18.9978L14.7125 18.7025ZM12.6873 19.0222V19.3222H12.7071L12.7267 19.3196L12.6873 19.0222ZM17.6161 18.1824L17.669 18.4777L18.1827 18.3857L17.8446 17.9881L17.6161 18.1824ZM15.2219 8.2084L14.9219 8.20657V8.2084H15.2219ZM12.4302 3.72284L12.5589 3.45183L12.5588 3.45177L12.4302 3.72284ZM10.9796 3.23105L11.0431 2.93785L11.035 2.9361L11.0269 2.9348L10.9796 3.23105ZM10.9726 3.23133L11.0145 3.5284L11.0145 3.5284L10.9726 3.23133ZM10.9648 3.23145L11.0347 2.93961L11.0272 2.93802L10.9648 3.23145ZM8.09007 3.25822L8.15106 3.55205L8.15824 3.55037L8.09007 3.25822ZM8.08419 3.25881L8.09901 3.55844L8.09901 3.55844L8.08419 3.25881ZM8.07831 3.2594L8.01728 2.96555L8.00897 2.96753L8.07831 3.2594ZM6.75207 3.7252L6.62263 3.45456L6.62251 3.45462L6.75207 3.7252ZM3.83525 8.21037L3.53525 8.20856V8.21037H3.83525ZM1.55975 18.1816L1.33031 17.9883L0.995854 18.3853L1.50684 18.4769L1.55975 18.1816ZM4.46481 18.7021L4.4119 18.9974L4.41199 18.9974L4.46481 18.7021ZM6.49797 19.0226L6.45891 19.3201L6.47836 19.3226H6.49797V19.0226ZM6.50139 19.0226L6.54052 18.7252L6.52104 18.7226H6.50139V19.0226ZM7.30691 19.1179L7.27602 19.4163L7.27954 19.4167L7.30691 19.1179ZM7.3327 19.1203L7.36373 18.8219L7.36008 18.8215L7.3327 19.1203ZM8.02446 19.1813L8.00216 19.4805L8.00227 19.4805L8.02446 19.1813ZM8.16631 19.1911L8.18707 18.8918L8.1862 18.8918L8.16631 19.1911ZM8.16705 19.1912L8.14629 19.4904L8.14642 19.4904L8.16705 19.1912ZM8.76058 19.2234L8.74794 19.5232L8.74938 19.5232L8.76058 19.2234ZM8.82384 19.2262L8.83779 18.9265L8.83778 18.9265L8.82384 19.2262ZM8.88725 19.229L8.87605 19.5287L8.87698 19.5288L8.88725 19.229ZM10.2958 19.2286L10.2871 18.9287L10.2853 18.9287L10.2958 19.2286ZM10.3693 19.2256L10.3832 19.5253L10.3832 19.5253L10.3693 19.2256ZM10.4179 19.2234L10.4295 19.5232L10.4297 19.5232L10.4179 19.2234ZM11.0209 19.1908L11.002 18.8914L11.0006 18.8915L11.0209 19.1908ZM11.1525 19.1817L11.1739 19.4809L11.1746 19.4809L11.1525 19.1817ZM11.8659 19.1187V18.8187H11.8503L11.8349 18.8203L11.8659 19.1187ZM11.8691 19.1185L11.8413 18.8198L11.8407 18.8199L11.8691 19.1185ZM11.8723 19.1183V19.4183H11.8879L11.9034 19.4167L11.8723 19.1183ZM12.6847 19.0222V18.7222H12.665L12.6455 18.7248L12.6847 19.0222ZM16.2823 11.7515V8.21018H15.6823V11.7515H16.2823ZM18.8605 17.9573C17.1455 16.1871 16.2823 14.1028 16.2823 11.7515H15.6823C15.6823 14.2661 16.6114 16.4981 18.4295 18.3748L18.8605 17.9573ZM19.0263 18.6514C19.1006 18.4084 19.0385 18.1408 18.8603 17.9571L18.4297 18.375C18.4532 18.3992 18.4639 18.4387 18.4525 18.476L19.0263 18.6514ZM18.4944 19.1288C18.751 19.0834 18.9523 18.8942 19.0264 18.6512L18.4525 18.4762C18.4408 18.5144 18.413 18.5339 18.3897 18.5381L18.4944 19.1288ZM14.8959 19.7741L18.495 19.1287L18.3891 18.5382L14.79 19.1835L14.8959 19.7741ZM13.0177 20.0744C13.6073 19.9931 14.2257 19.8944 14.896 19.7741L14.79 19.1835C14.1268 19.3026 13.5164 19.4 12.9357 19.4801L13.0177 20.0744ZM9.5949 22.2893C11.1408 22.2893 12.5393 21.3492 13.246 19.9095L12.7074 19.6451C12.0913 20.9002 10.8896 21.6893 9.5949 21.6893V22.2893ZM5.94425 19.9108C6.65136 21.3496 8.04942 22.2893 9.5949 22.2893V21.6893C8.30055 21.6893 7.09922 20.9005 6.48274 19.6461L5.94425 19.9108ZM4.2852 19.7741C4.9592 19.8948 5.5806 19.9939 6.17246 20.0756L6.25453 19.4813C5.67147 19.4008 5.05802 19.303 4.39098 19.1835L4.2852 19.7741ZM0.685673 19.1287L4.28515 19.7741L4.39104 19.1835L0.791558 18.5382L0.685673 19.1287ZM0.154107 18.6505C0.228028 18.8951 0.430578 19.0828 0.685449 19.1287L0.791782 18.5382C0.766765 18.5337 0.739488 18.5135 0.728457 18.477L0.154107 18.6505ZM0.320038 17.9575C0.14254 18.1411 0.0807533 18.4078 0.154107 18.6505L0.728457 18.477C0.716859 18.4386 0.727888 18.3989 0.751394 18.3746L0.320038 17.9575ZM2.7786 11.7515C2.7786 14.1921 1.95113 16.2744 0.320278 17.9573L0.751154 18.3748C2.49489 16.5754 3.3786 14.3415 3.3786 11.7515H2.7786ZM2.7786 8.20781V11.7515H3.3786V8.20781H2.7786ZM6.30699 2.73936C4.56571 3.57266 2.79462 5.5799 2.7786 8.20598L3.37859 8.20964C3.39292 5.85956 4.98655 4.03643 6.566 3.28058L6.30699 2.73936ZM7.54869 2.27301C7.12642 2.39131 6.71069 2.54579 6.30679 2.73946L6.5662 3.28048C6.93749 3.10245 7.32046 2.96005 7.71055 2.85076L7.54869 2.27301ZM7.32962 2.30162V2.56188H7.92962V2.30162H7.32962ZM9.52588 0.0328857C8.30409 0.0328857 7.32962 1.06108 7.32962 2.30162H7.92962C7.92962 1.37104 8.65647 0.632886 9.52588 0.632886V0.0328857ZM11.7221 2.30162C11.7221 1.06108 10.7477 0.0328857 9.52588 0.0328857V0.632886C10.3953 0.632886 11.1221 1.37104 11.1221 2.30162H11.7221ZM11.7221 2.52763V2.30162H11.1221V2.52763H11.7221ZM12.8759 2.73541C12.4272 2.52239 11.9655 2.35861 11.4974 2.23723L11.3468 2.81802C11.7807 2.93053 12.2064 3.08175 12.6186 3.27743L12.8759 2.73541ZM16.2823 8.21199C16.2994 5.36922 14.4576 3.48605 12.8759 2.73539L12.6186 3.27745C14.042 3.95295 15.6977 5.65129 15.6823 8.20836L16.2823 8.21199ZM8.68921 2.30196C8.68921 1.8057 9.07588 1.42073 9.52699 1.42073V0.820728C8.72351 0.820728 8.08921 1.49572 8.08921 2.30196H8.68921ZM8.68921 2.39213V2.30196H8.08921V2.39213H8.68921ZM10.709 2.0769C9.92261 1.95974 9.12405 1.96456 8.33953 2.09627L8.43888 2.68799C9.16003 2.56692 9.89521 2.56228 10.6206 2.67035L10.709 2.0769ZM10.3648 2.30196V2.37363H10.9648V2.30196H10.3648ZM9.52699 1.42073C9.97811 1.42073 10.3648 1.8057 10.3648 2.30196H10.9648C10.9648 1.49572 10.3305 0.820728 9.52699 0.820728V1.42073ZM6.91929 20.0711C7.54653 20.9529 8.53154 21.5024 9.59742 21.5024V20.9025C8.74277 20.9025 7.93316 20.4613 7.40823 19.7233L6.91929 20.0711ZM9.59325 19.7334C8.8144 19.7334 8.03399 19.6884 7.19563 19.5989L7.13189 20.1955C7.98879 20.287 8.79062 20.3334 9.59325 20.3334V19.7334ZM11.9997 19.5977C11.1581 19.6884 10.3752 19.7334 9.59325 19.7334V20.3334C10.3989 20.3334 11.2035 20.287 12.064 20.1943L11.9997 19.5977ZM9.59742 21.5024C10.6634 21.5024 11.6488 20.9524 12.2763 20.0698L11.7873 19.7221C11.262 20.461 10.452 20.9025 9.59742 20.9025V21.5024ZM14.6597 18.4072C13.9354 18.5369 13.2729 18.6421 12.648 18.7248L12.7267 19.3196C13.3624 19.2355 14.0341 19.1288 14.7654 18.9978L14.6597 18.4072ZM17.5632 17.8871L14.6596 18.4072L14.7654 18.9978L17.669 18.4777L17.5632 17.8871ZM14.9219 11.7521C14.9219 14.2006 15.7733 16.478 17.3875 18.3767L17.8446 17.9881C16.3202 16.195 15.5219 14.0545 15.5219 11.7521H14.9219ZM14.9219 8.2084V11.7521H15.5219V8.2084H14.9219ZM12.3015 3.99385C13.6129 4.61647 14.9343 6.16352 14.9219 8.20657L15.5219 8.21023C15.536 5.89765 14.0456 4.15771 12.5589 3.45183L12.3015 3.99385ZM10.9161 3.52425C11.3892 3.62671 11.8542 3.78171 12.3017 3.99391L12.5588 3.45177C12.068 3.21903 11.5591 3.04959 11.0431 2.93785L10.9161 3.52425ZM11.0145 3.5284C11.0176 3.52797 11.0076 3.52951 10.9958 3.53028C10.9825 3.53116 10.9599 3.53171 10.9323 3.5273L11.0269 2.9348C10.9969 2.93002 10.9721 2.93055 10.9564 2.93158C10.9485 2.9321 10.9421 2.93281 10.938 2.93331C10.9342 2.93378 10.9309 2.93425 10.9307 2.93427L11.0145 3.5284ZM10.8949 3.52318C10.9314 3.53195 10.9625 3.53236 10.9824 3.53145C10.9924 3.53099 11.0005 3.53015 11.0056 3.52956C11.0103 3.529 11.0144 3.52841 11.0145 3.5284L10.9307 2.93427C10.927 2.9348 10.9398 2.93277 10.955 2.93208C10.9723 2.93128 11.0008 2.93157 11.0347 2.93971L10.8949 3.52318ZM8.15824 3.55037C9.05005 3.34228 9.99985 3.33282 10.9023 3.52487L11.0272 2.93802C10.0388 2.72767 8.99979 2.73789 8.0219 2.96607L8.15824 3.55037ZM8.09901 3.55844C8.09902 3.55844 8.10572 3.55815 8.11333 3.55748C8.12152 3.55677 8.1349 3.55531 8.15104 3.55196L8.0291 2.96448C8.04334 2.96152 8.05478 2.96031 8.06099 2.95977C8.06663 2.95928 8.07135 2.95908 8.06937 2.95918L8.09901 3.55844ZM8.13932 3.55313C8.12506 3.55609 8.11361 3.55731 8.10739 3.55785C8.10174 3.55835 8.09702 3.55854 8.09901 3.55844L8.06937 2.95918C8.06936 2.95918 8.06265 2.95947 8.05504 2.96014C8.04685 2.96086 8.03346 2.96231 8.0173 2.96567L8.13932 3.55313ZM6.88151 3.99584C7.28998 3.80049 7.71456 3.65417 8.14765 3.55128L8.00897 2.96753C7.53717 3.07962 7.07202 3.23964 6.62263 3.45456L6.88151 3.99584ZM4.13525 8.21217C4.1473 6.21151 5.51878 4.64838 6.88163 3.99578L6.62251 3.45462C5.10078 4.18329 3.54899 5.9292 3.53526 8.20856L4.13525 8.21217ZM4.13525 11.7517V8.21037H3.53525V11.7517H4.13525ZM1.78919 18.3749C3.34797 16.5245 4.13525 14.2957 4.13525 11.7517H3.53525C3.53525 14.1627 2.79264 16.2524 1.33031 17.9883L1.78919 18.3749ZM4.51772 18.4068L1.61266 17.8863L1.50684 18.4769L4.4119 18.9974L4.51772 18.4068ZM6.53704 18.7252C5.91015 18.6429 5.24512 18.5369 4.51763 18.4068L4.41199 18.9974C5.14613 19.1288 5.82061 19.2363 6.45891 19.3201L6.53704 18.7252ZM6.50139 18.7226H6.49797V19.3226H6.50139V18.7226ZM7.3378 18.8195C7.07849 18.7927 6.81351 18.7611 6.54052 18.7252L6.46225 19.3201C6.73993 19.3566 7.01046 19.3888 7.27602 19.4163L7.3378 18.8195ZM7.36008 18.8215L7.33429 18.8192L7.27954 19.4167L7.30533 19.419L7.36008 18.8215ZM8.04675 18.8821C7.8218 18.8654 7.59497 18.8459 7.36373 18.8219L7.30167 19.4187C7.53995 19.4435 7.77276 19.4634 8.00216 19.4805L8.04675 18.8821ZM8.1862 18.8918C8.13886 18.8886 8.09284 18.8856 8.04664 18.8821L8.00227 19.4805C8.05114 19.4841 8.09945 19.4873 8.14642 19.4904L8.1862 18.8918ZM8.18781 18.8919L8.18707 18.8918L8.14555 19.4904L8.14629 19.4904L8.18781 18.8919ZM8.77322 18.9237C8.57905 18.9155 8.38423 18.9054 8.18769 18.8919L8.14642 19.4904C8.34961 19.5045 8.54997 19.5148 8.74794 19.5232L8.77322 18.9237ZM8.83778 18.9265C8.81692 18.9256 8.79442 18.9245 8.77179 18.9237L8.74938 19.5232C8.76879 19.524 8.78852 19.5249 8.8099 19.5259L8.83778 18.9265ZM8.89846 18.9292C8.87899 18.9284 8.8592 18.9275 8.83779 18.9265L8.80988 19.5259C8.83081 19.5268 8.85336 19.5279 8.87605 19.5287L8.89846 18.9292ZM10.2853 18.9287C9.82049 18.945 9.36208 18.945 8.89752 18.9291L8.87698 19.5288C9.35524 19.5452 9.82751 19.5452 10.3063 19.5284L10.2853 18.9287ZM10.3554 18.9259C10.3304 18.9271 10.3085 18.9281 10.2871 18.9287L10.3045 19.5284C10.332 19.5276 10.3591 19.5264 10.3832 19.5253L10.3554 18.9259ZM10.4063 18.9237C10.3888 18.9244 10.3715 18.9252 10.3554 18.9259L10.3832 19.5253C10.3996 19.5245 10.4147 19.5238 10.4295 19.5232L10.4063 18.9237ZM11.0006 18.8915C10.8002 18.9051 10.6025 18.9159 10.4061 18.9237L10.4297 19.5232C10.6323 19.5152 10.8358 19.504 11.0412 19.4901L11.0006 18.8915ZM11.1311 18.8825C11.0869 18.8856 11.0441 18.8887 11.002 18.8914L11.0398 19.4902C11.0849 19.4873 11.1301 19.4841 11.1739 19.4809L11.1311 18.8825ZM11.8349 18.8203C11.5959 18.8452 11.3622 18.8654 11.1304 18.8825L11.1746 19.4809C11.4115 19.4634 11.6512 19.4426 11.8969 19.4171L11.8349 18.8203ZM11.8407 18.8199C11.8399 18.8199 11.843 18.8196 11.8469 18.8194C11.8513 18.8191 11.8579 18.8187 11.8659 18.8187V19.4187C11.8831 19.4187 11.8975 19.4172 11.8975 19.4172L11.8407 18.8199ZM11.8723 18.8183C11.8632 18.8183 11.8556 18.8187 11.8502 18.8191C11.8476 18.8193 11.8454 18.8194 11.8439 18.8196C11.8426 18.8197 11.8414 18.8198 11.8413 18.8198L11.897 19.4172C11.898 19.4171 11.8949 19.4174 11.8912 19.4177C11.8869 19.418 11.8803 19.4183 11.8723 19.4183V18.8183ZM12.6455 18.7248C12.3701 18.7611 12.1028 18.7927 11.8412 18.8199L11.9034 19.4167C12.1706 19.3888 12.4433 19.3566 12.7239 19.3197L12.6455 18.7248ZM12.6873 18.7222H12.6847V19.3222H12.6873V18.7222Z" fill="white" mask="url(#path-1-outside-1_129_2542)"/>
</svg>
