<svg width="20" height="23" viewBox="0 0 20 23" fill="none" xmlns="http://www.w3.org/2000/svg">
<mask id="path-1-outside-1_99_5355" maskUnits="userSpaceOnUse" x="-0.452881" y="0.0526123" width="20" height="23" fill="black">
<rect fill="white" x="-0.452881" y="0.0526123" width="20" height="23"/>
<path fill-rule="evenodd" clip-rule="evenodd" d="M16.1056 8.9299V12.4713C16.1056 14.9042 17.0017 17.0623 18.7683 18.8858C18.8692 18.9897 18.9056 19.1433 18.8627 19.2835C18.8199 19.424 18.7053 19.5284 18.5654 19.5532L14.9663 20.1985C14.2996 20.3182 13.6852 20.4163 13.1 20.497C12.4386 21.8444 11.1385 22.7091 9.71819 22.7091C8.29827 22.7091 6.99858 21.8448 6.33678 20.4982C5.74932 20.4171 5.1319 20.3186 4.46138 20.1985L0.861906 19.5532C0.721963 19.528 0.607049 19.424 0.564573 19.2835C0.522097 19.1429 0.558505 18.9897 0.659007 18.8858C2.3463 17.1446 3.20189 14.9865 3.20189 12.4713V8.92754C3.21706 6.43946 4.89942 4.52427 6.55978 3.72969C6.94738 3.54385 7.34673 3.3954 7.75291 3.28161V3.02134C7.75291 1.93579 8.60357 1.05261 9.64917 1.05261C10.6948 1.05261 11.5454 1.93579 11.5454 3.02134V3.24735C11.9964 3.3643 12.4401 3.5218 12.8705 3.72615C14.3731 4.43922 16.1219 6.22998 16.1056 8.9299ZM9.65028 1.84045C9.02298 1.84045 8.5125 2.37044 8.5125 3.02169V3.11186C9.26533 2.98547 10.0322 2.98074 10.7881 3.09335V3.02169C10.7881 2.37044 10.2776 1.84045 9.65028 1.84045ZM9.72071 21.9222C8.76045 21.9222 7.86314 21.4268 7.28705 20.6169C8.13468 20.7075 8.9258 20.7531 9.71654 20.7531C10.5103 20.7531 11.3041 20.7075 12.1551 20.6157C11.5787 21.4264 10.681 21.9222 9.72071 21.9222ZM12.8106 19.742C13.4409 19.6585 14.108 19.5526 14.8358 19.4222L17.7394 18.9021C16.17 17.0562 15.3452 14.8473 15.3452 12.4718V8.92812C15.3584 6.75031 13.9526 5.10682 12.5535 4.44257C12.0844 4.2201 11.5974 4.05788 11.1029 3.95078C11.1005 3.95041 11.0982 3.95073 11.0959 3.95106C11.0933 3.95143 11.0907 3.9518 11.0881 3.95117C10.1426 3.74997 9.14821 3.75981 8.21336 3.97795C8.21146 3.97834 8.20947 3.97844 8.20748 3.97854C8.20549 3.97864 8.2035 3.97873 8.2016 3.97913C7.74915 4.08662 7.30429 4.23979 6.87536 4.44493C5.43307 5.13556 3.97144 6.79008 3.95854 8.93009V12.4714C3.95854 14.9489 3.1936 17.1082 1.68304 18.9013L4.5881 19.4219C5.31892 19.5526 5.98867 19.6593 6.62126 19.7424H6.62468C6.90001 19.7786 7.16776 19.8105 7.4302 19.8376L7.45599 19.84C7.69075 19.8644 7.92058 19.8841 8.14775 19.901C8.19529 19.9046 8.24245 19.9077 8.28962 19.9108L8.29035 19.9109C8.49021 19.9247 8.6878 19.9349 8.88387 19.9432C8.90489 19.944 8.92601 19.9449 8.94713 19.9459C8.9683 19.9469 8.98947 19.9479 9.01054 19.9487C9.48195 19.9648 9.94729 19.9648 10.4191 19.9483C10.4435 19.9476 10.4681 19.9464 10.4926 19.9453C10.5088 19.9446 10.525 19.9438 10.5412 19.9432C10.7407 19.9353 10.9413 19.9243 11.1442 19.9105C11.1878 19.9077 11.2318 19.9046 11.2758 19.9014C11.5102 19.8841 11.7468 19.8636 11.9892 19.8384C11.9903 19.8384 11.9914 19.8383 11.9924 19.8382C11.9934 19.8381 11.9945 19.838 11.9956 19.838C12.26 19.8105 12.53 19.7786 12.808 19.742H12.8106Z"/>
</mask>
<path d="M16.1056 8.9299L15.8056 8.92809V8.9299H16.1056ZM18.7683 18.8858L18.5528 19.0945L18.553 19.0947L18.7683 18.8858ZM18.8627 19.2835L18.5758 19.1958L18.5758 19.196L18.8627 19.2835ZM18.5654 19.5532L18.513 19.2578L18.5124 19.2579L18.5654 19.5532ZM14.9663 20.1985L14.9133 19.9032L14.9133 19.9033L14.9663 20.1985ZM13.1 20.497L13.059 20.1998L12.901 20.2216L12.8307 20.3648L13.1 20.497ZM6.33678 20.4982L6.60603 20.3659L6.53572 20.2228L6.37782 20.201L6.33678 20.4982ZM4.46138 20.1985L4.40844 20.4938L4.40849 20.4938L4.46138 20.1985ZM0.861906 19.5532L0.80874 19.8484L0.808964 19.8485L0.861906 19.5532ZM0.564573 19.2835L0.851748 19.1967L0.851748 19.1967L0.564573 19.2835ZM0.659007 18.8858L0.443569 18.677L0.443328 18.6773L0.659007 18.8858ZM3.20189 8.92754L2.90189 8.92571V8.92754H3.20189ZM6.55978 3.72969L6.68929 4.0003L6.68949 4.0002L6.55978 3.72969ZM7.75291 3.28161L7.83384 3.57049L8.05291 3.50911V3.28161H7.75291ZM11.5454 3.24735H11.2454V3.47948L11.4701 3.53775L11.5454 3.24735ZM12.8705 3.72615L12.7419 3.99716L12.7419 3.99718L12.8705 3.72615ZM8.5125 3.11186H8.2125V3.46642L8.56217 3.40772L8.5125 3.11186ZM10.7881 3.09335L10.7439 3.39008L11.0881 3.44136V3.09335H10.7881ZM7.28705 20.6169L7.31892 20.3186L6.65639 20.2478L7.04259 20.7908L7.28705 20.6169ZM12.1551 20.6157L12.3996 20.7896L12.7862 20.246L12.123 20.3174L12.1551 20.6157ZM14.8358 19.4222L14.8887 19.7175L14.8887 19.7175L14.8358 19.4222ZM12.8106 19.742V20.042H12.8304L12.85 20.0394L12.8106 19.742ZM17.7394 18.9021L17.7923 19.1974L18.306 19.1054L17.9679 18.7078L17.7394 18.9021ZM15.3452 8.92812L15.0452 8.92629V8.92812H15.3452ZM12.5535 4.44257L12.6822 4.17156L12.682 4.1715L12.5535 4.44257ZM11.1029 3.95078L11.1664 3.65757L11.1583 3.65583L11.1502 3.65453L11.1029 3.95078ZM11.0959 3.95106L11.1378 4.24813L11.1378 4.24812L11.0959 3.95106ZM11.0881 3.95117L11.158 3.65933L11.1505 3.65774L11.0881 3.95117ZM8.21336 3.97795L8.2744 4.27176L8.28153 4.2701L8.21336 3.97795ZM8.2016 3.97913L8.14059 3.68527L8.13226 3.68725L8.2016 3.97913ZM6.87536 4.44493L6.74592 4.17429L6.7458 4.17435L6.87536 4.44493ZM3.95854 8.93009L3.65854 8.92828V8.93009H3.95854ZM1.68304 18.9013L1.4536 18.708L1.11915 19.1051L1.63013 19.1966L1.68304 18.9013ZM4.5881 19.4219L4.53519 19.7171L4.53528 19.7172L4.5881 19.4219ZM6.62126 19.7424L6.5822 20.0398L6.60165 20.0424H6.62126V19.7424ZM6.62468 19.7424L6.66381 19.4449L6.64433 19.4424H6.62468V19.7424ZM7.4302 19.8376L7.39931 20.1361L7.40283 20.1364L7.4302 19.8376ZM7.45599 19.84L7.48703 19.5416L7.48337 19.5413L7.45599 19.84ZM8.14775 19.901L8.12545 20.2002L8.12556 20.2002L8.14775 19.901ZM8.28962 19.9108L8.30957 19.6115L8.30951 19.6115L8.28962 19.9108ZM8.29035 19.9109L8.31098 19.6116L8.3103 19.6115L8.29035 19.9109ZM8.88387 19.9432L8.87123 20.2429L8.87265 20.243L8.88387 19.9432ZM8.94713 19.9459L8.93317 20.2456H8.93318L8.94713 19.9459ZM9.01054 19.9487L8.99934 20.2485L9.00027 20.2485L9.01054 19.9487ZM10.4191 19.9483L10.4103 19.6484L10.4086 19.6485L10.4191 19.9483ZM10.4926 19.9453L10.4787 19.6456H10.4787L10.4926 19.9453ZM10.5412 19.9432L10.5528 20.2429L10.553 20.2429L10.5412 19.9432ZM11.1442 19.9105L11.1253 19.6111L11.1239 19.6112L11.1442 19.9105ZM11.2758 19.9014L11.2972 20.2007L11.2979 20.2006L11.2758 19.9014ZM11.9892 19.8384V19.5384H11.9736L11.9581 19.54L11.9892 19.8384ZM11.9956 19.838V20.138H12.0112L12.0267 20.1364L11.9956 19.838ZM12.808 19.742V19.442H12.7883L12.7688 19.4445L12.808 19.742ZM16.4056 12.4713V8.9299H15.8056V12.4713H16.4056ZM18.9837 18.677C17.2688 16.9068 16.4056 14.8226 16.4056 12.4713H15.8056C15.8056 14.9859 16.7347 17.2179 18.5528 19.0945L18.9837 18.677ZM19.1496 19.3712C19.2239 19.1282 19.1618 18.8605 18.9836 18.6768L18.553 19.0947C18.5765 19.1189 18.5872 19.1584 18.5758 19.1958L19.1496 19.3712ZM18.6177 19.8486C18.8743 19.8031 19.0756 19.6139 19.1497 19.371L18.5758 19.196C18.5641 19.2342 18.5363 19.2537 18.513 19.2578L18.6177 19.8486ZM15.0192 20.4938L18.6183 19.8485L18.5124 19.2579L14.9133 19.9032L15.0192 20.4938ZM13.141 20.7942C13.7306 20.7128 14.349 20.6141 15.0193 20.4938L14.9133 19.9033C14.2501 20.0223 13.6397 20.1197 13.059 20.1998L13.141 20.7942ZM9.71819 23.0091C11.2641 23.0091 12.6626 22.0689 13.3693 20.6292L12.8307 20.3648C12.2146 21.6199 11.0129 22.4091 9.71819 22.4091V23.0091ZM6.06754 20.6305C6.77465 22.0693 8.17271 23.0091 9.71819 23.0091V22.4091C8.42384 22.4091 7.22251 21.6203 6.60603 20.3659L6.06754 20.6305ZM4.40849 20.4938C5.08249 20.6145 5.70389 20.7136 6.29575 20.7954L6.37782 20.201C5.79476 20.1205 5.18131 20.0227 4.51427 19.9032L4.40849 20.4938ZM0.808964 19.8485L4.40844 20.4938L4.51433 19.9032L0.914849 19.2579L0.808964 19.8485ZM0.277398 19.3702C0.35132 19.6149 0.55387 19.8025 0.80874 19.8484L0.915073 19.2579C0.890055 19.2534 0.862779 19.2332 0.851748 19.1967L0.277398 19.3702ZM0.443328 18.6773C0.265831 18.8608 0.204044 19.1275 0.277398 19.3702L0.851748 19.1967C0.84015 19.1583 0.851179 19.1186 0.874686 19.0943L0.443328 18.6773ZM2.90189 12.4713C2.90189 14.9118 2.07442 16.9941 0.443569 18.677L0.874445 19.0946C2.61818 17.2952 3.50189 15.0612 3.50189 12.4713H2.90189ZM2.90189 8.92754V12.4713H3.50189V8.92754H2.90189ZM6.43028 3.45908C4.689 4.29239 2.91791 6.29963 2.9019 8.92571L3.50188 8.92937C3.51621 6.57929 5.10984 4.75616 6.68929 4.0003L6.43028 3.45908ZM7.67198 2.99273C7.24971 3.11103 6.83398 3.26551 6.43008 3.45918L6.68949 4.0002C7.06078 3.82218 7.44375 3.67977 7.83384 3.57049L7.67198 2.99273ZM7.45291 3.02134V3.28161H8.05291V3.02134H7.45291ZM9.64917 0.752612C8.42738 0.752612 7.45291 1.7808 7.45291 3.02134H8.05291C8.05291 2.09077 8.77976 1.35261 9.64917 1.35261V0.752612ZM11.8454 3.02134C11.8454 1.7808 10.871 0.752612 9.64917 0.752612V1.35261C10.5186 1.35261 11.2454 2.09077 11.2454 3.02134H11.8454ZM11.8454 3.24735V3.02134H11.2454V3.24735H11.8454ZM12.9992 3.45514C12.5505 3.24211 12.0888 3.07834 11.6207 2.95696L11.4701 3.53775C11.9039 3.65026 12.3297 3.80148 12.7419 3.99716L12.9992 3.45514ZM16.4055 8.93171C16.4227 6.08895 14.5809 4.20577 12.9992 3.45512L12.7419 3.99718C14.1653 4.67268 15.821 6.37102 15.8056 8.92809L16.4055 8.93171ZM8.8125 3.02169C8.8125 2.52542 9.19917 2.14045 9.65028 2.14045V1.54045C8.8468 1.54045 8.2125 2.21545 8.2125 3.02169H8.8125ZM8.8125 3.11186V3.02169H8.2125V3.11186H8.8125ZM10.8323 2.79663C10.0459 2.67947 9.24734 2.68429 8.46283 2.816L8.56217 3.40772C9.28332 3.28664 10.0185 3.28201 10.7439 3.39008L10.8323 2.79663ZM10.4881 3.02169V3.09335H11.0881V3.02169H10.4881ZM9.65028 2.14045C10.1014 2.14045 10.4881 2.52542 10.4881 3.02169H11.0881C11.0881 2.21545 10.4538 1.54045 9.65028 1.54045V2.14045ZM7.04259 20.7908C7.66982 21.6726 8.65483 22.2222 9.72071 22.2222V21.6222C8.86607 21.6222 8.05646 21.181 7.53152 20.443L7.04259 20.7908ZM9.71654 20.4531C8.93769 20.4531 8.15728 20.4082 7.31892 20.3186L7.25518 20.9152C8.11208 21.0068 8.91391 21.0531 9.71654 21.0531V20.4531ZM12.123 20.3174C11.2814 20.4082 10.4984 20.4531 9.71654 20.4531V21.0531C10.5222 21.0531 11.3267 21.0068 12.1873 20.914L12.123 20.3174ZM9.72071 22.2222C10.7867 22.2222 11.7721 21.6722 12.3996 20.7896L11.9106 20.4419C11.3853 21.1807 10.5753 21.6222 9.72071 21.6222V22.2222ZM14.7829 19.1269C14.0587 19.2566 13.3962 19.3618 12.7712 19.4446L12.85 20.0394C13.4857 19.9552 14.1574 19.8485 14.8887 19.7175L14.7829 19.1269ZM17.6865 18.6068L14.7829 19.1269L14.8887 19.7175L17.7923 19.1974L17.6865 18.6068ZM15.0452 12.4718C15.0452 14.9204 15.8966 17.1977 17.5108 19.0964L17.9679 18.7078C16.4435 16.9147 15.6452 14.7743 15.6452 12.4718H15.0452ZM15.0452 8.92812V12.4718H15.6452V8.92812H15.0452ZM12.4248 4.71357C13.7362 5.3362 15.0576 6.88325 15.0452 8.92629L15.6452 8.92995C15.6593 6.61738 14.1689 4.87744 12.6822 4.17156L12.4248 4.71357ZM11.0394 4.24398C11.5125 4.34643 11.9775 4.50144 12.425 4.71363L12.682 4.1715C12.1912 3.93876 11.6824 3.76932 11.1664 3.65757L11.0394 4.24398ZM11.1378 4.24812C11.1408 4.24769 11.1309 4.24923 11.1191 4.25001C11.1057 4.25089 11.0832 4.25144 11.0555 4.24702L11.1502 3.65453C11.1202 3.64975 11.0953 3.65028 11.0797 3.6513C11.0718 3.65182 11.0654 3.65254 11.0613 3.65304C11.0575 3.6535 11.0542 3.65398 11.054 3.654L11.1378 4.24812ZM11.0182 4.24292C11.0547 4.25167 11.0857 4.25209 11.1057 4.25117C11.1156 4.25072 11.1238 4.24988 11.1289 4.24928C11.1336 4.24873 11.1377 4.24813 11.1378 4.24813L11.054 3.654C11.0503 3.65453 11.0631 3.6525 11.0783 3.6518C11.0956 3.65101 11.124 3.6513 11.158 3.65943L11.0182 4.24292ZM8.28153 4.2701C9.17334 4.06201 10.1231 4.05254 11.0256 4.2446L11.1505 3.65774C10.1621 3.44739 9.12308 3.45762 8.14519 3.68579L8.28153 4.2701ZM8.2223 4.27817C8.2223 4.27817 8.22902 4.27788 8.23663 4.27721C8.24482 4.27649 8.25822 4.27503 8.27438 4.27167L8.15234 3.68422C8.1666 3.68125 8.17806 3.68004 8.18428 3.6795C8.18992 3.679 8.19464 3.67881 8.19266 3.6789L8.2223 4.27817ZM8.26259 4.27286C8.24833 4.27582 8.23689 4.27703 8.23067 4.27758C8.22503 4.27807 8.22031 4.27827 8.2223 4.27817L8.19266 3.6789C8.19265 3.6789 8.18595 3.6792 8.17834 3.67987C8.17016 3.68058 8.15676 3.68204 8.14062 3.68539L8.26259 4.27286ZM7.0048 4.71557C7.41327 4.52021 7.83785 4.3739 8.27095 4.271L8.13226 3.68725C7.66046 3.79934 7.19531 3.95936 6.74592 4.17429L7.0048 4.71557ZM4.25854 8.9319C4.27059 6.93124 5.64207 5.3681 7.00493 4.71551L6.7458 4.17435C5.22407 4.90302 3.67228 6.64892 3.65855 8.92828L4.25854 8.9319ZM4.25854 12.4714V8.93009H3.65854V12.4714H4.25854ZM1.91248 19.0946C3.47126 17.2442 4.25854 15.0154 4.25854 12.4714H3.65854C3.65854 14.8824 2.91593 16.9722 1.4536 18.708L1.91248 19.0946ZM4.64101 19.1266L1.73595 18.606L1.63013 19.1966L4.53519 19.7171L4.64101 19.1266ZM6.66033 19.4449C6.03344 19.3626 5.36841 19.2567 4.64092 19.1265L4.53528 19.7172C5.26942 19.8485 5.9439 19.956 6.5822 20.0398L6.66033 19.4449ZM6.62468 19.4424H6.62126V20.0424H6.62468V19.4424ZM7.4611 19.5392C7.20178 19.5124 6.9368 19.4808 6.66381 19.4449L6.58554 20.0398C6.86323 20.0763 7.13375 20.1086 7.39931 20.1361L7.4611 19.5392ZM7.48337 19.5413L7.45758 19.5389L7.40283 20.1364L7.42862 20.1388L7.48337 19.5413ZM8.17004 19.6019C7.9451 19.5851 7.71826 19.5657 7.48702 19.5416L7.42496 20.1384C7.66324 20.1632 7.89606 20.1831 8.12545 20.2002L8.17004 19.6019ZM8.30951 19.6115C8.26216 19.6083 8.21614 19.6053 8.16994 19.6019L8.12556 20.2002C8.17443 20.2038 8.22274 20.2071 8.26972 20.2102L8.30951 19.6115ZM8.3103 19.6115L8.30957 19.6115L8.26966 20.2102L8.27039 20.2102L8.3103 19.6115ZM8.89651 19.6434C8.70234 19.6353 8.50752 19.6251 8.31098 19.6116L8.26971 20.2102C8.4729 20.2242 8.67326 20.2346 8.87123 20.2429L8.89651 19.6434ZM8.96108 19.6462C8.9402 19.6453 8.91771 19.6442 8.89509 19.6434L8.87265 20.243C8.89208 20.2437 8.91182 20.2446 8.93317 20.2456L8.96108 19.6462ZM9.02175 19.6489C9.00228 19.6482 8.98249 19.6472 8.96107 19.6462L8.93318 20.2456C8.9541 20.2466 8.97666 20.2476 8.99934 20.2485L9.02175 19.6489ZM10.4086 19.6485C9.94378 19.6648 9.48537 19.6648 9.02081 19.6489L9.00027 20.2485C9.47853 20.2649 9.9508 20.2649 10.4296 20.2481L10.4086 19.6485ZM10.4787 19.6456C10.4537 19.6468 10.4317 19.6478 10.4103 19.6484L10.4278 20.2482C10.4553 20.2474 10.4824 20.2461 10.5065 20.245L10.4787 19.6456ZM10.5296 19.6434C10.5121 19.6441 10.4947 19.6449 10.4787 19.6456L10.5065 20.245C10.5229 20.2442 10.538 20.2435 10.5528 20.2429L10.5296 19.6434ZM11.1239 19.6112C10.9235 19.6248 10.7257 19.6357 10.5294 19.6434L10.553 20.2429C10.7556 20.2349 10.9591 20.2238 11.1645 20.2098L11.1239 19.6112ZM11.2544 19.6022C11.2102 19.6054 11.1674 19.6084 11.1253 19.6111L11.1631 20.2099C11.2082 20.207 11.2534 20.2038 11.2972 20.2007L11.2544 19.6022ZM11.9581 19.54C11.7192 19.5649 11.4855 19.5851 11.2537 19.6023L11.2979 20.2006C11.5348 20.1831 11.7745 20.1624 12.0202 20.1368L11.9581 19.54ZM11.9643 19.5396C11.9633 19.5397 11.9664 19.5393 11.9703 19.5391C11.9746 19.5388 11.9812 19.5384 11.9892 19.5384V20.1384C11.9983 20.1384 12.006 20.138 12.0114 20.1377C12.0163 20.1373 12.0205 20.1369 12.0205 20.1369L11.9643 19.5396ZM11.9956 19.538C11.9865 19.538 11.9789 19.5384 11.9734 19.5388C11.9685 19.5391 11.9644 19.5396 11.9643 19.5396L12.0205 20.1369C12.0215 20.1368 12.0183 20.1371 12.0145 20.1374C12.0102 20.1377 12.0036 20.138 11.9956 20.138V19.538ZM12.7688 19.4445C12.4934 19.4808 12.2261 19.5124 11.9645 19.5397L12.0267 20.1364C12.2939 20.1086 12.5666 20.0764 12.8472 20.0394L12.7688 19.4445ZM12.8106 19.442H12.808V20.042H12.8106V19.442Z" fill="white" mask="url(#path-1-outside-1_99_5355)"/>
</svg>
