<svg width="20" height="23" viewBox="0 0 20 23" fill="none" xmlns="http://www.w3.org/2000/svg">
<mask id="path-1-outside-1_109_5683" maskUnits="userSpaceOnUse" x="-0.453125" y="0.0527344" width="20" height="23" fill="black">
<rect fill="white" x="-0.453125" y="0.0527344" width="20" height="23"/>
<path fill-rule="evenodd" clip-rule="evenodd" d="M16.1053 8.93002V12.4714C16.1053 14.9043 17.0015 17.0625 18.768 18.8859C18.8689 18.9898 18.9053 19.1434 18.8625 19.2836C18.8196 19.4242 18.7051 19.5285 18.5651 19.5533L14.966 20.1987C14.2993 20.3184 13.6849 20.4164 13.0997 20.4971C12.4383 21.8445 11.1382 22.7092 9.71795 22.7092C8.29803 22.7092 6.99833 21.8449 6.33654 20.4983C5.74908 20.4172 5.13166 20.3187 4.46114 20.1987L0.861662 19.5533C0.721718 19.5281 0.606805 19.4242 0.564329 19.2836C0.521853 19.143 0.558261 18.9898 0.658763 18.8859C2.34605 17.1448 3.20165 14.9866 3.20165 12.4714V8.92766C3.21682 6.43958 4.89918 4.5244 6.55954 3.72982C6.94714 3.54397 7.34649 3.39553 7.75267 3.28173V3.02147C7.75267 1.93591 8.60333 1.05273 9.64892 1.05273C10.6945 1.05273 11.5452 1.93591 11.5452 3.02147V3.24748C11.9961 3.36442 12.4398 3.52192 12.8703 3.72627C14.3729 4.43935 16.1216 6.23011 16.1053 8.93002ZM9.65004 1.84058C9.02274 1.84058 8.51225 2.37056 8.51225 3.02181V3.11198C9.26509 2.98559 10.032 2.98086 10.7878 3.09347V3.02181C10.7878 2.37056 10.2773 1.84058 9.65004 1.84058ZM9.72047 21.9223C8.7602 21.9223 7.86289 21.427 7.28681 20.617C8.13444 20.7076 8.92556 20.7533 9.7163 20.7533C10.5101 20.7533 11.3038 20.7076 12.1549 20.6158C11.5784 21.4266 10.6807 21.9223 9.72047 21.9223ZM12.8104 19.7421C13.4407 19.6586 14.1078 19.5527 14.8356 19.4224L17.7391 18.9022C16.1698 17.0563 15.3449 14.8474 15.3449 12.472V8.92825C15.3582 6.75043 13.9523 5.10694 12.5533 4.44269C12.0841 4.22022 11.5972 4.058 11.1026 3.9509C11.1003 3.95053 11.098 3.95086 11.0957 3.95118C11.0931 3.95155 11.0904 3.95192 11.0878 3.95129C10.1424 3.75009 9.14797 3.75993 8.21311 3.97807C8.21122 3.97846 8.20923 3.97856 8.20724 3.97866C8.20524 3.97876 8.20325 3.97886 8.20136 3.97925C7.74891 4.08674 7.30405 4.23991 6.87512 4.44505C5.43283 5.13568 3.97119 6.7902 3.9583 8.93021V12.4716C3.9583 14.949 3.19335 17.1083 1.6828 18.9014L4.58786 19.422C5.31867 19.5527 5.98843 19.6594 6.62102 19.7425H6.62443C6.89977 19.7787 7.16752 19.8106 7.42996 19.8378L7.45575 19.8401C7.69051 19.8645 7.92033 19.8842 8.1475 19.9012C8.19504 19.9047 8.2422 19.9078 8.28936 19.911L8.2901 19.911C8.48997 19.9248 8.68756 19.935 8.88363 19.9433C8.90465 19.9441 8.92577 19.9451 8.94688 19.946C8.96805 19.947 8.98922 19.948 9.0103 19.9488C9.48171 19.965 9.94705 19.965 10.4188 19.9484C10.4433 19.9477 10.4678 19.9466 10.4923 19.9454C10.5086 19.9447 10.5248 19.9439 10.541 19.9433C10.7404 19.9354 10.9411 19.9244 11.144 19.9106C11.1876 19.9079 11.2316 19.9047 11.2756 19.9016C11.5099 19.8842 11.7466 19.8638 11.9889 19.8386C11.9901 19.8386 11.9911 19.8385 11.9922 19.8384C11.9932 19.8383 11.9942 19.8382 11.9954 19.8382C12.2597 19.8106 12.5297 19.7787 12.8077 19.7421H12.8104Z"/>
</mask>
<path d="M16.1053 8.93002L15.8053 8.92821V8.93002H16.1053ZM18.768 18.8859L18.5526 19.0946L18.5527 19.0948L18.768 18.8859ZM18.8625 19.2836L18.5756 19.1959L18.5755 19.1961L18.8625 19.2836ZM18.5651 19.5533L18.5128 19.2579L18.5122 19.258L18.5651 19.5533ZM14.966 20.1987L14.9131 19.9034L14.913 19.9034L14.966 20.1987ZM13.0997 20.4971L13.0587 20.1999L12.9007 20.2217L12.8304 20.3649L13.0997 20.4971ZM6.33654 20.4983L6.60578 20.366L6.53548 20.2229L6.37757 20.2011L6.33654 20.4983ZM4.46114 20.1987L4.4082 20.4939L4.40825 20.494L4.46114 20.1987ZM0.861662 19.5533L0.808496 19.8486L0.80872 19.8486L0.861662 19.5533ZM0.564329 19.2836L0.851504 19.1968L0.564329 19.2836ZM0.658763 18.8859L0.443325 18.6771L0.443085 18.6774L0.658763 18.8859ZM3.20165 8.92766L2.90165 8.92583V8.92766H3.20165ZM6.55954 3.72982L6.68904 4.00043L6.68925 4.00033L6.55954 3.72982ZM7.75267 3.28173L7.8336 3.57061L8.05267 3.50924V3.28173H7.75267ZM11.5452 3.24748H11.2452V3.4796L11.4699 3.53787L11.5452 3.24748ZM12.8703 3.72627L12.7416 3.99728L12.7417 3.9973L12.8703 3.72627ZM8.51225 3.11198H8.21225V3.46655L8.56192 3.40784L8.51225 3.11198ZM10.7878 3.09347L10.7436 3.3902L11.0878 3.44148V3.09347H10.7878ZM7.28681 20.617L7.31868 20.3187L6.65614 20.2479L7.04234 20.7909L7.28681 20.617ZM12.1549 20.6158L12.3994 20.7897L12.7859 20.2461L12.1227 20.3176L12.1549 20.6158ZM14.8356 19.4224L14.8885 19.7177L14.8885 19.7177L14.8356 19.4224ZM12.8104 19.7421V20.0421H12.8302L12.8498 20.0395L12.8104 19.7421ZM17.7391 18.9022L17.792 19.1975L18.3057 19.1055L17.9677 18.7079L17.7391 18.9022ZM15.3449 8.92825L15.0449 8.92642V8.92825H15.3449ZM12.5533 4.44269L12.6819 4.17168L12.6818 4.17162L12.5533 4.44269ZM11.1026 3.9509L11.1661 3.6577L11.1581 3.65595L11.1499 3.65465L11.1026 3.9509ZM11.0957 3.95118L11.1375 4.24825L11.1375 4.24825L11.0957 3.95118ZM11.0878 3.95129L11.1578 3.65946L11.1503 3.65786L11.0878 3.95129ZM8.21311 3.97807L8.2741 4.2719L8.28128 4.27022L8.21311 3.97807ZM8.20724 3.97866L8.22205 4.27829L8.22206 4.27829L8.20724 3.97866ZM8.20136 3.97925L8.14033 3.6854L8.13201 3.68737L8.20136 3.97925ZM6.87512 4.44505L6.74568 4.17441L6.74555 4.17447L6.87512 4.44505ZM3.9583 8.93021L3.6583 8.92841V8.93021H3.9583ZM1.6828 18.9014L1.45336 18.7082L1.1189 19.1052L1.62988 19.1967L1.6828 18.9014ZM4.58786 19.422L4.53494 19.7173L4.53503 19.7173L4.58786 19.422ZM6.62102 19.7425L6.58195 20.0399L6.6014 20.0425H6.62102V19.7425ZM6.62443 19.7425L6.66356 19.445L6.64408 19.4425H6.62443V19.7425ZM7.42996 19.8378L7.39907 20.1362L7.40258 20.1365L7.42996 19.8378ZM7.45575 19.8401L7.48678 19.5417L7.48313 19.5414L7.45575 19.8401ZM8.1475 19.9012L8.12521 20.2003L8.12532 20.2003L8.1475 19.9012ZM8.28936 19.911L8.31012 19.6117L8.30925 19.6116L8.28936 19.911ZM8.2901 19.911L8.26934 20.2103L8.26946 20.2103L8.2901 19.911ZM8.88363 19.9433L8.87099 20.243L8.87242 20.2431L8.88363 19.9433ZM8.94688 19.946L8.96084 19.6464L8.96082 19.6464L8.94688 19.946ZM9.0103 19.9488L8.99909 20.2486L9.00003 20.2486L9.0103 19.9488ZM10.4188 19.9484L10.4101 19.6485L10.4083 19.6486L10.4188 19.9484ZM10.4923 19.9454L10.5062 20.2451L10.5063 20.2451L10.4923 19.9454ZM10.541 19.9433L10.5526 20.2431L10.5528 20.2431L10.541 19.9433ZM11.144 19.9106L11.125 19.6112L11.1236 19.6113L11.144 19.9106ZM11.2756 19.9016L11.297 20.2008L11.2977 20.2007L11.2756 19.9016ZM11.9889 19.8386V19.5386H11.9734L11.9579 19.5402L11.9889 19.8386ZM11.9922 19.8384L11.9643 19.5397L11.9638 19.5397L11.9922 19.8384ZM11.9954 19.8382V20.1382H12.011L12.0265 20.1365L11.9954 19.8382ZM12.8077 19.7421V19.4421H12.7881L12.7686 19.4447L12.8077 19.7421ZM16.4053 12.4714V8.93002H15.8053V12.4714L16.4053 12.4714ZM18.9835 18.6772C17.2685 16.9069 16.4053 14.8227 16.4053 12.4714L15.8053 12.4714C15.8053 14.986 16.7344 17.218 18.5526 19.0946L18.9835 18.6772ZM19.1494 19.3713C19.2237 19.1283 19.1616 18.8606 18.9833 18.677L18.5527 19.0948C18.5763 19.1191 18.587 19.1585 18.5756 19.1959L19.1494 19.3713ZM18.6175 19.8487C18.8741 19.8032 19.0754 19.614 19.1494 19.3711L18.5755 19.1961C18.5639 19.2343 18.5361 19.2538 18.5128 19.2579L18.6175 19.8487ZM15.019 20.4939L18.6181 19.8486L18.5122 19.258L14.9131 19.9034L15.019 20.4939ZM13.1407 20.7943C13.7304 20.713 14.3488 20.6143 15.019 20.4939L14.913 19.9034C14.2498 20.0224 13.6395 20.1198 13.0587 20.1999L13.1407 20.7943ZM9.71795 23.0092C11.2638 23.0092 12.6623 22.069 13.369 20.6293L12.8304 20.3649C12.2143 21.62 11.0127 22.4092 9.71795 22.4092V23.0092ZM6.0673 20.6306C6.77441 22.0694 8.17246 23.0092 9.71795 23.0092V22.4092C8.4236 22.4092 7.22226 21.6204 6.60578 20.366L6.0673 20.6306ZM4.40825 20.494C5.08225 20.6147 5.70364 20.7138 6.29551 20.7955L6.37757 20.2011C5.79451 20.1206 5.18107 20.0228 4.51403 19.9034L4.40825 20.494ZM0.80872 19.8486L4.4082 20.4939L4.51408 19.9034L0.914605 19.258L0.80872 19.8486ZM0.277154 19.3704C0.351075 19.615 0.553625 19.8027 0.808496 19.8486L0.914829 19.2581C0.889812 19.2535 0.862535 19.2333 0.851504 19.1968L0.277154 19.3704ZM0.443085 18.6774C0.265587 18.861 0.2038 19.1276 0.277154 19.3704L0.851504 19.1968C0.839905 19.1584 0.850935 19.1187 0.87444 19.0944L0.443085 18.6774ZM2.90165 12.4714C2.90165 14.9119 2.07417 16.9942 0.443325 18.6771L0.8742 19.0947C2.61793 17.2953 3.50165 15.0613 3.50165 12.4714H2.90165ZM2.90165 8.92766V12.4714H3.50165V8.92766H2.90165ZM6.43004 3.45921C4.68876 4.29251 2.91766 6.29975 2.90165 8.92583L3.50164 8.92949C3.51597 6.57941 5.1096 4.75628 6.68904 4.00042L6.43004 3.45921ZM7.67174 2.99285C7.24947 3.11116 6.83374 3.26564 6.42983 3.45931L6.68925 4.00033C7.06053 3.8223 7.44351 3.6799 7.8336 3.57061L7.67174 2.99285ZM7.45267 3.02147V3.28173H8.05267V3.02147H7.45267ZM9.64892 0.752734C8.42714 0.752734 7.45267 1.78093 7.45267 3.02147H8.05267C8.05267 2.09089 8.77952 1.35273 9.64892 1.35273V0.752734ZM11.8452 3.02147C11.8452 1.78093 10.8707 0.752734 9.64892 0.752734V1.35273C10.5183 1.35273 11.2452 2.09089 11.2452 3.02147H11.8452ZM11.8452 3.24748V3.02147H11.2452V3.24748H11.8452ZM12.999 3.45526C12.5502 3.24224 12.0885 3.07846 11.6205 2.95708L11.4699 3.53787C11.9037 3.65038 12.3294 3.8016 12.7416 3.99728L12.999 3.45526ZM16.4053 8.93184C16.4225 6.08907 14.5807 4.20589 12.9989 3.45524L12.7417 3.9973C14.1651 4.6728 15.8208 6.37114 15.8053 8.92821L16.4053 8.93184ZM8.81225 3.02181C8.81225 2.52555 9.19892 2.14058 9.65004 2.14058V1.54058C8.84656 1.54058 8.21225 2.21557 8.21225 3.02181H8.81225ZM8.81225 3.11198V3.02181H8.21225V3.11198H8.81225ZM10.832 2.79675C10.0457 2.67959 9.2471 2.68441 8.46258 2.81612L8.56192 3.40784C9.28308 3.28677 10.0183 3.28213 10.7436 3.3902L10.832 2.79675ZM10.4878 3.02181V3.09347H11.0878V3.02181H10.4878ZM9.65004 2.14058C10.1012 2.14058 10.4878 2.52555 10.4878 3.02181H11.0878C11.0878 2.21557 10.4535 1.54058 9.65004 1.54058V2.14058ZM7.04234 20.7909C7.66957 21.6728 8.65458 22.2223 9.72047 22.2223V21.6223C8.86582 21.6223 8.05621 21.1812 7.53128 20.4431L7.04234 20.7909ZM9.7163 20.4533C8.93745 20.4533 8.15704 20.4083 7.31868 20.3187L7.25494 20.9153C8.11184 21.0069 8.91366 21.0533 9.7163 21.0533V20.4533ZM12.1227 20.3176C11.2812 20.4083 10.4982 20.4533 9.7163 20.4533V21.0533C10.5219 21.0533 11.3265 21.0069 12.187 20.9141L12.1227 20.3176ZM9.72047 22.2223C10.7864 22.2223 11.7718 21.6723 12.3994 20.7897L11.9104 20.442C11.385 21.1808 10.575 21.6223 9.72047 21.6223V22.2223ZM14.7827 19.1271C14.0584 19.2568 13.3959 19.3619 12.771 19.4447L12.8498 20.0395C13.4855 19.9553 14.1572 19.8486 14.8885 19.7177L14.7827 19.1271ZM17.6862 18.6069L14.7827 19.1271L14.8885 19.7177L17.792 19.1975L17.6862 18.6069ZM15.0449 12.472C15.0449 14.9205 15.8963 17.1979 17.5106 19.0965L17.9677 18.7079C16.4433 16.9148 15.6449 14.7744 15.6449 12.472H15.0449ZM15.0449 8.92825V12.472H15.6449V8.92825H15.0449ZM12.4246 4.71369C13.736 5.33632 15.0574 6.88337 15.0449 8.92642L15.6449 8.93007C15.659 6.6175 14.1687 4.87756 12.6819 4.17168L12.4246 4.71369ZM11.0391 4.2441C11.5122 4.34655 11.9772 4.50156 12.4247 4.71376L12.6818 4.17162C12.191 3.93888 11.6821 3.76944 11.1661 3.6577L11.0391 4.2441ZM11.1375 4.24825C11.1406 4.24781 11.1307 4.24935 11.1188 4.25013C11.1055 4.25101 11.0829 4.25156 11.0553 4.24715L11.1499 3.65465C11.12 3.64987 11.0951 3.6504 11.0795 3.65143C11.0716 3.65195 11.0651 3.65266 11.061 3.65316C11.0572 3.65363 11.0539 3.6541 11.0538 3.65412L11.1375 4.24825ZM11.0179 4.24303C11.0545 4.25179 11.0855 4.25221 11.1055 4.2513C11.1154 4.25084 11.1235 4.25 11.1286 4.24941C11.1333 4.24885 11.1375 4.24826 11.1375 4.24825L11.0538 3.65412C11.05 3.65465 11.0628 3.65262 11.078 3.65193C11.0954 3.65113 11.1238 3.65142 11.1578 3.65956L11.0179 4.24303ZM8.28128 4.27022C9.17309 4.06213 10.1229 4.05266 11.0254 4.24472L11.1503 3.65786C10.1618 3.44751 9.12284 3.45774 8.14494 3.68592L8.28128 4.27022ZM8.22206 4.27829C8.22206 4.27829 8.22877 4.278 8.23638 4.27733C8.24456 4.27661 8.25795 4.27516 8.27408 4.27181L8.15214 3.68433C8.16638 3.68137 8.17782 3.68016 8.18404 3.67962C8.18968 3.67912 8.1944 3.67893 8.19242 3.67903L8.22206 4.27829ZM8.26236 4.27298C8.24811 4.27594 8.23665 4.27715 8.23043 4.2777C8.22479 4.27819 8.22007 4.27839 8.22205 4.27829L8.19242 3.67902C8.19241 3.67903 8.1857 3.67932 8.17809 3.67999C8.1699 3.6807 8.1565 3.68216 8.14035 3.68552L8.26236 4.27298ZM7.00455 4.71569C7.41303 4.52033 7.8376 4.37402 8.2707 4.27113L8.13201 3.68737C7.66022 3.79946 7.19507 3.95949 6.74568 4.17441L7.00455 4.71569ZM4.2583 8.93202C4.27035 6.93136 5.64183 5.36822 7.00468 4.71563L6.74555 4.17447C5.22383 4.90314 3.67204 6.64905 3.65831 8.92841L4.2583 8.93202ZM4.2583 12.4716V8.93021H3.6583V12.4716H4.2583ZM1.91223 19.0947C3.47102 17.2444 4.2583 15.0155 4.2583 12.4716H3.6583C3.6583 14.8825 2.91569 16.9723 1.45336 18.7082L1.91223 19.0947ZM4.64077 19.1267L1.73571 18.6061L1.62988 19.1967L4.53494 19.7173L4.64077 19.1267ZM6.66008 19.445C6.0332 19.3627 5.36817 19.2568 4.64068 19.1267L4.53503 19.7173C5.26918 19.8486 5.94366 19.9561 6.58195 20.0399L6.66008 19.445ZM6.62443 19.4425H6.62102V20.0425H6.62443V19.4425ZM7.46085 19.5394C7.20153 19.5125 6.93655 19.481 6.66356 19.445L6.5853 20.0399C6.86298 20.0765 7.13351 20.1087 7.39907 20.1362L7.46085 19.5394ZM7.48313 19.5414L7.45734 19.539L7.40258 20.1365L7.42837 20.1389L7.48313 19.5414ZM8.1698 19.602C7.94485 19.5852 7.71801 19.5658 7.48678 19.5417L7.42472 20.1385C7.663 20.1633 7.89581 20.1832 8.12521 20.2003L8.1698 19.602ZM8.30925 19.6116C8.26191 19.6085 8.21589 19.6054 8.16969 19.602L8.12532 20.2003C8.17419 20.204 8.22249 20.2072 8.26947 20.2103L8.30925 19.6116ZM8.31086 19.6117L8.31012 19.6117L8.2686 20.2102L8.26934 20.2103L8.31086 19.6117ZM8.89627 19.6436C8.7021 19.6354 8.50727 19.6253 8.31074 19.6117L8.26946 20.2103C8.47266 20.2243 8.67301 20.2347 8.87099 20.243L8.89627 19.6436ZM8.96082 19.6464C8.93997 19.6454 8.91746 19.6444 8.89484 19.6435L8.87242 20.2431C8.89184 20.2438 8.91156 20.2447 8.93294 20.2457L8.96082 19.6464ZM9.0215 19.649C9.00204 19.6483 8.98224 19.6474 8.96084 19.6464L8.93292 20.2457C8.95386 20.2467 8.97641 20.2477 8.99909 20.2486L9.0215 19.649ZM10.4083 19.6486C9.94354 19.6649 9.48513 19.6649 9.02057 19.649L9.00003 20.2486C9.47828 20.265 9.95056 20.265 10.4293 20.2482L10.4083 19.6486ZM10.4785 19.6457C10.4535 19.6469 10.4315 19.6479 10.4101 19.6485L10.4276 20.2483C10.455 20.2475 10.4822 20.2462 10.5062 20.2451L10.4785 19.6457ZM10.5293 19.6435C10.5118 19.6442 10.4945 19.645 10.4784 19.6458L10.5063 20.2451C10.5227 20.2443 10.5378 20.2436 10.5526 20.2431L10.5293 19.6435ZM11.1236 19.6113C10.9233 19.6249 10.7255 19.6358 10.5291 19.6435L10.5528 20.2431C10.7554 20.2351 10.9588 20.2239 11.1643 20.2099L11.1236 19.6113ZM11.2541 19.6023C11.2099 19.6055 11.1672 19.6085 11.125 19.6112L11.1629 20.21C11.208 20.2072 11.2532 20.2039 11.297 20.2008L11.2541 19.6023ZM11.9579 19.5402C11.7189 19.565 11.4853 19.5852 11.2534 19.6024L11.2977 20.2007C11.5346 20.1832 11.7742 20.1625 12.02 20.1369L11.9579 19.5402ZM11.9638 19.5397C11.9629 19.5398 11.9661 19.5395 11.97 19.5392C11.9744 19.5389 11.9809 19.5386 11.9889 19.5386V20.1386C12.0062 20.1386 12.0205 20.137 12.0205 20.137L11.9638 19.5397ZM11.9954 19.5382C11.9862 19.5382 11.9786 19.5386 11.9733 19.5389C11.9706 19.5391 11.9684 19.5393 11.967 19.5394C11.9656 19.5395 11.9644 19.5396 11.9643 19.5397L12.02 20.1371C12.0211 20.137 12.018 20.1373 12.0142 20.1375C12.0099 20.1378 12.0034 20.1382 11.9954 20.1382V19.5382ZM12.7686 19.4447C12.4931 19.4809 12.2258 19.5125 11.9643 19.5398L12.0265 20.1365C12.2936 20.1087 12.5663 20.0765 12.8469 20.0395L12.7686 19.4447ZM12.8104 19.4421H12.8077V20.0421H12.8104V19.4421Z" fill="white" mask="url(#path-1-outside-1_109_5683)"/>
</svg>
