<svg width="10" height="6" viewBox="0 0 10 6" fill="none" xmlns="http://www.w3.org/2000/svg">
<path d="M8.58974 1.07195L8.58974 1.07195C8.87197 1.20002 8.99808 1.53251 8.86786 1.81522L8.86782 1.81532C8.73787 2.09687 8.40381 2.21966 8.12131 2.09143C6.77396 1.4799 5.11736 1.47855 3.78028 2.09121L3.78027 2.09121C3.07185 2.41577 1.8981 3.34451 1.88914 4.76775C1.88737 5.07773 1.63379 5.32485 1.32563 5.32485H1.32562H1.32562H1.32561H1.32561H1.3256H1.3256H1.32559H1.32559H1.32558H1.32558H1.32557H1.32557H1.32556H1.32556H1.32555H1.32555H1.32554H1.32554H1.32554H1.32553H1.32553H1.32552H1.32552H1.32551H1.32551H1.3255H1.3255H1.32549H1.32549H1.32548H1.32548H1.32547H1.32547H1.32546H1.32546H1.32545H1.32545H1.32544H1.32544H1.32543H1.32543H1.32542H1.32542H1.32541H1.32541H1.3254H1.3254H1.32539H1.32539H1.32538H1.32538H1.32538H1.32537H1.32537H1.32536H1.32536H1.32535H1.32535H1.32534H1.32534H1.32533H1.32533H1.32532H1.32532H1.32531H1.32531H1.3253H1.3253H1.32529H1.32529H1.32528H1.32528H1.32527H1.32527H1.32526H1.32526H1.32525H1.32525H1.32524H1.32524H1.32523H1.32523H1.32523H1.32522H1.32522H1.32521H1.32521H1.3252H1.3252H1.32519H1.32519H1.32518H1.32518H1.32517H1.32517H1.32516H1.32516H1.32515H1.32515H1.32514H1.32514H1.32513H1.32513H1.32512H1.32512H1.32511H1.32511H1.3251H1.3251H1.32509H1.32509H1.32508H1.32508H1.32507H1.32507H1.32507H1.32506H1.32506H1.32505H1.32505H1.32504H1.32504H1.32503H1.32503H1.32502H1.32502H1.32501H1.32501H1.325H1.325H1.32499H1.32499H1.32498H1.32498H1.32497H1.32497H1.32496H1.32496H1.32495H1.32495H1.32494H1.32494H1.32493H1.32493H1.32492H1.32492H1.32491H1.32491H1.32491H1.3249H1.3249H1.32489H1.32489H1.32488H1.32488H1.32487H1.32487H1.32486H1.32486H1.32485H1.32485H1.32484H1.32484H1.32483H1.32483H1.32482H1.32482H1.32481H1.32481H1.3248H1.3248H1.32479H1.32479H1.32478H1.32478H1.32477H1.32477H1.32476H1.32476H1.32476H1.32475H1.32475H1.32474H1.32474H1.32473H1.32473H1.32472H1.32472H1.32471H1.32471H1.3247H1.3247H1.32469H1.32469H1.32468H1.32468H1.32467H1.32467H1.32466H1.32466H1.32465H1.32465H1.32464H1.32464H1.32463H1.32463H1.32462H1.32462H1.32461H1.32461H1.3246H1.3246H1.3246H1.32459H1.32459H1.32458H1.32458H1.32457H1.32457H1.32456H1.32456H1.32455H1.32455H1.32454H1.32454H1.32453H1.32453H1.32452H1.32452H1.32451H1.32451H1.3245H1.3245H1.32449H1.32449H1.32448H1.32448H1.32447H1.32447H1.32446H1.32446H1.32445H1.32445H1.32444H1.32444H1.32444H1.32443H1.32443H1.32442H1.32442H1.32441H1.32441H1.3244H1.3244H1.32439H1.32439H1.32438H1.32438H1.32437H1.32437H1.32436H1.32436H1.32435H1.32435H1.32434H1.32434H1.32433H1.32433H1.32432H1.32432H1.32431H1.32431H1.3243H1.3243H1.32429H1.32429H1.32428H1.32428H1.32428H1.32427H1.32427H1.32426H1.32426H1.32425H1.32425H1.32424H1.32424H1.32423H1.32423H1.32422H1.32422H1.32421H1.32421H1.3242H1.3242H1.32419H1.32419H1.32418H1.32418H1.32417H1.32417H1.32416H1.32416H1.32415H1.32415H1.32414H1.32414H1.32413H1.32413H1.32413H1.32412H1.32412H1.32411H1.32411H1.3241H1.3241H1.32409H1.32409H1.32408H1.32408H1.32407H1.32407H1.32406H1.32406H1.32405H1.32405H1.32404H1.32404H1.32403H1.32403H1.32402H1.32402H1.32401H1.32401H1.324H1.324H1.32399H1.32399H1.32398H1.32398H1.32397H1.32397H1.32397H1.32396H1.32396H1.32395H1.32395H1.32394H1.32394H1.32393H1.32393H1.32392H1.32392H1.32391H1.32391H1.3239H1.3239H1.32389H1.32389H1.32388H1.32388H1.32387H1.32387H1.32386H1.32386H1.32385H1.32385H1.32384H1.32384H1.32383H1.32383H1.32382H1.32382H1.32381H1.32381H1.32381H1.3238H1.3238H1.32379H1.32379H1.32378H1.32378H1.32377H1.32377H1.32376H1.32376H1.32375H1.32375H1.32374H1.32374H1.32373H1.32373H1.32372H1.32372H1.32371H1.32371H1.3237H1.3237H1.32369H1.32369H1.32368H1.32368H1.32367H1.32367H1.32366H1.32366H1.32366H1.32365H1.32365H1.32364H1.32364H1.32363H1.32363H1.32362H1.32362H1.32361H1.32361H1.3236H1.3236H1.32359H1.32359H1.32358H1.32358H1.32357H1.32357H1.32356H1.32356H1.32355H1.32355H1.32354H1.32354H1.32353H1.32353H1.32352H1.32352H1.32351H1.32351H1.3235H1.3235H1.3235H1.32349H1.32349H1.32348H1.32348H1.32347H1.32347H1.32346H1.32346H1.32345H1.32345H1.32344H1.32344H1.32343H1.32343H1.32342H1.32342H1.32341H1.32341H1.3234H1.3234H1.32339H1.32339H1.32338H1.32338H1.32337H1.32337H1.32336H1.32336H1.32335H1.32335H1.32334H1.32334H1.32334H1.32333H1.32333H1.32332H1.32332H1.32331H1.32331H1.3233H1.3233H1.32329H1.32329H1.32328H1.32328H1.32327H1.32327H1.32326H1.32326H1.32325H1.32325H1.32324H1.32324H1.32323H1.32323H1.32322H1.32322H1.32321H1.32321H1.3232H1.3232H1.32319H1.32319H1.32318H1.32318H1.32318H1.32317H1.32317H1.32316H1.32316H1.32315H1.32315H1.32207L1.32207 5.32484C1.01172 5.32261 0.760419 5.07146 0.762118 4.76106L0.762119 4.76091C0.775071 2.75455 2.37779 1.4993 3.30924 1.07298L8.58974 1.07195ZM8.58974 1.07195C6.94817 0.327155 4.94068 0.3261 3.30926 1.07297L8.58974 1.07195Z" stroke="white" stroke-width="0.3"/>
</svg>
