<svg width="9" height="6" viewBox="0 0 9 6" fill="none" xmlns="http://www.w3.org/2000/svg">
<path d="M8.25575 0.967455L8.25576 0.967457C8.53799 1.09552 8.66409 1.42802 8.53388 1.71073L8.53383 1.71083C8.40389 1.99238 8.06982 2.11517 7.78732 1.98694C6.43997 1.37541 4.78337 1.37406 3.44629 1.98672L3.44628 1.98672C2.73786 2.31128 1.56412 3.24002 1.55515 4.66326C1.55338 4.97324 1.29981 5.22035 0.991643 5.22035H0.991638H0.991633H0.991628H0.991624H0.991619H0.991614H0.991609H0.991604H0.991599H0.991594H0.99159H0.991585H0.99158H0.991575H0.99157H0.991565H0.991561H0.991556H0.991551H0.991546H0.991541H0.991536H0.991531H0.991527H0.991522H0.991517H0.991512H0.991507H0.991502H0.991498H0.991493H0.991488H0.991483H0.991478H0.991473H0.991468H0.991464H0.991459H0.991454H0.991449H0.991444H0.991439H0.991435H0.99143H0.991425H0.99142H0.991415H0.99141H0.991405H0.991401H0.991396H0.991391H0.991386H0.991381H0.991376H0.991372H0.991367H0.991362H0.991357H0.991352H0.991347H0.991342H0.991338H0.991333H0.991328H0.991323H0.991318H0.991313H0.991309H0.991304H0.991299H0.991294H0.991289H0.991284H0.991279H0.991275H0.99127H0.991265H0.99126H0.991255H0.99125H0.991246H0.991241H0.991236H0.991231H0.991226H0.991221H0.991216H0.991212H0.991207H0.991202H0.991197H0.991192H0.991187H0.991183H0.991178H0.991173H0.991168H0.991163H0.991158H0.991153H0.991149H0.991144H0.991139H0.991134H0.991129H0.991124H0.99112H0.991115H0.99111H0.991105H0.9911H0.991095H0.99109H0.991086H0.991081H0.991076H0.991071H0.991066H0.991061H0.991057H0.991052H0.991047H0.991042H0.991037H0.991032H0.991027H0.991023H0.991018H0.991013H0.991008H0.991003H0.990998H0.990994H0.990989H0.990984H0.990979H0.990974H0.990969H0.990964H0.99096H0.990955H0.99095H0.990945H0.99094H0.990935H0.990931H0.990926H0.990921H0.990916H0.990911H0.990906H0.990901H0.990897H0.990892H0.990887H0.990882H0.990877H0.990872H0.990868H0.990863H0.990858H0.990853H0.990848H0.990843H0.990838H0.990834H0.990829H0.990824H0.990819H0.990814H0.990809H0.990805H0.9908H0.990795H0.99079H0.990785H0.99078H0.990775H0.990771H0.990766H0.990761H0.990756H0.990751H0.990746H0.990742H0.990737H0.990732H0.990727H0.990722H0.990717H0.990712H0.990708H0.990703H0.990698H0.990693H0.990688H0.990683H0.990679H0.990674H0.990669H0.990664H0.990659H0.990654H0.990649H0.990645H0.99064H0.990635H0.99063H0.990625H0.99062H0.990616H0.990611H0.990606H0.990601H0.990596H0.990591H0.990587H0.990582H0.990577H0.990572H0.990567H0.990562H0.990557H0.990553H0.990548H0.990543H0.990538H0.990533H0.990528H0.990524H0.990519H0.990514H0.990509H0.990504H0.990499H0.990494H0.99049H0.990485H0.99048H0.990475H0.99047H0.990465H0.990461H0.990456H0.990451H0.990446H0.990441H0.990436H0.990431H0.990427H0.990422H0.990417H0.990412H0.990407H0.990402H0.990398H0.990393H0.990388H0.990383H0.990378H0.990373H0.990368H0.990364H0.990359H0.990354H0.990349H0.990344H0.990339H0.990335H0.99033H0.990325H0.99032H0.990315H0.99031H0.990305H0.990301H0.990296H0.990291H0.990286H0.990281H0.990276H0.990272H0.990267H0.990262H0.990257H0.990252H0.990247H0.990242H0.990238H0.990233H0.990228H0.990223H0.990218H0.990213H0.990209H0.990204H0.990199H0.990194H0.990189H0.990184H0.990179H0.990175H0.99017H0.990165H0.99016H0.990155H0.99015H0.990146H0.990141H0.990136H0.990131H0.990126H0.990121H0.990116H0.990112H0.990107H0.990102H0.990097H0.990092H0.990087H0.990083H0.990078H0.990073H0.990068H0.990063H0.990058H0.990053H0.990049H0.990044H0.990039H0.990034H0.990029H0.990024H0.99002H0.990015H0.99001H0.990005H0.99H0.989995H0.98999H0.989986H0.989981H0.989976H0.989971H0.989966H0.989961H0.989957H0.989952H0.989947H0.989942H0.989937H0.989932H0.989927H0.989923H0.989918H0.989913H0.989908H0.989903H0.989898H0.989894H0.989889H0.989884H0.989879H0.989874H0.989869H0.989864H0.98986H0.989855H0.98985H0.989845H0.98984H0.989835H0.989831H0.989826H0.989821H0.989816H0.989811H0.989806H0.989801H0.989797H0.989792H0.989787H0.989782H0.989777H0.989772H0.989768H0.989763H0.989758H0.989753H0.989748H0.989743H0.989738H0.989734H0.989729H0.989724H0.989719H0.989714H0.989709H0.989705H0.9897H0.989695H0.98969H0.989685H0.98968H0.989675H0.989671H0.989666H0.989661H0.989656H0.989651H0.989646H0.989642H0.989637H0.989632H0.989627H0.989622H0.989617H0.989612H0.989608H0.989603H0.989598H0.989593H0.989588H0.989583H0.989579H0.989574H0.989569H0.989564H0.989559H0.989554H0.989549H0.989545H0.98954H0.989535H0.98953H0.989525H0.98952H0.989516H0.989511H0.989506H0.989501H0.989496H0.989491H0.989486H0.989482H0.989477H0.989472H0.989467H0.989462H0.989457H0.989453H0.989448H0.989443H0.989438H0.989433H0.989428H0.989424H0.989419H0.989414H0.989409H0.989404H0.989399H0.989394H0.98939H0.989385H0.98938H0.989375H0.98937H0.989365H0.989361H0.989356H0.989351H0.989346H0.989341H0.989336H0.989331H0.989327H0.989322H0.989317H0.989312H0.989307H0.989302H0.989298H0.989293H0.989288H0.989283H0.989278H0.989273H0.989268H0.989264H0.989259H0.989254H0.989249H0.989244H0.989239H0.989235H0.98923H0.989225H0.98922H0.989215H0.98921H0.989205H0.989201H0.989196H0.989191H0.989186H0.989181H0.989176H0.989172H0.989167H0.989162H0.988085L0.988085 5.22035C0.677735 5.21812 0.426434 4.96696 0.428133 4.65656L0.428134 4.65642C0.441087 2.65006 2.04381 1.39481 2.97526 0.968487L8.25575 0.967455ZM8.25575 0.967455C6.61419 0.222663 4.6067 0.221608 2.97527 0.968481L8.25575 0.967455Z" stroke="white" stroke-width="0.3"/>
</svg>
