<svg width="20" height="23" viewBox="0 0 20 23" fill="none" xmlns="http://www.w3.org/2000/svg">
<mask id="path-1-outside-1_78_3931" maskUnits="userSpaceOnUse" x="0.210937" y="-0.0507813" width="20" height="23" fill="black">
<rect fill="white" x="0.210937" y="-0.0507813" width="20" height="23"/>
<path fill-rule="evenodd" clip-rule="evenodd" d="M16.7694 8.82651V12.3679C16.7694 14.8008 17.6655 16.9589 19.4321 18.7824C19.533 18.8863 19.5694 19.0399 19.5265 19.1801C19.4837 19.3206 19.3691 19.425 19.2292 19.4498L15.6301 20.0951C14.9634 20.2148 14.349 20.3129 13.7638 20.3936C13.1024 21.741 11.8023 22.6057 10.382 22.6057C8.96209 22.6057 7.6624 21.7414 7.0006 20.3948C6.41314 20.3137 5.79572 20.2152 5.1252 20.0951L1.52572 19.4498C1.38578 19.4246 1.27087 19.3206 1.22839 19.1801C1.18592 19.0395 1.22232 18.8863 1.32283 18.7824C3.01012 17.0412 3.86571 14.8831 3.86571 12.3679V8.82415C3.88088 6.33606 5.56324 4.42088 7.2236 3.6263C7.6112 3.44045 8.01055 3.29201 8.41673 3.17822V2.91795C8.41673 1.83239 9.26739 0.949219 10.313 0.949219C11.3586 0.949219 12.2092 1.83239 12.2092 2.91795V3.14396C12.6602 3.2609 13.1039 3.4184 13.5344 3.62276C15.0369 4.33583 16.7857 6.12659 16.7694 8.82651ZM10.3141 1.73706C9.6868 1.73706 9.17631 2.26704 9.17631 2.9183V3.00846C9.92915 2.88207 10.696 2.87735 11.4519 2.98996V2.9183C11.4519 2.26704 10.9414 1.73706 10.3141 1.73706ZM10.3845 21.8188C9.42426 21.8188 8.52696 21.3234 7.95087 20.5135C8.7985 20.6041 9.58962 20.6497 10.3804 20.6497C11.1741 20.6497 11.9679 20.6041 12.8189 20.5123C12.2425 21.3231 11.3448 21.8188 10.3845 21.8188ZM13.4745 19.6386C14.1048 19.5551 14.7719 19.4492 15.4997 19.3189L18.4032 18.7987C16.8339 16.9528 16.009 14.7439 16.009 12.3684V8.82473C16.0223 6.64692 14.6164 5.00342 13.2173 4.33917C12.7482 4.11671 12.2612 3.95448 11.7667 3.84738C11.7644 3.84701 11.762 3.84734 11.7597 3.84767C11.7571 3.84804 11.7545 3.8484 11.7519 3.84778C10.8064 3.64657 9.81203 3.65642 8.87718 3.87455C8.87528 3.87495 8.87329 3.87504 8.8713 3.87514C8.86931 3.87524 8.86732 3.87534 8.86542 3.87573C8.41297 3.98323 7.96811 4.13639 7.53918 4.34154C6.09689 5.03217 4.63526 6.68669 4.62236 8.8267V12.3681C4.62236 14.8455 3.85741 17.0048 2.34686 18.7979L5.25192 19.3185C5.98274 19.4492 6.65249 19.5559 7.28508 19.639H7.28849C7.56383 19.6752 7.83158 19.7071 8.09402 19.7343L8.11981 19.7366C8.35457 19.761 8.58439 19.7807 8.81156 19.7976C8.8591 19.8012 8.90626 19.8043 8.95342 19.8074L8.95416 19.8075C9.15403 19.8213 9.35162 19.8315 9.54769 19.8398C9.56871 19.8406 9.58983 19.8415 9.61094 19.8425C9.63211 19.8435 9.65329 19.8445 9.67436 19.8453C10.1458 19.8614 10.6111 19.8614 11.0829 19.8449C11.1073 19.8442 11.1319 19.843 11.1564 19.8419C11.1726 19.8412 11.1889 19.8404 11.205 19.8398C11.4045 19.8319 11.6051 19.8209 11.808 19.8071C11.8516 19.8043 11.8956 19.8012 11.9396 19.798C12.174 19.7807 12.4107 19.7602 12.653 19.735C12.6541 19.735 12.6552 19.7349 12.6562 19.7348C12.6573 19.7347 12.6583 19.7346 12.6594 19.7346C12.9238 19.7071 13.1938 19.6752 13.4718 19.6386H13.4745Z"/>
</mask>
<path d="M16.7694 8.82651L16.4694 8.8247V8.82651H16.7694ZM19.4321 18.7824L19.2166 18.9911L19.2168 18.9913L19.4321 18.7824ZM19.5265 19.1801L19.2396 19.0924L19.2396 19.0926L19.5265 19.1801ZM19.2292 19.4498L19.1768 19.1544L19.1762 19.1545L19.2292 19.4498ZM15.6301 20.0951L15.5771 19.7998L15.5771 19.7999L15.6301 20.0951ZM13.7638 20.3936L13.7228 20.0964L13.5648 20.1182L13.4945 20.2614L13.7638 20.3936ZM7.0006 20.3948L7.26985 20.2625L7.19954 20.1194L7.04164 20.0976L7.0006 20.3948ZM5.1252 20.0951L5.07226 20.3904L5.07231 20.3904L5.1252 20.0951ZM1.52572 19.4498L1.47256 19.745L1.47278 19.7451L1.52572 19.4498ZM1.22839 19.1801L1.51557 19.0933L1.22839 19.1801ZM1.32283 18.7824L1.10739 18.5736L1.10715 18.5739L1.32283 18.7824ZM3.86571 8.82415L3.56571 8.82232V8.82415H3.86571ZM7.2236 3.6263L7.35311 3.89691L7.35331 3.89681L7.2236 3.6263ZM8.41673 3.17822L8.49766 3.46709L8.71673 3.40572V3.17822H8.41673ZM12.2092 3.14396H11.9092V3.37608L12.1339 3.43435L12.2092 3.14396ZM13.5344 3.62276L13.4057 3.89377L13.4057 3.89379L13.5344 3.62276ZM9.17631 3.00846H8.87631V3.36303L9.22599 3.30432L9.17631 3.00846ZM11.4519 2.98996L11.4077 3.28668L11.7519 3.33796V2.98996H11.4519ZM7.95087 20.5135L7.98274 20.2152L7.3202 20.1444L7.7064 20.6874L7.95087 20.5135ZM12.8189 20.5123L13.0634 20.6862L13.45 20.1426L12.7868 20.2141L12.8189 20.5123ZM15.4997 19.3189L15.5525 19.6142L15.5525 19.6142L15.4997 19.3189ZM13.4745 19.6386V19.9386H13.4942L13.5138 19.936L13.4745 19.6386ZM18.4032 18.7987L18.4561 19.094L18.9698 19.002L18.6318 18.6044L18.4032 18.7987ZM16.009 8.82473L15.709 8.8229V8.82473H16.009ZM13.2173 4.33917L13.346 4.06817L13.3459 4.06811L13.2173 4.33917ZM11.7667 3.84738L11.8302 3.55418L11.8221 3.55244L11.814 3.55114L11.7667 3.84738ZM11.7597 3.84767L11.8016 4.14473L11.8016 4.14473L11.7597 3.84767ZM11.7519 3.84778L11.8218 3.55595L11.8143 3.55435L11.7519 3.84778ZM8.87718 3.87455L8.93817 4.16838L8.94535 4.1667L8.87718 3.87455ZM8.8713 3.87514L8.88611 4.17478L8.88612 4.17478L8.8713 3.87514ZM8.86542 3.87573L8.80439 3.58188L8.79607 3.58386L8.86542 3.87573ZM7.53918 4.34154L7.40974 4.0709L7.40961 4.07096L7.53918 4.34154ZM4.62236 8.8267L4.32236 8.82489V8.8267H4.62236ZM2.34686 18.7979L2.11742 18.6046L1.78296 19.0017L2.29395 19.0932L2.34686 18.7979ZM5.25192 19.3185L5.19901 19.6138L5.1991 19.6138L5.25192 19.3185ZM7.28508 19.639L7.24602 19.9364L7.26547 19.939H7.28508V19.639ZM7.28849 19.639L7.32763 19.3415L7.30814 19.339H7.28849V19.639ZM8.09402 19.7343L8.06313 20.0327L8.06665 20.033L8.09402 19.7343ZM8.11981 19.7366L8.15084 19.4382L8.14719 19.4379L8.11981 19.7366ZM8.81156 19.7976L8.78927 20.0968L8.78938 20.0968L8.81156 19.7976ZM8.95342 19.8074L8.97418 19.5082L8.97331 19.5081L8.95342 19.8074ZM8.95416 19.8075L8.9334 20.1068L8.93353 20.1068L8.95416 19.8075ZM9.54769 19.8398L9.53505 20.1395L9.53648 20.1396L9.54769 19.8398ZM9.61094 19.8425L9.6249 19.5429L9.62488 19.5429L9.61094 19.8425ZM9.67436 19.8453L9.66315 20.1451L9.66409 20.1451L9.67436 19.8453ZM11.0829 19.8449L11.0742 19.545L11.0724 19.5451L11.0829 19.8449ZM11.1564 19.8419L11.1703 20.1416L11.1703 20.1416L11.1564 19.8419ZM11.205 19.8398L11.2167 20.1396L11.2169 20.1395L11.205 19.8398ZM11.808 19.8071L11.7891 19.5077L11.7877 19.5078L11.808 19.8071ZM11.9396 19.798L11.9611 20.0973L11.9617 20.0972L11.9396 19.798ZM12.653 19.735V19.435H12.6374L12.622 19.4366L12.653 19.735ZM12.6562 19.7348L12.6284 19.4361L12.6278 19.4362L12.6562 19.7348ZM12.6594 19.7346V20.0346H12.675L12.6906 20.033L12.6594 19.7346ZM13.4718 19.6386V19.3386H13.4521L13.4326 19.3411L13.4718 19.6386ZM17.0694 12.3679V8.82651H16.4694V12.3679H17.0694ZM19.6476 18.5736C17.9326 16.8034 17.0694 14.7192 17.0694 12.3679H16.4694C16.4694 14.8825 17.3985 17.1145 19.2166 18.9911L19.6476 18.5736ZM19.8134 19.2678C19.8877 19.0248 19.8256 18.7571 19.6474 18.5735L19.2168 18.9913C19.2403 19.0155 19.2511 19.055 19.2396 19.0924L19.8134 19.2678ZM19.2816 19.7452C19.5381 19.6997 19.7394 19.5105 19.8135 19.2676L19.2396 19.0926C19.2279 19.1308 19.2001 19.1503 19.1768 19.1544L19.2816 19.7452ZM15.683 20.3904L19.2821 19.7451L19.1762 19.1545L15.5771 19.7998L15.683 20.3904ZM13.8048 20.6908C14.3944 20.6094 15.0129 20.5107 15.6831 20.3904L15.5771 19.7999C14.9139 19.9189 14.3035 20.0163 13.7228 20.0964L13.8048 20.6908ZM10.382 22.9057C11.9279 22.9057 13.3264 21.9655 14.0331 20.5258L13.4945 20.2614C12.8784 21.5165 11.6767 22.3057 10.382 22.3057V22.9057ZM6.73136 20.5271C7.43847 21.9659 8.83653 22.9057 10.382 22.9057V22.3057C9.08766 22.3057 7.88633 21.5169 7.26985 20.2625L6.73136 20.5271ZM5.07231 20.3904C5.74631 20.5112 6.36771 20.6102 6.95957 20.692L7.04164 20.0976C6.45858 20.0171 5.84513 19.9193 5.17809 19.7998L5.07231 20.3904ZM1.47278 19.7451L5.07226 20.3904L5.17815 19.7998L1.57867 19.1545L1.47278 19.7451ZM0.941216 19.2668C1.01514 19.5115 1.21769 19.6991 1.47256 19.745L1.57889 19.1545C1.55387 19.15 1.5266 19.1298 1.51557 19.0933L0.941216 19.2668ZM1.10715 18.5739C0.929649 18.7574 0.867863 19.0241 0.941216 19.2668L1.51557 19.0933C1.50397 19.0549 1.515 19.0152 1.5385 18.9909L1.10715 18.5739ZM3.56571 12.3679C3.56571 14.8084 2.73824 16.8907 1.10739 18.5736L1.53826 18.9912C3.282 17.1918 4.16571 14.9578 4.16571 12.3679H3.56571ZM3.56571 8.82415V12.3679H4.16571V8.82415H3.56571ZM7.0941 3.35569C5.35282 4.189 3.58172 6.19623 3.56571 8.82232L4.1657 8.82597C4.18003 6.47589 5.77366 4.65277 7.35311 3.89691L7.0941 3.35569ZM8.3358 2.88934C7.91353 3.00764 7.4978 3.16212 7.0939 3.35579L7.35331 3.89681C7.72459 3.71878 8.10757 3.57638 8.49766 3.46709L8.3358 2.88934ZM8.11673 2.91795V3.17822H8.71673V2.91795H8.11673ZM10.313 0.649219C9.0912 0.649219 8.11673 1.67741 8.11673 2.91795H8.71673C8.71673 1.98737 9.44358 1.24922 10.313 1.24922V0.649219ZM12.5092 2.91795C12.5092 1.67741 11.5348 0.649219 10.313 0.649219V1.24922C11.1824 1.24922 11.9092 1.98737 11.9092 2.91795H12.5092ZM12.5092 3.14396V2.91795H11.9092V3.14396H12.5092ZM13.663 3.35175C13.2143 3.13872 12.7526 2.97494 12.2846 2.85357L12.1339 3.43435C12.5678 3.54686 12.9935 3.69808 13.4057 3.89377L13.663 3.35175ZM17.0694 8.82832C17.0865 5.98555 15.2447 4.10238 13.663 3.35173L13.4057 3.89379C14.8291 4.56928 16.4848 6.26763 16.4694 8.8247L17.0694 8.82832ZM9.47631 2.9183C9.47631 2.42203 9.86298 2.03706 10.3141 2.03706V1.43706C9.51062 1.43706 8.87631 2.11205 8.87631 2.9183H9.47631ZM9.47631 3.00846V2.9183H8.87631V3.00846H9.47631ZM11.4961 2.69323C10.7097 2.57608 9.91116 2.58089 9.12664 2.71261L9.22599 3.30432C9.94714 3.18325 10.6823 3.17862 11.4077 3.28668L11.4961 2.69323ZM11.1519 2.9183V2.98996H11.7519V2.9183H11.1519ZM10.3141 2.03706C10.7652 2.03706 11.1519 2.42203 11.1519 2.9183H11.7519C11.7519 2.11205 11.1176 1.43706 10.3141 1.43706V2.03706ZM7.7064 20.6874C8.33364 21.5692 9.31865 22.1188 10.3845 22.1188V21.5188C9.52988 21.5188 8.72027 21.0777 8.19534 20.3396L7.7064 20.6874ZM10.3804 20.3497C9.60151 20.3497 8.8211 20.3048 7.98274 20.2152L7.919 20.8118C8.7759 20.9034 9.57773 20.9497 10.3804 20.9497V20.3497ZM12.7868 20.2141C11.9453 20.3048 11.1623 20.3497 10.3804 20.3497V20.9497C11.186 20.9497 11.9906 20.9034 12.8511 20.8106L12.7868 20.2141ZM10.3845 22.1188C11.4505 22.1188 12.4359 21.5688 13.0634 20.6862L12.5745 20.3385C12.0491 21.0773 11.2391 21.5188 10.3845 21.5188V22.1188ZM15.4468 19.0236C14.7225 19.1533 14.06 19.2584 13.4351 19.3412L13.5138 19.936C14.1496 19.8518 14.8212 19.7451 15.5525 19.6142L15.4468 19.0236ZM18.3503 18.5034L15.4468 19.0236L15.5525 19.6142L18.4561 19.094L18.3503 18.5034ZM15.709 12.3684C15.709 14.817 16.5604 17.0943 18.1746 18.993L18.6318 18.6044C17.1073 16.8113 16.309 14.6709 16.309 12.3684H15.709ZM15.709 8.82473V12.3684H16.309V8.82473H15.709ZM13.0886 4.61018C14.4 5.2328 15.7214 6.77985 15.709 8.8229L16.309 8.82656C16.3231 6.51399 14.8327 4.77404 13.346 4.06817L13.0886 4.61018ZM11.7032 4.14059C12.1763 4.24304 12.6413 4.39805 13.0888 4.61024L13.3459 4.06811C12.8551 3.83537 12.3462 3.66593 11.8302 3.55418L11.7032 4.14059ZM11.8016 4.14473C11.8047 4.1443 11.7947 4.14584 11.7829 4.14662C11.7696 4.14749 11.747 4.14804 11.7194 4.14363L11.814 3.55114C11.784 3.54636 11.7592 3.54688 11.7435 3.54791C11.7356 3.54843 11.7292 3.54915 11.7251 3.54965C11.7213 3.55011 11.718 3.55059 11.7178 3.55061L11.8016 4.14473ZM11.682 4.13952C11.7185 4.14828 11.7496 4.1487 11.7695 4.14778C11.7795 4.14733 11.7876 4.14649 11.7927 4.14589C11.7974 4.14534 11.8015 4.14474 11.8016 4.14473L11.7179 3.5506C11.7141 3.55113 11.7269 3.54911 11.7421 3.54841C11.7594 3.54761 11.7879 3.5479 11.8218 3.55604L11.682 4.13952ZM8.94535 4.1667C9.83716 3.95861 10.787 3.94915 11.6895 4.14121L11.8143 3.55435C10.8259 3.344 9.7869 3.35422 8.80901 3.5824L8.94535 4.1667ZM8.88612 4.17478C8.88613 4.17478 8.89283 4.17448 8.90044 4.17382C8.90863 4.1731 8.92201 4.17164 8.93815 4.16829L8.81621 3.58081C8.83045 3.57786 8.84189 3.57665 8.8481 3.5761C8.85374 3.57561 8.85846 3.57541 8.85648 3.57551L8.88612 4.17478ZM8.92643 4.16947C8.91217 4.17243 8.90072 4.17364 8.8945 4.17418C8.88885 4.17468 8.88413 4.17488 8.88611 4.17478L8.85648 3.57551C8.85647 3.57551 8.84976 3.57581 8.84215 3.57647C8.83396 3.57719 8.82057 3.57865 8.80441 3.582L8.92643 4.16947ZM7.66862 4.61218C8.07709 4.41682 8.50167 4.27051 8.93476 4.16761L8.79607 3.58386C8.32428 3.69595 7.85913 3.85597 7.40974 4.0709L7.66862 4.61218ZM4.92236 8.82851C4.93441 6.82785 6.30589 5.26471 7.66874 4.61211L7.40961 4.07096C5.88789 4.79962 4.3361 6.54553 4.32237 8.82489L4.92236 8.82851ZM4.92236 12.3681V8.8267H4.32236V12.3681H4.92236ZM2.5763 18.9912C4.13508 17.1408 4.92236 14.912 4.92236 12.3681H4.32236C4.32236 14.779 3.57975 16.8688 2.11742 18.6046L2.5763 18.9912ZM5.30483 19.0232L2.39977 18.5026L2.29395 19.0932L5.19901 19.6138L5.30483 19.0232ZM7.32415 19.3415C6.69726 19.2592 6.03223 19.1533 5.30474 19.0231L5.1991 19.6138C5.93324 19.7451 6.60772 19.8526 7.24602 19.9364L7.32415 19.3415ZM7.28849 19.339H7.28508V19.939H7.28849V19.339ZM8.12491 19.4359C7.86559 19.409 7.60062 19.3774 7.32763 19.3415L7.24936 19.9364C7.52704 19.9729 7.79757 20.0052 8.06313 20.0327L8.12491 19.4359ZM8.14719 19.4379L8.1214 19.4355L8.06665 20.033L8.09244 20.0354L8.14719 19.4379ZM8.83386 19.4985C8.60891 19.4817 8.38207 19.4623 8.15084 19.4382L8.08878 20.035C8.32706 20.0598 8.55987 20.0797 8.78927 20.0968L8.83386 19.4985ZM8.97331 19.5081C8.92597 19.505 8.87995 19.5019 8.83375 19.4985L8.78938 20.0968C8.83825 20.1005 8.88656 20.1037 8.93353 20.1068L8.97331 19.5081ZM8.97492 19.5082L8.97418 19.5082L8.93266 20.1067L8.9334 20.1068L8.97492 19.5082ZM9.56033 19.54C9.36616 19.5319 9.17133 19.5218 8.9748 19.5082L8.93353 20.1068C9.13672 20.1208 9.33708 20.1312 9.53505 20.1395L9.56033 19.54ZM9.62488 19.5429C9.60403 19.5419 9.58153 19.5408 9.5589 19.54L9.53648 20.1396C9.5559 20.1403 9.57563 20.1412 9.597 20.1422L9.62488 19.5429ZM9.68557 19.5455C9.6661 19.5448 9.64631 19.5439 9.6249 19.5429L9.59699 20.1422C9.61792 20.1432 9.64047 20.1442 9.66315 20.1451L9.68557 19.5455ZM11.0724 19.5451C10.6076 19.5614 10.1492 19.5614 9.68463 19.5455L9.66409 20.1451C10.1423 20.1615 10.6146 20.1615 11.0934 20.1447L11.0724 19.5451ZM11.1425 19.5422C11.1175 19.5434 11.0956 19.5444 11.0742 19.545L11.0916 20.1448C11.1191 20.144 11.1462 20.1427 11.1703 20.1416L11.1425 19.5422ZM11.1934 19.54C11.1759 19.5407 11.1586 19.5415 11.1425 19.5422L11.1703 20.1416C11.1867 20.1408 11.2018 20.1401 11.2167 20.1396L11.1934 19.54ZM11.7877 19.5078C11.5873 19.5214 11.3896 19.5323 11.1932 19.54L11.2169 20.1395C11.4194 20.1315 11.6229 20.1204 11.8284 20.1064L11.7877 19.5078ZM11.9182 19.4988C11.874 19.502 11.8313 19.505 11.7891 19.5077L11.8269 20.1065C11.872 20.1037 11.9173 20.1004 11.9611 20.0973L11.9182 19.4988ZM12.622 19.4366C12.383 19.4615 12.1493 19.4817 11.9175 19.4989L11.9617 20.0972C12.1987 20.0797 12.4383 20.059 12.684 20.0334L12.622 19.4366ZM12.6278 19.4362C12.627 19.4363 12.6301 19.436 12.634 19.4357C12.6384 19.4354 12.645 19.435 12.653 19.435V20.035C12.6702 20.035 12.6846 20.0335 12.6846 20.0335L12.6278 19.4362ZM12.6594 19.4347C12.6503 19.4347 12.6427 19.435 12.6373 19.4354C12.6347 19.4356 12.6325 19.4358 12.631 19.4359C12.6297 19.436 12.6285 19.4361 12.6284 19.4361L12.6841 20.0335C12.6851 20.0334 12.682 20.0338 12.6783 20.034C12.674 20.0343 12.6674 20.0346 12.6594 20.0346V19.4347ZM13.4326 19.3411C13.1572 19.3774 12.8899 19.409 12.6283 19.4363L12.6906 20.033C12.9577 20.0052 13.2304 19.973 13.511 19.936L13.4326 19.3411ZM13.4745 19.3386H13.4718V19.9386H13.4745V19.3386Z" fill="white" mask="url(#path-1-outside-1_78_3931)"/>
</svg>
