<svg width="20" height="23" viewBox="0 0 20 23" fill="none" xmlns="http://www.w3.org/2000/svg">
<mask id="path-1-outside-1_129_5343" maskUnits="userSpaceOnUse" x="-0.576172" y="-0.0507813" width="20" height="23" fill="black">
<rect fill="white" x="-0.576172" y="-0.0507813" width="20" height="23"/>
<path fill-rule="evenodd" clip-rule="evenodd" d="M15.9823 8.82651V12.3679C15.9823 14.8008 16.8784 16.9589 18.645 18.7824C18.7459 18.8863 18.7823 19.0399 18.7394 19.1801C18.6966 19.3206 18.582 19.425 18.4421 19.4498L14.843 20.0951C14.1763 20.2148 13.5619 20.3129 12.9767 20.3936C12.3153 21.741 11.0152 22.6057 9.5949 22.6057C8.17498 22.6057 6.87529 21.7414 6.21349 20.3948C5.62603 20.3137 5.00861 20.2152 4.33809 20.0951L0.738615 19.4498C0.598672 19.4246 0.483758 19.3206 0.441282 19.1801C0.398806 19.0395 0.435214 18.8863 0.535716 18.7824C2.22301 17.0412 3.0786 14.8831 3.0786 12.3679V8.82415C3.09377 6.33606 4.77613 4.42088 6.43649 3.6263C6.82409 3.44045 7.22344 3.29201 7.62962 3.17822V2.91795C7.62962 1.83239 8.48028 0.949219 9.52588 0.949219C10.5715 0.949219 11.4221 1.83239 11.4221 2.91795V3.14396C11.8731 3.2609 12.3168 3.4184 12.7472 3.62276C14.2498 4.33583 15.9986 6.12659 15.9823 8.82651ZM9.52699 1.73706C8.89969 1.73706 8.38921 2.26704 8.38921 2.9183V3.00846C9.14204 2.88207 9.90891 2.87735 10.6648 2.98996V2.9183C10.6648 2.26704 10.1543 1.73706 9.52699 1.73706ZM9.59742 21.8188C8.63716 21.8188 7.73985 21.3234 7.16376 20.5135C8.01139 20.6041 8.80251 20.6497 9.59325 20.6497C10.387 20.6497 11.1808 20.6041 12.0318 20.5123C11.4554 21.3231 10.5577 21.8188 9.59742 21.8188ZM12.6873 19.6386C13.3177 19.5551 13.9848 19.4492 14.7125 19.3189L17.6161 18.7987C16.0467 16.9528 15.2219 14.7439 15.2219 12.3684V8.82473C15.2351 6.64692 13.8293 5.00342 12.4302 4.33917C11.9611 4.11671 11.4741 3.95448 10.9796 3.84738C10.9773 3.84701 10.9749 3.84734 10.9726 3.84767C10.97 3.84804 10.9674 3.8484 10.9648 3.84778C10.0193 3.64657 9.02492 3.65642 8.09007 3.87455C8.08817 3.87495 8.08618 3.87504 8.08419 3.87514C8.0822 3.87524 8.08021 3.87534 8.07831 3.87573C7.62586 3.98323 7.181 4.13639 6.75207 4.34154C5.30978 5.03217 3.84815 6.68669 3.83525 8.8267V12.3681C3.83525 14.8455 3.07031 17.0048 1.55975 18.7979L4.46481 19.3185C5.19563 19.4492 5.86538 19.5559 6.49797 19.639H6.50139C6.77672 19.6752 7.04447 19.7071 7.30691 19.7343L7.3327 19.7366C7.56746 19.761 7.79728 19.7807 8.02446 19.7976C8.07199 19.8012 8.11915 19.8043 8.16631 19.8074L8.16705 19.8075C8.36692 19.8213 8.56451 19.8315 8.76058 19.8398C8.7816 19.8406 8.80272 19.8415 8.82384 19.8425C8.84501 19.8435 8.86618 19.8445 8.88725 19.8453C9.35866 19.8614 9.824 19.8614 10.2958 19.8449C10.3202 19.8442 10.3448 19.843 10.3693 19.8419C10.3855 19.8412 10.4017 19.8404 10.4179 19.8398C10.6174 19.8319 10.818 19.8209 11.0209 19.8071C11.0645 19.8043 11.1085 19.8012 11.1525 19.798C11.3869 19.7807 11.6235 19.7602 11.8659 19.735C11.867 19.735 11.8681 19.7349 11.8691 19.7348C11.8702 19.7347 11.8712 19.7346 11.8723 19.7346C12.1367 19.7071 12.4067 19.6752 12.6847 19.6386H12.6873Z"/>
</mask>
<path d="M15.9823 8.82651L15.6823 8.8247V8.82651H15.9823ZM18.645 18.7824L18.4295 18.9911L18.4297 18.9913L18.645 18.7824ZM18.7394 19.1801L18.4525 19.0924L18.4525 19.0926L18.7394 19.1801ZM18.4421 19.4498L18.3897 19.1544L18.3891 19.1545L18.4421 19.4498ZM14.843 20.0951L14.79 19.7998L14.79 19.7999L14.843 20.0951ZM12.9767 20.3936L12.9357 20.0964L12.7777 20.1182L12.7074 20.2614L12.9767 20.3936ZM6.21349 20.3948L6.48274 20.2625L6.41243 20.1194L6.25453 20.0976L6.21349 20.3948ZM4.33809 20.0951L4.28515 20.3904L4.2852 20.3904L4.33809 20.0951ZM0.738615 19.4498L0.685449 19.745L0.685673 19.7451L0.738615 19.4498ZM0.441282 19.1801L0.728457 19.0933L0.441282 19.1801ZM0.535716 18.7824L0.320278 18.5736L0.320038 18.5739L0.535716 18.7824ZM3.0786 8.82415L2.7786 8.82232V8.82415H3.0786ZM6.43649 3.6263L6.566 3.89691L6.5662 3.89681L6.43649 3.6263ZM7.62962 3.17822L7.71055 3.46709L7.92962 3.40572V3.17822H7.62962ZM11.4221 3.14396H11.1221V3.37608L11.3468 3.43435L11.4221 3.14396ZM12.7472 3.62276L12.6186 3.89377L12.6186 3.89379L12.7472 3.62276ZM8.38921 3.00846H8.08921V3.36303L8.43888 3.30432L8.38921 3.00846ZM10.6648 2.98996L10.6206 3.28668L10.9648 3.33796V2.98996H10.6648ZM7.16376 20.5135L7.19563 20.2152L6.53309 20.1444L6.91929 20.6874L7.16376 20.5135ZM12.0318 20.5123L12.2763 20.6862L12.6629 20.1426L11.9997 20.2141L12.0318 20.5123ZM14.7125 19.3189L14.7654 19.6142L14.7654 19.6142L14.7125 19.3189ZM12.6873 19.6386V19.9386H12.7071L12.7267 19.936L12.6873 19.6386ZM17.6161 18.7987L17.669 19.094L18.1827 19.002L17.8446 18.6044L17.6161 18.7987ZM15.2219 8.82473L14.9219 8.8229V8.82473H15.2219ZM12.4302 4.33917L12.5589 4.06817L12.5588 4.06811L12.4302 4.33917ZM10.9796 3.84738L11.0431 3.55418L11.035 3.55244L11.0269 3.55114L10.9796 3.84738ZM10.9726 3.84767L11.0145 4.14473L11.0145 4.14473L10.9726 3.84767ZM10.9648 3.84778L11.0347 3.55595L11.0272 3.55435L10.9648 3.84778ZM8.09007 3.87455L8.15106 4.16838L8.15824 4.1667L8.09007 3.87455ZM8.08419 3.87514L8.09901 4.17478L8.09901 4.17478L8.08419 3.87514ZM8.07831 3.87573L8.01728 3.58188L8.00897 3.58386L8.07831 3.87573ZM6.75207 4.34154L6.62263 4.0709L6.62251 4.07096L6.75207 4.34154ZM3.83525 8.8267L3.53525 8.82489V8.8267H3.83525ZM1.55975 18.7979L1.33031 18.6046L0.995854 19.0017L1.50684 19.0932L1.55975 18.7979ZM4.46481 19.3185L4.4119 19.6138L4.41199 19.6138L4.46481 19.3185ZM6.49797 19.639L6.45891 19.9364L6.47836 19.939H6.49797V19.639ZM6.50139 19.639L6.54052 19.3415L6.52104 19.339H6.50139V19.639ZM7.30691 19.7343L7.27602 20.0327L7.27954 20.033L7.30691 19.7343ZM7.3327 19.7366L7.36373 19.4382L7.36008 19.4379L7.3327 19.7366ZM8.02446 19.7976L8.00216 20.0968L8.00227 20.0968L8.02446 19.7976ZM8.16631 19.8074L8.18707 19.5082L8.1862 19.5081L8.16631 19.8074ZM8.16705 19.8075L8.14629 20.1068L8.14642 20.1068L8.16705 19.8075ZM8.76058 19.8398L8.74794 20.1395L8.74938 20.1396L8.76058 19.8398ZM8.82384 19.8425L8.83779 19.5429L8.83778 19.5429L8.82384 19.8425ZM8.88725 19.8453L8.87605 20.1451L8.87698 20.1451L8.88725 19.8453ZM10.2958 19.8449L10.2871 19.545L10.2853 19.5451L10.2958 19.8449ZM10.3693 19.8419L10.3832 20.1416L10.3832 20.1416L10.3693 19.8419ZM10.4179 19.8398L10.4295 20.1396L10.4297 20.1395L10.4179 19.8398ZM11.0209 19.8071L11.002 19.5077L11.0006 19.5078L11.0209 19.8071ZM11.1525 19.798L11.1739 20.0973L11.1746 20.0972L11.1525 19.798ZM11.8659 19.735V19.435H11.8503L11.8349 19.4366L11.8659 19.735ZM11.8691 19.7348L11.8413 19.4361L11.8407 19.4362L11.8691 19.7348ZM11.8723 19.7346V20.0346H11.8879L11.9034 20.033L11.8723 19.7346ZM12.6847 19.6386V19.3386H12.665L12.6455 19.3411L12.6847 19.6386ZM16.2823 12.3679V8.82651H15.6823V12.3679H16.2823ZM18.8605 18.5736C17.1455 16.8034 16.2823 14.7192 16.2823 12.3679H15.6823C15.6823 14.8825 16.6114 17.1145 18.4295 18.9911L18.8605 18.5736ZM19.0263 19.2678C19.1006 19.0248 19.0385 18.7571 18.8603 18.5735L18.4297 18.9913C18.4532 19.0155 18.4639 19.055 18.4525 19.0924L19.0263 19.2678ZM18.4944 19.7452C18.751 19.6997 18.9523 19.5105 19.0264 19.2676L18.4525 19.0926C18.4408 19.1308 18.413 19.1503 18.3897 19.1544L18.4944 19.7452ZM14.8959 20.3904L18.495 19.7451L18.3891 19.1545L14.79 19.7998L14.8959 20.3904ZM13.0177 20.6908C13.6073 20.6094 14.2257 20.5107 14.896 20.3904L14.79 19.7999C14.1268 19.9189 13.5164 20.0163 12.9357 20.0964L13.0177 20.6908ZM9.5949 22.9057C11.1408 22.9057 12.5393 21.9655 13.246 20.5258L12.7074 20.2614C12.0913 21.5165 10.8896 22.3057 9.5949 22.3057V22.9057ZM5.94425 20.5271C6.65136 21.9659 8.04942 22.9057 9.5949 22.9057V22.3057C8.30055 22.3057 7.09922 21.5169 6.48274 20.2625L5.94425 20.5271ZM4.2852 20.3904C4.9592 20.5112 5.5806 20.6102 6.17246 20.692L6.25453 20.0976C5.67147 20.0171 5.05802 19.9193 4.39098 19.7998L4.2852 20.3904ZM0.685673 19.7451L4.28515 20.3904L4.39104 19.7998L0.791558 19.1545L0.685673 19.7451ZM0.154107 19.2668C0.228028 19.5115 0.430578 19.6991 0.685449 19.745L0.791782 19.1545C0.766765 19.15 0.739488 19.1298 0.728457 19.0933L0.154107 19.2668ZM0.320038 18.5739C0.14254 18.7574 0.0807533 19.0241 0.154107 19.2668L0.728457 19.0933C0.716859 19.0549 0.727888 19.0152 0.751394 18.9909L0.320038 18.5739ZM2.7786 12.3679C2.7786 14.8084 1.95113 16.8907 0.320278 18.5736L0.751154 18.9912C2.49489 17.1918 3.3786 14.9578 3.3786 12.3679H2.7786ZM2.7786 8.82415V12.3679H3.3786V8.82415H2.7786ZM6.30699 3.35569C4.56571 4.189 2.79462 6.19623 2.7786 8.82232L3.37859 8.82597C3.39292 6.47589 4.98655 4.65277 6.566 3.89691L6.30699 3.35569ZM7.54869 2.88934C7.12642 3.00764 6.71069 3.16212 6.30679 3.35579L6.5662 3.89681C6.93749 3.71878 7.32046 3.57638 7.71055 3.46709L7.54869 2.88934ZM7.32962 2.91795V3.17822H7.92962V2.91795H7.32962ZM9.52588 0.649219C8.30409 0.649219 7.32962 1.67741 7.32962 2.91795H7.92962C7.92962 1.98737 8.65647 1.24922 9.52588 1.24922V0.649219ZM11.7221 2.91795C11.7221 1.67741 10.7477 0.649219 9.52588 0.649219V1.24922C10.3953 1.24922 11.1221 1.98737 11.1221 2.91795H11.7221ZM11.7221 3.14396V2.91795H11.1221V3.14396H11.7221ZM12.8759 3.35175C12.4272 3.13872 11.9655 2.97494 11.4974 2.85357L11.3468 3.43435C11.7807 3.54686 12.2064 3.69808 12.6186 3.89377L12.8759 3.35175ZM16.2823 8.82832C16.2994 5.98555 14.4576 4.10238 12.8759 3.35173L12.6186 3.89379C14.042 4.56928 15.6977 6.26763 15.6823 8.8247L16.2823 8.82832ZM8.68921 2.9183C8.68921 2.42203 9.07588 2.03706 9.52699 2.03706V1.43706C8.72351 1.43706 8.08921 2.11205 8.08921 2.9183H8.68921ZM8.68921 3.00846V2.9183H8.08921V3.00846H8.68921ZM10.709 2.69323C9.92261 2.57608 9.12405 2.58089 8.33953 2.71261L8.43888 3.30432C9.16003 3.18325 9.89521 3.17862 10.6206 3.28668L10.709 2.69323ZM10.3648 2.9183V2.98996H10.9648V2.9183H10.3648ZM9.52699 2.03706C9.97811 2.03706 10.3648 2.42203 10.3648 2.9183H10.9648C10.9648 2.11205 10.3305 1.43706 9.52699 1.43706V2.03706ZM6.91929 20.6874C7.54653 21.5692 8.53154 22.1188 9.59742 22.1188V21.5188C8.74277 21.5188 7.93316 21.0777 7.40823 20.3396L6.91929 20.6874ZM9.59325 20.3497C8.8144 20.3497 8.03399 20.3048 7.19563 20.2152L7.13189 20.8118C7.98879 20.9034 8.79062 20.9497 9.59325 20.9497V20.3497ZM11.9997 20.2141C11.1581 20.3048 10.3752 20.3497 9.59325 20.3497V20.9497C10.3989 20.9497 11.2035 20.9034 12.064 20.8106L11.9997 20.2141ZM9.59742 22.1188C10.6634 22.1188 11.6488 21.5688 12.2763 20.6862L11.7873 20.3385C11.262 21.0773 10.452 21.5188 9.59742 21.5188V22.1188ZM14.6597 19.0236C13.9354 19.1533 13.2729 19.2584 12.648 19.3412L12.7267 19.936C13.3624 19.8518 14.0341 19.7451 14.7654 19.6142L14.6597 19.0236ZM17.5632 18.5034L14.6596 19.0236L14.7654 19.6142L17.669 19.094L17.5632 18.5034ZM14.9219 12.3684C14.9219 14.817 15.7733 17.0943 17.3875 18.993L17.8446 18.6044C16.3202 16.8113 15.5219 14.6709 15.5219 12.3684H14.9219ZM14.9219 8.82473V12.3684H15.5219V8.82473H14.9219ZM12.3015 4.61018C13.6129 5.2328 14.9343 6.77985 14.9219 8.8229L15.5219 8.82656C15.536 6.51399 14.0456 4.77404 12.5589 4.06817L12.3015 4.61018ZM10.9161 4.14059C11.3892 4.24304 11.8542 4.39805 12.3017 4.61024L12.5588 4.06811C12.068 3.83537 11.5591 3.66593 11.0431 3.55418L10.9161 4.14059ZM11.0145 4.14473C11.0176 4.1443 11.0076 4.14584 10.9958 4.14662C10.9825 4.14749 10.9599 4.14804 10.9323 4.14363L11.0269 3.55114C10.9969 3.54636 10.9721 3.54688 10.9564 3.54791C10.9485 3.54843 10.9421 3.54915 10.938 3.54965C10.9342 3.55011 10.9309 3.55059 10.9307 3.55061L11.0145 4.14473ZM10.8949 4.13952C10.9314 4.14828 10.9625 4.1487 10.9824 4.14778C10.9924 4.14733 11.0005 4.14649 11.0056 4.14589C11.0103 4.14534 11.0144 4.14474 11.0145 4.14473L10.9307 3.5506C10.927 3.55113 10.9398 3.54911 10.955 3.54841C10.9723 3.54761 11.0008 3.5479 11.0347 3.55604L10.8949 4.13952ZM8.15824 4.1667C9.05005 3.95861 9.99985 3.94915 10.9023 4.14121L11.0272 3.55435C10.0388 3.344 8.99979 3.35422 8.0219 3.5824L8.15824 4.1667ZM8.09901 4.17478C8.09902 4.17478 8.10572 4.17448 8.11333 4.17382C8.12152 4.1731 8.1349 4.17164 8.15104 4.16829L8.0291 3.58081C8.04334 3.57786 8.05478 3.57665 8.06099 3.5761C8.06663 3.57561 8.07135 3.57541 8.06937 3.57551L8.09901 4.17478ZM8.13932 4.16947C8.12506 4.17243 8.11361 4.17364 8.10739 4.17418C8.10174 4.17468 8.09702 4.17488 8.09901 4.17478L8.06937 3.57551C8.06936 3.57551 8.06265 3.57581 8.05504 3.57647C8.04685 3.57719 8.03346 3.57865 8.0173 3.582L8.13932 4.16947ZM6.88151 4.61218C7.28998 4.41682 7.71456 4.27051 8.14765 4.16761L8.00897 3.58386C7.53717 3.69595 7.07202 3.85597 6.62263 4.0709L6.88151 4.61218ZM4.13525 8.82851C4.1473 6.82785 5.51878 5.26471 6.88163 4.61211L6.62251 4.07096C5.10078 4.79962 3.54899 6.54553 3.53526 8.82489L4.13525 8.82851ZM4.13525 12.3681V8.8267H3.53525V12.3681H4.13525ZM1.78919 18.9912C3.34797 17.1408 4.13525 14.912 4.13525 12.3681H3.53525C3.53525 14.779 2.79264 16.8688 1.33031 18.6046L1.78919 18.9912ZM4.51772 19.0232L1.61266 18.5026L1.50684 19.0932L4.4119 19.6138L4.51772 19.0232ZM6.53704 19.3415C5.91015 19.2592 5.24512 19.1533 4.51763 19.0231L4.41199 19.6138C5.14613 19.7451 5.82061 19.8526 6.45891 19.9364L6.53704 19.3415ZM6.50139 19.339H6.49797V19.939H6.50139V19.339ZM7.3378 19.4359C7.07849 19.409 6.81351 19.3774 6.54052 19.3415L6.46225 19.9364C6.73993 19.9729 7.01046 20.0052 7.27602 20.0327L7.3378 19.4359ZM7.36008 19.4379L7.33429 19.4355L7.27954 20.033L7.30533 20.0354L7.36008 19.4379ZM8.04675 19.4985C7.8218 19.4817 7.59497 19.4623 7.36373 19.4382L7.30167 20.035C7.53995 20.0598 7.77276 20.0797 8.00216 20.0968L8.04675 19.4985ZM8.1862 19.5081C8.13886 19.505 8.09284 19.5019 8.04664 19.4985L8.00227 20.0968C8.05114 20.1005 8.09945 20.1037 8.14642 20.1068L8.1862 19.5081ZM8.18781 19.5082L8.18707 19.5082L8.14555 20.1067L8.14629 20.1068L8.18781 19.5082ZM8.77322 19.54C8.57905 19.5319 8.38423 19.5218 8.18769 19.5082L8.14642 20.1068C8.34961 20.1208 8.54997 20.1312 8.74794 20.1395L8.77322 19.54ZM8.83778 19.5429C8.81692 19.5419 8.79442 19.5408 8.77179 19.54L8.74938 20.1396C8.76879 20.1403 8.78852 20.1412 8.8099 20.1422L8.83778 19.5429ZM8.89846 19.5455C8.87899 19.5448 8.8592 19.5439 8.83779 19.5429L8.80988 20.1422C8.83081 20.1432 8.85336 20.1442 8.87605 20.1451L8.89846 19.5455ZM10.2853 19.5451C9.82049 19.5614 9.36208 19.5614 8.89752 19.5455L8.87698 20.1451C9.35524 20.1615 9.82751 20.1615 10.3063 20.1447L10.2853 19.5451ZM10.3554 19.5422C10.3304 19.5434 10.3085 19.5444 10.2871 19.545L10.3045 20.1448C10.332 20.144 10.3591 20.1427 10.3832 20.1416L10.3554 19.5422ZM10.4063 19.54C10.3888 19.5407 10.3715 19.5415 10.3554 19.5422L10.3832 20.1416C10.3996 20.1408 10.4147 20.1401 10.4295 20.1396L10.4063 19.54ZM11.0006 19.5078C10.8002 19.5214 10.6025 19.5323 10.4061 19.54L10.4297 20.1395C10.6323 20.1315 10.8358 20.1204 11.0412 20.1064L11.0006 19.5078ZM11.1311 19.4988C11.0869 19.502 11.0441 19.505 11.002 19.5077L11.0398 20.1065C11.0849 20.1037 11.1301 20.1004 11.1739 20.0973L11.1311 19.4988ZM11.8349 19.4366C11.5959 19.4615 11.3622 19.4817 11.1304 19.4989L11.1746 20.0972C11.4115 20.0797 11.6512 20.059 11.8969 20.0334L11.8349 19.4366ZM11.8407 19.4362C11.8399 19.4363 11.843 19.436 11.8469 19.4357C11.8513 19.4354 11.8579 19.435 11.8659 19.435V20.035C11.8831 20.035 11.8975 20.0335 11.8975 20.0335L11.8407 19.4362ZM11.8723 19.4347C11.8632 19.4347 11.8556 19.435 11.8502 19.4354C11.8476 19.4356 11.8454 19.4358 11.8439 19.4359C11.8426 19.436 11.8414 19.4361 11.8413 19.4361L11.897 20.0335C11.898 20.0334 11.8949 20.0338 11.8912 20.034C11.8869 20.0343 11.8803 20.0346 11.8723 20.0346V19.4347ZM12.6455 19.3411C12.3701 19.3774 12.1028 19.409 11.8412 19.4363L11.9034 20.033C12.1706 20.0052 12.4433 19.973 12.7239 19.936L12.6455 19.3411ZM12.6873 19.3386H12.6847V19.9386H12.6873V19.3386Z" fill="white" mask="url(#path-1-outside-1_129_5343)"/>
</svg>
