<svg width="9" height="6" viewBox="0 0 9 6" fill="none" xmlns="http://www.w3.org/2000/svg">
<path d="M8.4662 0.967455L8.46621 0.967457C8.74844 1.09552 8.87454 1.42802 8.74433 1.71073L8.74428 1.71083C8.61434 1.99238 8.28027 2.11517 7.99777 1.98694C6.65042 1.37541 4.99382 1.37406 3.65674 1.98672L3.65673 1.98672C2.94831 2.31128 1.77457 3.24002 1.7656 4.66326C1.76383 4.97324 1.51026 5.22035 1.20209 5.22035H1.20209H1.20208H1.20208H1.20207H1.20207H1.20206H1.20206H1.20205H1.20205H1.20204H1.20204H1.20203H1.20203H1.20202H1.20202H1.20201H1.20201H1.202H1.202H1.202H1.20199H1.20199H1.20198H1.20198H1.20197H1.20197H1.20196H1.20196H1.20195H1.20195H1.20194H1.20194H1.20193H1.20193H1.20192H1.20192H1.20191H1.20191H1.2019H1.2019H1.20189H1.20189H1.20188H1.20188H1.20187H1.20187H1.20186H1.20186H1.20185H1.20185H1.20184H1.20184H1.20184H1.20183H1.20183H1.20182H1.20182H1.20181H1.20181H1.2018H1.2018H1.20179H1.20179H1.20178H1.20178H1.20177H1.20177H1.20176H1.20176H1.20175H1.20175H1.20174H1.20174H1.20173H1.20173H1.20172H1.20172H1.20171H1.20171H1.2017H1.2017H1.20169H1.20169H1.20169H1.20168H1.20168H1.20167H1.20167H1.20166H1.20166H1.20165H1.20165H1.20164H1.20164H1.20163H1.20163H1.20162H1.20162H1.20161H1.20161H1.2016H1.2016H1.20159H1.20159H1.20158H1.20158H1.20157H1.20157H1.20156H1.20156H1.20155H1.20155H1.20154H1.20154H1.20153H1.20153H1.20153H1.20152H1.20152H1.20151H1.20151H1.2015H1.2015H1.20149H1.20149H1.20148H1.20148H1.20147H1.20147H1.20146H1.20146H1.20145H1.20145H1.20144H1.20144H1.20143H1.20143H1.20142H1.20142H1.20141H1.20141H1.2014H1.2014H1.20139H1.20139H1.20138H1.20138H1.20137H1.20137H1.20137H1.20136H1.20136H1.20135H1.20135H1.20134H1.20134H1.20133H1.20133H1.20132H1.20132H1.20131H1.20131H1.2013H1.2013H1.20129H1.20129H1.20128H1.20128H1.20127H1.20127H1.20126H1.20126H1.20125H1.20125H1.20124H1.20124H1.20123H1.20123H1.20122H1.20122H1.20122H1.20121H1.20121H1.2012H1.2012H1.20119H1.20119H1.20118H1.20118H1.20117H1.20117H1.20116H1.20116H1.20115H1.20115H1.20114H1.20114H1.20113H1.20113H1.20112H1.20112H1.20111H1.20111H1.2011H1.2011H1.20109H1.20109H1.20108H1.20108H1.20107H1.20107H1.20106H1.20106H1.20106H1.20105H1.20105H1.20104H1.20104H1.20103H1.20103H1.20102H1.20102H1.20101H1.20101H1.201H1.201H1.20099H1.20099H1.20098H1.20098H1.20097H1.20097H1.20096H1.20096H1.20095H1.20095H1.20094H1.20094H1.20093H1.20093H1.20092H1.20092H1.20091H1.20091H1.2009H1.2009H1.2009H1.20089H1.20089H1.20088H1.20088H1.20087H1.20087H1.20086H1.20086H1.20085H1.20085H1.20084H1.20084H1.20083H1.20083H1.20082H1.20082H1.20081H1.20081H1.2008H1.2008H1.20079H1.20079H1.20078H1.20078H1.20077H1.20077H1.20076H1.20076H1.20075H1.20075H1.20074H1.20074H1.20074H1.20073H1.20073H1.20072H1.20072H1.20071H1.20071H1.2007H1.2007H1.20069H1.20069H1.20068H1.20068H1.20067H1.20067H1.20066H1.20066H1.20065H1.20065H1.20064H1.20064H1.20063H1.20063H1.20062H1.20062H1.20061H1.20061H1.2006H1.2006H1.20059H1.20059H1.20059H1.20058H1.20058H1.20057H1.20057H1.20056H1.20056H1.20055H1.20055H1.20054H1.20054H1.20053H1.20053H1.20052H1.20052H1.20051H1.20051H1.2005H1.2005H1.20049H1.20049H1.20048H1.20048H1.20047H1.20047H1.20046H1.20046H1.20045H1.20045H1.20044H1.20044H1.20043H1.20043H1.20043H1.20042H1.20042H1.20041H1.20041H1.2004H1.2004H1.20039H1.20039H1.20038H1.20038H1.20037H1.20037H1.20036H1.20036H1.20035H1.20035H1.20034H1.20034H1.20033H1.20033H1.20032H1.20032H1.20031H1.20031H1.2003H1.2003H1.20029H1.20029H1.20028H1.20028H1.20027H1.20027H1.20027H1.20026H1.20026H1.20025H1.20025H1.20024H1.20024H1.20023H1.20023H1.20022H1.20022H1.20021H1.20021H1.2002H1.2002H1.20019H1.20019H1.20018H1.20018H1.20017H1.20017H1.20016H1.20016H1.20015H1.20015H1.20014H1.20014H1.20013H1.20013H1.20012H1.20012H1.20012H1.20011H1.20011H1.2001H1.2001H1.20009H1.20009H1.20008H1.20008H1.20007H1.20007H1.20006H1.20006H1.20005H1.20005H1.20004H1.20004H1.20003H1.20003H1.20002H1.20002H1.20001H1.20001H1.2H1.2H1.19999H1.19999H1.19998H1.19998H1.19997H1.19997H1.19996H1.19996H1.19996H1.19995H1.19995H1.19994H1.19994H1.19993H1.19993H1.19992H1.19992H1.19991H1.19991H1.1999H1.1999H1.19989H1.19989H1.19988H1.19988H1.19987H1.19987H1.19986H1.19986H1.19985H1.19985H1.19984H1.19984H1.19983H1.19983H1.19982H1.19982H1.19981H1.19981H1.1998H1.1998H1.1998H1.19979H1.19979H1.19978H1.19978H1.19977H1.19977H1.19976H1.19976H1.19975H1.19975H1.19974H1.19974H1.19973H1.19973H1.19972H1.19972H1.19971H1.19971H1.1997H1.1997H1.19969H1.19969H1.19968H1.19968H1.19967H1.19967H1.19966H1.19966H1.19965H1.19965H1.19964H1.19964H1.19964H1.19963H1.19963H1.19962H1.19962H1.19961H1.19853L1.19853 5.22035C0.888185 5.21812 0.636883 4.96696 0.638583 4.65656L0.638584 4.65642C0.651536 2.65006 2.25426 1.39481 3.18571 0.968487L8.4662 0.967455ZM8.4662 0.967455C6.82464 0.222663 4.81715 0.221608 3.18572 0.968481L8.4662 0.967455Z" stroke="white" stroke-width="0.3"/>
</svg>
