<svg width="20" height="23" viewBox="0 0 20 23" fill="none" xmlns="http://www.w3.org/2000/svg">
<mask id="path-1-outside-1_129_3674" maskUnits="userSpaceOnUse" x="-0.576172" y="-0.0516357" width="20" height="23" fill="black">
<rect fill="white" x="-0.576172" y="-0.0516357" width="20" height="23"/>
<path fill-rule="evenodd" clip-rule="evenodd" d="M15.9823 8.82565V12.367C15.9823 14.8 16.8784 16.9581 18.645 18.7815C18.7459 18.8855 18.7823 19.039 18.7394 19.1792C18.6966 19.3198 18.582 19.4241 18.4421 19.4489L14.843 20.0943C14.1763 20.214 13.5619 20.312 12.9767 20.3927C12.3153 21.7401 11.0152 22.6048 9.5949 22.6048C8.17498 22.6048 6.87529 21.7405 6.21349 20.3939C5.62603 20.3128 5.00861 20.2144 4.33809 20.0943L0.738615 19.4489C0.598672 19.4237 0.483758 19.3198 0.441282 19.1792C0.398806 19.0386 0.435214 18.8855 0.535716 18.7815C2.22301 17.0404 3.0786 14.8823 3.0786 12.367V8.82329C3.09377 6.33521 4.77613 4.42003 6.43649 3.62545C6.82409 3.4396 7.22344 3.29116 7.62962 3.17736V2.9171C7.62962 1.83154 8.48028 0.948364 9.52588 0.948364C10.5715 0.948364 11.4221 1.83154 11.4221 2.9171V3.14311C11.8731 3.26005 12.3168 3.41755 12.7472 3.6219C14.2498 4.33498 15.9986 6.12574 15.9823 8.82565ZM9.52699 1.73621C8.89969 1.73621 8.38921 2.26619 8.38921 2.91744V3.00761C9.14204 2.88122 9.90891 2.87649 10.6648 2.9891V2.91744C10.6648 2.26619 10.1543 1.73621 9.52699 1.73621ZM9.59742 21.8179C8.63716 21.8179 7.73985 21.3226 7.16376 20.5127C8.01139 20.6032 8.80251 20.6489 9.59325 20.6489C10.387 20.6489 11.1808 20.6032 12.0318 20.5115C11.4554 21.3222 10.5577 21.8179 9.59742 21.8179ZM12.6873 19.6377C13.3177 19.5542 13.9848 19.4483 14.7125 19.318L17.6161 18.7979C16.0467 16.952 15.2219 14.7431 15.2219 12.3676V8.82387C15.2351 6.64606 13.8293 5.00257 12.4302 4.33832C11.9611 4.11585 11.4741 3.95363 10.9796 3.84653C10.9773 3.84616 10.9749 3.84649 10.9726 3.84681C10.97 3.84718 10.9674 3.84755 10.9648 3.84692C10.0193 3.64572 9.02492 3.65556 8.09007 3.8737C8.08817 3.87409 8.08618 3.87419 8.08419 3.87429C8.0822 3.87439 8.08021 3.87449 8.07831 3.87488C7.62586 3.98237 7.181 4.13554 6.75207 4.34068C5.30978 5.03131 3.84815 6.68583 3.83525 8.82584V12.3672C3.83525 14.8446 3.07031 17.004 1.55975 18.7971L4.46481 19.3176C5.19563 19.4483 5.86538 19.555 6.49797 19.6381H6.50139C6.77672 19.6743 7.04447 19.7062 7.30691 19.7334L7.3327 19.7358C7.56746 19.7602 7.79728 19.7799 8.02446 19.7968C8.07199 19.8003 8.11915 19.8035 8.16631 19.8066L8.16705 19.8066C8.36692 19.8204 8.56451 19.8307 8.76058 19.8389C8.7816 19.8397 8.80272 19.8407 8.82384 19.8417C8.84501 19.8427 8.86618 19.8436 8.88725 19.8444C9.35866 19.8606 9.824 19.8606 10.2958 19.844C10.3202 19.8433 10.3448 19.8422 10.3693 19.8411C10.3855 19.8403 10.4017 19.8396 10.4179 19.8389C10.6174 19.831 10.818 19.82 11.0209 19.8062C11.0645 19.8035 11.1085 19.8003 11.1525 19.7972C11.3869 19.7799 11.6235 19.7594 11.8659 19.7342C11.867 19.7342 11.8681 19.7341 11.8691 19.734C11.8702 19.7339 11.8712 19.7338 11.8723 19.7338C12.1367 19.7062 12.4067 19.6743 12.6847 19.6377H12.6873Z"/>
</mask>
<path d="M15.9823 8.82565L15.6823 8.82384V8.82565H15.9823ZM18.645 18.7815L18.4295 18.9903L18.4297 18.9905L18.645 18.7815ZM18.7394 19.1792L18.4525 19.0915L18.4525 19.0917L18.7394 19.1792ZM18.4421 19.4489L18.3897 19.1535L18.3891 19.1536L18.4421 19.4489ZM14.843 20.0943L14.79 19.799L14.79 19.799L14.843 20.0943ZM12.9767 20.3927L12.9357 20.0956L12.7777 20.1174L12.7074 20.2605L12.9767 20.3927ZM6.21349 20.3939L6.48274 20.2616L6.41243 20.1185L6.25453 20.0967L6.21349 20.3939ZM4.33809 20.0943L4.28515 20.3896L4.2852 20.3896L4.33809 20.0943ZM0.738615 19.4489L0.685449 19.7442L0.685673 19.7442L0.738615 19.4489ZM0.441282 19.1792L0.728457 19.0924L0.441282 19.1792ZM0.535716 18.7815L0.320278 18.5728L0.320038 18.573L0.535716 18.7815ZM3.0786 8.82329L2.7786 8.82146V8.82329H3.0786ZM6.43649 3.62545L6.566 3.89605L6.5662 3.89596L6.43649 3.62545ZM7.62962 3.17736L7.71055 3.46624L7.92962 3.40487V3.17736H7.62962ZM11.4221 3.14311H11.1221V3.37523L11.3468 3.4335L11.4221 3.14311ZM12.7472 3.6219L12.6186 3.89291L12.6186 3.89293L12.7472 3.6219ZM8.38921 3.00761H8.08921V3.36218L8.43888 3.30347L8.38921 3.00761ZM10.6648 2.9891L10.6206 3.28583L10.9648 3.33711V2.9891H10.6648ZM7.16376 20.5127L7.19563 20.2144L6.53309 20.1436L6.91929 20.6865L7.16376 20.5127ZM12.0318 20.5115L12.2763 20.6853L12.6629 20.1417L11.9997 20.2132L12.0318 20.5115ZM14.7125 19.318L14.7654 19.6133L14.7654 19.6133L14.7125 19.318ZM12.6873 19.6377V19.9377H12.7071L12.7267 19.9351L12.6873 19.6377ZM17.6161 18.7979L17.669 19.0932L18.1827 19.0011L17.8446 18.6035L17.6161 18.7979ZM15.2219 8.82387L14.9219 8.82205V8.82387H15.2219ZM12.4302 4.33832L12.5589 4.06731L12.5588 4.06725L12.4302 4.33832ZM10.9796 3.84653L11.0431 3.55333L11.035 3.55158L11.0269 3.55028L10.9796 3.84653ZM10.9726 3.84681L11.0145 4.14388L11.0145 4.14388L10.9726 3.84681ZM10.9648 3.84692L11.0347 3.55509L11.0272 3.55349L10.9648 3.84692ZM8.09007 3.8737L8.15106 4.16753L8.15824 4.16585L8.09007 3.8737ZM8.08419 3.87429L8.09901 4.17392L8.09901 4.17392L8.08419 3.87429ZM8.07831 3.87488L8.01728 3.58103L8.00897 3.583L8.07831 3.87488ZM6.75207 4.34068L6.62263 4.07004L6.62251 4.0701L6.75207 4.34068ZM3.83525 8.82584L3.53525 8.82404V8.82584H3.83525ZM1.55975 18.7971L1.33031 18.6038L0.995854 19.0008L1.50684 19.0924L1.55975 18.7971ZM4.46481 19.3176L4.4119 19.6129L4.41199 19.6129L4.46481 19.3176ZM6.49797 19.6381L6.45891 19.9356L6.47836 19.9381H6.49797V19.6381ZM6.50139 19.6381L6.54052 19.3407L6.52104 19.3381H6.50139V19.6381ZM7.30691 19.7334L7.27602 20.0318L7.27954 20.0321L7.30691 19.7334ZM7.3327 19.7358L7.36373 19.4373L7.36008 19.437L7.3327 19.7358ZM8.02446 19.7968L8.00216 20.096L8.00227 20.096L8.02446 19.7968ZM8.16631 19.8066L8.18707 19.5073L8.1862 19.5072L8.16631 19.8066ZM8.16705 19.8066L8.14629 20.1059L8.14642 20.1059L8.16705 19.8066ZM8.76058 19.8389L8.74794 20.1387L8.74938 20.1387L8.76058 19.8389ZM8.82384 19.8417L8.83779 19.542L8.83778 19.542L8.82384 19.8417ZM8.88725 19.8444L8.87605 20.1442L8.87698 20.1443L8.88725 19.8444ZM10.2958 19.844L10.2871 19.5442L10.2853 19.5442L10.2958 19.844ZM10.3693 19.8411L10.3832 20.1407L10.3832 20.1407L10.3693 19.8411ZM10.4179 19.8389L10.4295 20.1387L10.4297 20.1387L10.4179 19.8389ZM11.0209 19.8062L11.002 19.5068L11.0006 19.5069L11.0209 19.8062ZM11.1525 19.7972L11.1739 20.0964L11.1746 20.0964L11.1525 19.7972ZM11.8659 19.7342V19.4342H11.8503L11.8349 19.4358L11.8659 19.7342ZM11.8691 19.734L11.8413 19.4353L11.8407 19.4353L11.8691 19.734ZM11.8723 19.7338V20.0338H11.8879L11.9034 20.0322L11.8723 19.7338ZM12.6847 19.6377V19.3377H12.665L12.6455 19.3403L12.6847 19.6377ZM16.2823 12.367V8.82565H15.6823V12.367H16.2823ZM18.8605 18.5728C17.1455 16.8026 16.2823 14.7183 16.2823 12.367H15.6823C15.6823 14.8816 16.6114 17.1136 18.4295 18.9903L18.8605 18.5728ZM19.0263 19.2669C19.1006 19.0239 19.0385 18.7563 18.8603 18.5726L18.4297 18.9905C18.4532 19.0147 18.4639 19.0542 18.4525 19.0915L19.0263 19.2669ZM18.4944 19.7443C18.751 19.6988 18.9523 19.5096 19.0264 19.2667L18.4525 19.0917C18.4408 19.1299 18.413 19.1494 18.3897 19.1535L18.4944 19.7443ZM14.8959 20.3896L18.495 19.7442L18.3891 19.1536L14.79 19.799L14.8959 20.3896ZM13.0177 20.6899C13.6073 20.6086 14.2257 20.5099 14.896 20.3896L14.79 19.799C14.1268 19.9181 13.5164 20.0155 12.9357 20.0956L13.0177 20.6899ZM9.5949 22.9048C11.1408 22.9048 12.5393 21.9646 13.246 20.5249L12.7074 20.2605C12.0913 21.5156 10.8896 22.3048 9.5949 22.3048V22.9048ZM5.94425 20.5262C6.65136 21.9651 8.04942 22.9048 9.5949 22.9048V22.3048C8.30055 22.3048 7.09922 21.516 6.48274 20.2616L5.94425 20.5262ZM4.2852 20.3896C4.9592 20.5103 5.5806 20.6094 6.17246 20.6911L6.25453 20.0967C5.67147 20.0162 5.05802 19.9185 4.39098 19.799L4.2852 20.3896ZM0.685673 19.7442L4.28515 20.3896L4.39104 19.799L0.791558 19.1536L0.685673 19.7442ZM0.154107 19.266C0.228028 19.5106 0.430578 19.6983 0.685449 19.7442L0.791782 19.1537C0.766765 19.1492 0.739488 19.1289 0.728457 19.0924L0.154107 19.266ZM0.320038 18.573C0.14254 18.7566 0.0807533 19.0232 0.154107 19.266L0.728457 19.0924C0.716859 19.0541 0.727888 19.0144 0.751394 18.9901L0.320038 18.573ZM2.7786 12.367C2.7786 14.8076 1.95113 16.8899 0.320278 18.5728L0.751154 18.9903C2.49489 17.1909 3.3786 14.957 3.3786 12.367H2.7786ZM2.7786 8.82329V12.367H3.3786V8.82329H2.7786ZM6.30699 3.35484C4.56571 4.18814 2.79462 6.19538 2.7786 8.82146L3.37859 8.82512C3.39292 6.47504 4.98655 4.65191 6.566 3.89605L6.30699 3.35484ZM7.54869 2.88848C7.12642 3.00679 6.71069 3.16127 6.30679 3.35494L6.5662 3.89596C6.93749 3.71793 7.32046 3.57553 7.71055 3.46624L7.54869 2.88848ZM7.32962 2.9171V3.17736H7.92962V2.9171H7.32962ZM9.52588 0.648364C8.30409 0.648364 7.32962 1.67656 7.32962 2.9171H7.92962C7.92962 1.98652 8.65647 1.24836 9.52588 1.24836V0.648364ZM11.7221 2.9171C11.7221 1.67656 10.7477 0.648364 9.52588 0.648364V1.24836C10.3953 1.24836 11.1221 1.98652 11.1221 2.9171H11.7221ZM11.7221 3.14311V2.9171H11.1221V3.14311H11.7221ZM12.8759 3.35089C12.4272 3.13787 11.9655 2.97409 11.4974 2.85271L11.3468 3.4335C11.7807 3.54601 12.2064 3.69723 12.6186 3.89291L12.8759 3.35089ZM16.2823 8.82747C16.2994 5.9847 14.4576 4.10152 12.8759 3.35087L12.6186 3.89293C14.042 4.56843 15.6977 6.26677 15.6823 8.82384L16.2823 8.82747ZM8.68921 2.91744C8.68921 2.42118 9.07588 2.03621 9.52699 2.03621V1.43621C8.72351 1.43621 8.08921 2.1112 8.08921 2.91744H8.68921ZM8.68921 3.00761V2.91744H8.08921V3.00761H8.68921ZM10.709 2.69238C9.92261 2.57522 9.12405 2.58004 8.33953 2.71175L8.43888 3.30347C9.16003 3.1824 9.89521 3.17776 10.6206 3.28583L10.709 2.69238ZM10.3648 2.91744V2.9891H10.9648V2.91744H10.3648ZM9.52699 2.03621C9.97811 2.03621 10.3648 2.42118 10.3648 2.91744H10.9648C10.9648 2.1112 10.3305 1.43621 9.52699 1.43621V2.03621ZM6.91929 20.6865C7.54653 21.5684 8.53154 22.1179 9.59742 22.1179V21.5179C8.74277 21.5179 7.93316 21.0768 7.40823 20.3388L6.91929 20.6865ZM9.59325 20.3489C8.8144 20.3489 8.03399 20.3039 7.19563 20.2144L7.13189 20.811C7.98879 20.9025 8.79062 20.9489 9.59325 20.9489V20.3489ZM11.9997 20.2132C11.1581 20.3039 10.3752 20.3489 9.59325 20.3489V20.9489C10.3989 20.9489 11.2035 20.9025 12.064 20.8097L11.9997 20.2132ZM9.59742 22.1179C10.6634 22.1179 11.6488 21.5679 12.2763 20.6853L11.7873 20.3376C11.262 21.0765 10.452 21.5179 9.59742 21.5179V22.1179ZM14.6597 19.0227C13.9354 19.1524 13.2729 19.2576 12.648 19.3403L12.7267 19.9351C13.3624 19.8509 14.0341 19.7443 14.7654 19.6133L14.6597 19.0227ZM17.5632 18.5026L14.6596 19.0227L14.7654 19.6133L17.669 19.0932L17.5632 18.5026ZM14.9219 12.3676C14.9219 14.8161 15.7733 17.0935 17.3875 18.9922L17.8446 18.6035C16.3202 16.8105 15.5219 14.67 15.5219 12.3676H14.9219ZM14.9219 8.82387V12.3676H15.5219V8.82387H14.9219ZM12.3015 4.60932C13.6129 5.23195 14.9343 6.779 14.9219 8.82205L15.5219 8.8257C15.536 6.51313 14.0456 4.77319 12.5589 4.06731L12.3015 4.60932ZM10.9161 4.13973C11.3892 4.24218 11.8542 4.39719 12.3017 4.60939L12.5588 4.06725C12.068 3.83451 11.5591 3.66507 11.0431 3.55333L10.9161 4.13973ZM11.0145 4.14388C11.0176 4.14344 11.0076 4.14498 10.9958 4.14576C10.9825 4.14664 10.9599 4.14719 10.9323 4.14278L11.0269 3.55028C10.9969 3.5455 10.9721 3.54603 10.9564 3.54706C10.9485 3.54757 10.9421 3.54829 10.938 3.54879C10.9342 3.54926 10.9309 3.54973 10.9307 3.54975L11.0145 4.14388ZM10.8949 4.13866C10.9314 4.14742 10.9625 4.14784 10.9824 4.14693C10.9924 4.14647 11.0005 4.14563 11.0056 4.14504C11.0103 4.14448 11.0144 4.14389 11.0145 4.14388L10.9307 3.54975C10.927 3.55028 10.9398 3.54825 10.955 3.54756C10.9723 3.54676 11.0008 3.54705 11.0347 3.55519L10.8949 4.13866ZM8.15824 4.16585C9.05005 3.95776 9.99985 3.94829 10.9023 4.14035L11.0272 3.55349C10.0388 3.34314 8.99979 3.35337 8.0219 3.58155L8.15824 4.16585ZM8.09901 4.17392C8.09902 4.17392 8.10572 4.17363 8.11333 4.17296C8.12152 4.17224 8.1349 4.17079 8.15104 4.16744L8.0291 3.57996C8.04334 3.577 8.05478 3.57579 8.06099 3.57525C8.06663 3.57475 8.07135 3.57456 8.06937 3.57466L8.09901 4.17392ZM8.13932 4.16861C8.12506 4.17157 8.11361 4.17278 8.10739 4.17333C8.10174 4.17382 8.09702 4.17402 8.09901 4.17392L8.06937 3.57465C8.06936 3.57466 8.06265 3.57495 8.05504 3.57562C8.04685 3.57633 8.03346 3.57779 8.0173 3.58115L8.13932 4.16861ZM6.88151 4.61132C7.28998 4.41596 7.71456 4.26965 8.14765 4.16676L8.00897 3.583C7.53717 3.69509 7.07202 3.85512 6.62263 4.07004L6.88151 4.61132ZM4.13525 8.82765C4.1473 6.82699 5.51878 5.26385 6.88163 4.61126L6.62251 4.0701C5.10078 4.79877 3.54899 6.54468 3.53526 8.82404L4.13525 8.82765ZM4.13525 12.3672V8.82584H3.53525V12.3672H4.13525ZM1.78919 18.9904C3.34797 17.14 4.13525 14.9111 4.13525 12.3672H3.53525C3.53525 14.7782 2.79264 16.8679 1.33031 18.6038L1.78919 18.9904ZM4.51772 19.0223L1.61266 18.5018L1.50684 19.0924L4.4119 19.6129L4.51772 19.0223ZM6.53704 19.3407C5.91015 19.2583 5.24512 19.1524 4.51763 19.0223L4.41199 19.6129C5.14613 19.7442 5.82061 19.8517 6.45891 19.9356L6.53704 19.3407ZM6.50139 19.3381H6.49797V19.9381H6.50139V19.3381ZM7.3378 19.435C7.07849 19.4081 6.81351 19.3766 6.54052 19.3407L6.46225 19.9356C6.73993 19.9721 7.01046 20.0043 7.27602 20.0318L7.3378 19.435ZM7.36008 19.437L7.33429 19.4347L7.27954 20.0321L7.30533 20.0345L7.36008 19.437ZM8.04675 19.4976C7.8218 19.4809 7.59497 19.4614 7.36373 19.4374L7.30167 20.0342C7.53995 20.0589 7.77276 20.0789 8.00216 20.096L8.04675 19.4976ZM8.1862 19.5072C8.13886 19.5041 8.09284 19.501 8.04664 19.4976L8.00227 20.096C8.05114 20.0996 8.09945 20.1028 8.14642 20.1059L8.1862 19.5072ZM8.18781 19.5074L8.18707 19.5073L8.14555 20.1059L8.14629 20.1059L8.18781 19.5074ZM8.77322 19.5392C8.57905 19.531 8.38423 19.5209 8.18769 19.5073L8.14642 20.1059C8.34961 20.1199 8.54997 20.1303 8.74794 20.1387L8.77322 19.5392ZM8.83778 19.542C8.81692 19.541 8.79442 19.54 8.77179 19.5391L8.74938 20.1387C8.76879 20.1394 8.78852 20.1404 8.8099 20.1414L8.83778 19.542ZM8.89846 19.5446C8.87899 19.5439 8.8592 19.543 8.83779 19.542L8.80988 20.1414C8.83081 20.1423 8.85336 20.1434 8.87605 20.1442L8.89846 19.5446ZM10.2853 19.5442C9.82049 19.5605 9.36208 19.5605 8.89752 19.5446L8.87698 20.1443C9.35524 20.1606 9.82751 20.1606 10.3063 20.1439L10.2853 19.5442ZM10.3554 19.5414C10.3304 19.5425 10.3085 19.5435 10.2871 19.5442L10.3045 20.1439C10.332 20.1431 10.3591 20.1419 10.3832 20.1407L10.3554 19.5414ZM10.4063 19.5392C10.3888 19.5398 10.3715 19.5406 10.3554 19.5414L10.3832 20.1407C10.3996 20.14 10.4147 20.1393 10.4295 20.1387L10.4063 19.5392ZM11.0006 19.5069C10.8002 19.5205 10.6025 19.5314 10.4061 19.5392L10.4297 20.1387C10.6323 20.1307 10.8358 20.1195 11.0412 20.1056L11.0006 19.5069ZM11.1311 19.498C11.0869 19.5011 11.0441 19.5042 11.002 19.5068L11.0398 20.1056C11.0849 20.1028 11.1301 20.0996 11.1739 20.0964L11.1311 19.498ZM11.8349 19.4358C11.5959 19.4606 11.3622 19.4809 11.1304 19.498L11.1746 20.0964C11.4115 20.0789 11.6512 20.0581 11.8969 20.0326L11.8349 19.4358ZM11.8407 19.4353C11.8399 19.4354 11.843 19.4351 11.8469 19.4348C11.8513 19.4345 11.8579 19.4342 11.8659 19.4342V20.0342C11.8831 20.0342 11.8975 20.0326 11.8975 20.0326L11.8407 19.4353ZM11.8723 19.4338C11.8632 19.4338 11.8556 19.4342 11.8502 19.4346C11.8476 19.4347 11.8454 19.4349 11.8439 19.435C11.8426 19.4352 11.8414 19.4353 11.8413 19.4353L11.897 20.0327C11.898 20.0326 11.8949 20.0329 11.8912 20.0332C11.8869 20.0335 11.8803 20.0338 11.8723 20.0338V19.4338ZM12.6455 19.3403C12.3701 19.3766 12.1028 19.4081 11.8412 19.4354L11.9034 20.0322C12.1706 20.0043 12.4433 19.9721 12.7239 19.9352L12.6455 19.3403ZM12.6873 19.3377H12.6847V19.9377H12.6873V19.3377Z" fill="white" mask="url(#path-1-outside-1_129_3674)"/>
</svg>
