<svg width="20" height="23" viewBox="0 0 20 23" fill="none" xmlns="http://www.w3.org/2000/svg">
<mask id="path-1-outside-1_129_2619" maskUnits="userSpaceOnUse" x="-0.576172" y="-0.0517578" width="20" height="23" fill="black">
<rect fill="white" x="-0.576172" y="-0.0517578" width="20" height="23"/>
<path fill-rule="evenodd" clip-rule="evenodd" d="M15.9823 8.82553V12.3669C15.9823 14.7998 16.8784 16.958 18.645 18.7814C18.7459 18.8854 18.7823 19.0389 18.7394 19.1791C18.6966 19.3197 18.582 19.424 18.4421 19.4488L14.843 20.0942C14.1763 20.2139 13.5619 20.3119 12.9767 20.3926C12.3153 21.74 11.0152 22.6047 9.5949 22.6047C8.17498 22.6047 6.87529 21.7404 6.21349 20.3938C5.62603 20.3127 5.00861 20.2143 4.33809 20.0942L0.738615 19.4488C0.598672 19.4236 0.483758 19.3197 0.441282 19.1791C0.398806 19.0385 0.435214 18.8854 0.535716 18.7814C2.22301 17.0403 3.0786 14.8821 3.0786 12.3669V8.82317C3.09377 6.33509 4.77613 4.4199 6.43649 3.62532C6.82409 3.43948 7.22344 3.29103 7.62962 3.17724V2.91697C7.62962 1.83142 8.48028 0.948242 9.52588 0.948242C10.5715 0.948242 11.4221 1.83142 11.4221 2.91697V3.14298C11.8731 3.25993 12.3168 3.41743 12.7472 3.62178C14.2498 4.33485 15.9986 6.12561 15.9823 8.82553ZM9.52699 1.73608C8.89969 1.73608 8.38921 2.26607 8.38921 2.91732V3.00749C9.14204 2.8811 9.90891 2.87637 10.6648 2.98898V2.91732C10.6648 2.26607 10.1543 1.73608 9.52699 1.73608ZM9.59742 21.8178C8.63716 21.8178 7.73985 21.3225 7.16376 20.5125C8.01139 20.6031 8.80251 20.6488 9.59325 20.6488C10.387 20.6488 11.1808 20.6031 12.0318 20.5114C11.4554 21.3221 10.5577 21.8178 9.59742 21.8178ZM12.6873 19.6376C13.3177 19.5541 13.9848 19.4482 14.7125 19.3179L17.6161 18.7977C16.0467 16.9519 15.2219 14.7429 15.2219 12.3675V8.82375C15.2351 6.64594 13.8293 5.00245 12.4302 4.3382C11.9611 4.11573 11.4741 3.95351 10.9796 3.84641C10.9773 3.84604 10.9749 3.84636 10.9726 3.84669C10.97 3.84706 10.9674 3.84743 10.9648 3.8468C10.0193 3.6456 9.02492 3.65544 8.09007 3.87358C8.08817 3.87397 8.08618 3.87407 8.08419 3.87417C8.0822 3.87427 8.08021 3.87436 8.07831 3.87476C7.62586 3.98225 7.181 4.13542 6.75207 4.34056C5.30978 5.03119 3.84815 6.68571 3.83525 8.82572V12.3671C3.83525 14.8445 3.07031 17.0038 1.55975 18.7969L4.46481 19.3175C5.19563 19.4482 5.86538 19.5549 6.49797 19.638H6.50139C6.77672 19.6742 7.04447 19.7061 7.30691 19.7333L7.3327 19.7356C7.56746 19.7601 7.79728 19.7797 8.02446 19.7967C8.07199 19.8002 8.11915 19.8033 8.16631 19.8065L8.16705 19.8065C8.36692 19.8203 8.56451 19.8305 8.76058 19.8388C8.7816 19.8396 8.80272 19.8406 8.82384 19.8416C8.84501 19.8425 8.86618 19.8435 8.88725 19.8443C9.35866 19.8605 9.824 19.8605 10.2958 19.8439C10.3202 19.8432 10.3448 19.8421 10.3693 19.8409C10.3855 19.8402 10.4017 19.8394 10.4179 19.8388C10.6174 19.8309 10.818 19.8199 11.0209 19.8061C11.0645 19.8034 11.1085 19.8002 11.1525 19.7971C11.3869 19.7797 11.6235 19.7593 11.8659 19.7341C11.867 19.7341 11.8681 19.734 11.8691 19.7339C11.8702 19.7338 11.8712 19.7337 11.8723 19.7337C12.1367 19.7061 12.4067 19.6742 12.6847 19.6376H12.6873Z"/>
</mask>
<path d="M15.9823 8.82553L15.6823 8.82372V8.82553H15.9823ZM18.645 18.7814L18.4295 18.9902L18.4297 18.9903L18.645 18.7814ZM18.7394 19.1791L18.4525 19.0914L18.4525 19.0916L18.7394 19.1791ZM18.4421 19.4488L18.3897 19.1534L18.3891 19.1535L18.4421 19.4488ZM14.843 20.0942L14.79 19.7989L14.79 19.7989L14.843 20.0942ZM12.9767 20.3926L12.9357 20.0954L12.7777 20.1172L12.7074 20.2604L12.9767 20.3926ZM6.21349 20.3938L6.48274 20.2615L6.41243 20.1184L6.25453 20.0966L6.21349 20.3938ZM4.33809 20.0942L4.28515 20.3895L4.2852 20.3895L4.33809 20.0942ZM0.738615 19.4488L0.685449 19.7441L0.685673 19.7441L0.738615 19.4488ZM0.441282 19.1791L0.728457 19.0923L0.441282 19.1791ZM0.535716 18.7814L0.320278 18.5726L0.320038 18.5729L0.535716 18.7814ZM3.0786 8.82317L2.7786 8.82134V8.82317H3.0786ZM6.43649 3.62532L6.566 3.89593L6.5662 3.89583L6.43649 3.62532ZM7.62962 3.17724L7.71055 3.46612L7.92962 3.40474V3.17724H7.62962ZM11.4221 3.14298H11.1221V3.37511L11.3468 3.43338L11.4221 3.14298ZM12.7472 3.62178L12.6186 3.89279L12.6186 3.89281L12.7472 3.62178ZM8.38921 3.00749H8.08921V3.36205L8.43888 3.30335L8.38921 3.00749ZM10.6648 2.98898L10.6206 3.28571L10.9648 3.33699V2.98898H10.6648ZM7.16376 20.5125L7.19563 20.2142L6.53309 20.1434L6.91929 20.6864L7.16376 20.5125ZM12.0318 20.5114L12.2763 20.6852L12.6629 20.1416L11.9997 20.2131L12.0318 20.5114ZM14.7125 19.3179L14.7654 19.6132L14.7654 19.6132L14.7125 19.3179ZM12.6873 19.6376V19.9376H12.7071L12.7267 19.935L12.6873 19.6376ZM17.6161 18.7977L17.669 19.093L18.1827 19.001L17.8446 18.6034L17.6161 18.7977ZM15.2219 8.82375L14.9219 8.82192V8.82375H15.2219ZM12.4302 4.3382L12.5589 4.06719L12.5588 4.06713L12.4302 4.3382ZM10.9796 3.84641L11.0431 3.5532L11.035 3.55146L11.0269 3.55016L10.9796 3.84641ZM10.9726 3.84669L11.0145 4.14376L11.0145 4.14375L10.9726 3.84669ZM10.9648 3.8468L11.0347 3.55497L11.0272 3.55337L10.9648 3.8468ZM8.09007 3.87358L8.15106 4.1674L8.15824 4.16573L8.09007 3.87358ZM8.08419 3.87417L8.09901 4.1738L8.09901 4.1738L8.08419 3.87417ZM8.07831 3.87476L8.01728 3.58091L8.00897 3.58288L8.07831 3.87476ZM6.75207 4.34056L6.62263 4.06992L6.62251 4.06998L6.75207 4.34056ZM3.83525 8.82572L3.53525 8.82391V8.82572H3.83525ZM1.55975 18.7969L1.33031 18.6037L0.995854 19.0007L1.50684 19.0922L1.55975 18.7969ZM4.46481 19.3175L4.4119 19.6128L4.41199 19.6128L4.46481 19.3175ZM6.49797 19.638L6.45891 19.9354L6.47836 19.938H6.49797V19.638ZM6.50139 19.638L6.54052 19.3406L6.52104 19.338H6.50139V19.638ZM7.30691 19.7333L7.27602 20.0317L7.27954 20.032L7.30691 19.7333ZM7.3327 19.7356L7.36373 19.4372L7.36008 19.4369L7.3327 19.7356ZM8.02446 19.7967L8.00216 20.0958L8.00227 20.0958L8.02446 19.7967ZM8.16631 19.8065L8.18707 19.5072L8.1862 19.5071L8.16631 19.8065ZM8.16705 19.8065L8.14629 20.1058L8.14642 20.1058L8.16705 19.8065ZM8.76058 19.8388L8.74794 20.1385L8.74938 20.1386L8.76058 19.8388ZM8.82384 19.8416L8.83779 19.5419L8.83778 19.5419L8.82384 19.8416ZM8.88725 19.8443L8.87605 20.1441L8.87698 20.1441L8.88725 19.8443ZM10.2958 19.8439L10.2871 19.544L10.2853 19.5441L10.2958 19.8439ZM10.3693 19.8409L10.3832 20.1406L10.3832 20.1406L10.3693 19.8409ZM10.4179 19.8388L10.4295 20.1386L10.4297 20.1386L10.4179 19.8388ZM11.0209 19.8061L11.002 19.5067L11.0006 19.5068L11.0209 19.8061ZM11.1525 19.7971L11.1739 20.0963L11.1746 20.0962L11.1525 19.7971ZM11.8659 19.7341V19.4341H11.8503L11.8349 19.4357L11.8659 19.7341ZM11.8691 19.7339L11.8413 19.4352L11.8407 19.4352L11.8691 19.7339ZM11.8723 19.7337V20.0337H11.8879L11.9034 20.0321L11.8723 19.7337ZM12.6847 19.6376V19.3376H12.665L12.6455 19.3402L12.6847 19.6376ZM16.2823 12.3669V8.82553H15.6823V12.3669H16.2823ZM18.8605 18.5727C17.1455 16.8025 16.2823 14.7182 16.2823 12.3669H15.6823C15.6823 14.8815 16.6114 17.1135 18.4295 18.9902L18.8605 18.5727ZM19.0263 19.2668C19.1006 19.0238 19.0385 18.7561 18.8603 18.5725L18.4297 18.9903C18.4532 19.0146 18.4639 19.0541 18.4525 19.0914L19.0263 19.2668ZM18.4944 19.7442C18.751 19.6987 18.9523 19.5095 19.0264 19.2666L18.4525 19.0916C18.4408 19.1298 18.413 19.1493 18.3897 19.1534L18.4944 19.7442ZM14.8959 20.3895L18.495 19.7441L18.3891 19.1535L14.79 19.7989L14.8959 20.3895ZM13.0177 20.6898C13.6073 20.6085 14.2257 20.5098 14.896 20.3894L14.79 19.7989C14.1268 19.9179 13.5164 20.0153 12.9357 20.0954L13.0177 20.6898ZM9.5949 22.9047C11.1408 22.9047 12.5393 21.9645 13.246 20.5248L12.7074 20.2604C12.0913 21.5155 10.8896 22.3047 9.5949 22.3047V22.9047ZM5.94425 20.5261C6.65136 21.9649 8.04942 22.9047 9.5949 22.9047V22.3047C8.30055 22.3047 7.09922 21.5159 6.48274 20.2615L5.94425 20.5261ZM4.2852 20.3895C4.9592 20.5102 5.5806 20.6093 6.17246 20.691L6.25453 20.0966C5.67147 20.0161 5.05802 19.9183 4.39098 19.7989L4.2852 20.3895ZM0.685673 19.7441L4.28515 20.3895L4.39104 19.7989L0.791558 19.1535L0.685673 19.7441ZM0.154107 19.2659C0.228028 19.5105 0.430578 19.6982 0.685449 19.7441L0.791782 19.1536C0.766765 19.1491 0.739488 19.1288 0.728457 19.0923L0.154107 19.2659ZM0.320038 18.5729C0.14254 18.7565 0.0807533 19.0231 0.154107 19.2659L0.728457 19.0923C0.716859 19.0539 0.727888 19.0142 0.751394 18.9899L0.320038 18.5729ZM2.7786 12.3669C2.7786 14.8074 1.95113 16.8897 0.320278 18.5726L0.751154 18.9902C2.49489 17.1908 3.3786 14.9568 3.3786 12.3669H2.7786ZM2.7786 8.82317V12.3669H3.3786V8.82317H2.7786ZM6.30699 3.35471C4.56571 4.18802 2.79462 6.19526 2.7786 8.82134L3.37859 8.825C3.39292 6.47492 4.98655 4.65179 6.566 3.89593L6.30699 3.35471ZM7.54869 2.88836C7.12642 3.00666 6.71069 3.16114 6.30679 3.35481L6.5662 3.89583C6.93749 3.71781 7.32046 3.5754 7.71055 3.46612L7.54869 2.88836ZM7.32962 2.91697V3.17724H7.92962V2.91697H7.32962ZM9.52588 0.648242C8.30409 0.648242 7.32962 1.67643 7.32962 2.91697H7.92962C7.92962 1.9864 8.65647 1.24824 9.52588 1.24824V0.648242ZM11.7221 2.91697C11.7221 1.67643 10.7477 0.648242 9.52588 0.648242V1.24824C10.3953 1.24824 11.1221 1.9864 11.1221 2.91697H11.7221ZM11.7221 3.14298V2.91697H11.1221V3.14298H11.7221ZM12.8759 3.35077C12.4272 3.13774 11.9655 2.97397 11.4974 2.85259L11.3468 3.43338C11.7807 3.54589 12.2064 3.69711 12.6186 3.89279L12.8759 3.35077ZM16.2823 8.82734C16.2994 5.98458 14.4576 4.1014 12.8759 3.35075L12.6186 3.89281C14.042 4.56831 15.6977 6.26665 15.6823 8.82372L16.2823 8.82734ZM8.68921 2.91732C8.68921 2.42105 9.07588 2.03608 9.52699 2.03608V1.43608C8.72351 1.43608 8.08921 2.11108 8.08921 2.91732H8.68921ZM8.68921 3.00749V2.91732H8.08921V3.00749H8.68921ZM10.709 2.69226C9.92261 2.5751 9.12405 2.57992 8.33953 2.71163L8.43888 3.30335C9.16003 3.18227 9.89521 3.17764 10.6206 3.28571L10.709 2.69226ZM10.3648 2.91732V2.98898H10.9648V2.91732H10.3648ZM9.52699 2.03608C9.97811 2.03608 10.3648 2.42105 10.3648 2.91732H10.9648C10.9648 2.11108 10.3305 1.43608 9.52699 1.43608V2.03608ZM6.91929 20.6864C7.54653 21.5683 8.53154 22.1178 9.59742 22.1178V21.5178C8.74277 21.5178 7.93316 21.0767 7.40823 20.3386L6.91929 20.6864ZM9.59325 20.3488C8.8144 20.3488 8.03399 20.3038 7.19563 20.2142L7.13189 20.8108C7.98879 20.9024 8.79062 20.9488 9.59325 20.9488V20.3488ZM11.9997 20.2131C11.1581 20.3038 10.3752 20.3488 9.59325 20.3488V20.9488C10.3989 20.9488 11.2035 20.9024 12.064 20.8096L11.9997 20.2131ZM9.59742 22.1178C10.6634 22.1178 11.6488 21.5678 12.2763 20.6852L11.7873 20.3375C11.262 21.0764 10.452 21.5178 9.59742 21.5178V22.1178ZM14.6597 19.0226C13.9354 19.1523 13.2729 19.2574 12.648 19.3402L12.7267 19.935C13.3624 19.8508 14.0341 19.7441 14.7654 19.6132L14.6597 19.0226ZM17.5632 18.5024L14.6596 19.0226L14.7654 19.6132L17.669 19.093L17.5632 18.5024ZM14.9219 12.3675C14.9219 14.816 15.7733 17.0934 17.3875 18.9921L17.8446 18.6034C16.3202 16.8103 15.5219 14.6699 15.5219 12.3675H14.9219ZM14.9219 8.82375V12.3675H15.5219V8.82375H14.9219ZM12.3015 4.6092C13.6129 5.23183 14.9343 6.77888 14.9219 8.82192L15.5219 8.82558C15.536 6.51301 14.0456 4.77307 12.5589 4.06719L12.3015 4.6092ZM10.9161 4.13961C11.3892 4.24206 11.8542 4.39707 12.3017 4.60926L12.5588 4.06713C12.068 3.83439 11.5591 3.66495 11.0431 3.5532L10.9161 4.13961ZM11.0145 4.14375C11.0176 4.14332 11.0076 4.14486 10.9958 4.14564C10.9825 4.14652 10.9599 4.14707 10.9323 4.14265L11.0269 3.55016C10.9969 3.54538 10.9721 3.54591 10.9564 3.54693C10.9485 3.54745 10.9421 3.54817 10.938 3.54867C10.9342 3.54913 10.9309 3.54961 10.9307 3.54963L11.0145 4.14375ZM10.8949 4.13854C10.9314 4.1473 10.9625 4.14772 10.9824 4.1468C10.9924 4.14635 11.0005 4.14551 11.0056 4.14491C11.0103 4.14436 11.0144 4.14376 11.0145 4.14376L10.9307 3.54963C10.927 3.55016 10.9398 3.54813 10.955 3.54743C10.9723 3.54664 11.0008 3.54693 11.0347 3.55506L10.8949 4.13854ZM8.15824 4.16573C9.05005 3.95764 9.99985 3.94817 10.9023 4.14023L11.0272 3.55337C10.0388 3.34302 8.99979 3.35325 8.0219 3.58142L8.15824 4.16573ZM8.09901 4.1738C8.09902 4.1738 8.10572 4.1735 8.11333 4.17284C8.12152 4.17212 8.1349 4.17066 8.15104 4.16732L8.0291 3.57984C8.04334 3.57688 8.05478 3.57567 8.06099 3.57513C8.06663 3.57463 8.07135 3.57443 8.06937 3.57453L8.09901 4.1738ZM8.13932 4.16849C8.12506 4.17145 8.11361 4.17266 8.10739 4.17321C8.10174 4.1737 8.09702 4.1739 8.09901 4.1738L8.06937 3.57453C8.06936 3.57453 8.06265 3.57483 8.05504 3.5755C8.04685 3.57621 8.03346 3.57767 8.0173 3.58103L8.13932 4.16849ZM6.88151 4.6112C7.28998 4.41584 7.71456 4.26953 8.14765 4.16663L8.00897 3.58288C7.53717 3.69497 7.07202 3.85499 6.62263 4.06992L6.88151 4.6112ZM4.13525 8.82753C4.1473 6.82687 5.51878 5.26373 6.88163 4.61114L6.62251 4.06998C5.10078 4.79865 3.54899 6.54455 3.53526 8.82391L4.13525 8.82753ZM4.13525 12.3671V8.82572H3.53525V12.3671H4.13525ZM1.78919 18.9902C3.34797 17.1399 4.13525 14.911 4.13525 12.3671H3.53525C3.53525 14.778 2.79264 16.8678 1.33031 18.6037L1.78919 18.9902ZM4.51772 19.0222L1.61266 18.5017L1.50684 19.0922L4.4119 19.6128L4.51772 19.0222ZM6.53704 19.3405C5.91015 19.2582 5.24512 19.1523 4.51763 19.0222L4.41199 19.6128C5.14613 19.7441 5.82061 19.8516 6.45891 19.9354L6.53704 19.3405ZM6.50139 19.338H6.49797V19.938H6.50139V19.338ZM7.3378 19.4349C7.07849 19.408 6.81351 19.3765 6.54052 19.3406L6.46225 19.9354C6.73993 19.972 7.01046 20.0042 7.27602 20.0317L7.3378 19.4349ZM7.36008 19.4369L7.33429 19.4345L7.27954 20.032L7.30533 20.0344L7.36008 19.4369ZM8.04675 19.4975C7.8218 19.4807 7.59497 19.4613 7.36373 19.4373L7.30167 20.034C7.53995 20.0588 7.77276 20.0787 8.00216 20.0958L8.04675 19.4975ZM8.1862 19.5071C8.13886 19.504 8.09284 19.5009 8.04664 19.4975L8.00227 20.0958C8.05114 20.0995 8.09945 20.1027 8.14642 20.1058L8.1862 19.5071ZM8.18781 19.5072L8.18707 19.5072L8.14555 20.1057L8.14629 20.1058L8.18781 19.5072ZM8.77322 19.5391C8.57905 19.5309 8.38423 19.5208 8.18769 19.5072L8.14642 20.1058C8.34961 20.1198 8.54997 20.1302 8.74794 20.1385L8.77322 19.5391ZM8.83778 19.5419C8.81692 19.5409 8.79442 19.5399 8.77179 19.539L8.74938 20.1386C8.76879 20.1393 8.78852 20.1402 8.8099 20.1412L8.83778 19.5419ZM8.89846 19.5445C8.87899 19.5438 8.8592 19.5429 8.83779 19.5419L8.80988 20.1412C8.83081 20.1422 8.85336 20.1433 8.87605 20.1441L8.89846 19.5445ZM10.2853 19.5441C9.82049 19.5604 9.36208 19.5604 8.89752 19.5445L8.87698 20.1441C9.35524 20.1605 9.82751 20.1605 10.3063 20.1437L10.2853 19.5441ZM10.3554 19.5413C10.3304 19.5424 10.3085 19.5434 10.2871 19.544L10.3045 20.1438C10.332 20.143 10.3591 20.1417 10.3832 20.1406L10.3554 19.5413ZM10.4063 19.539C10.3888 19.5397 10.3715 19.5405 10.3554 19.5413L10.3832 20.1406C10.3996 20.1399 10.4147 20.1392 10.4295 20.1386L10.4063 19.539ZM11.0006 19.5068C10.8002 19.5204 10.6025 19.5313 10.4061 19.539L10.4297 20.1386C10.6323 20.1306 10.8358 20.1194 11.0412 20.1054L11.0006 19.5068ZM11.1311 19.4978C11.0869 19.501 11.0441 19.5041 11.002 19.5067L11.0398 20.1055C11.0849 20.1027 11.1301 20.0994 11.1739 20.0963L11.1311 19.4978ZM11.8349 19.4357C11.5959 19.4605 11.3622 19.4807 11.1304 19.4979L11.1746 20.0962C11.4115 20.0787 11.6512 20.058 11.8969 20.0325L11.8349 19.4357ZM11.8407 19.4352C11.8399 19.4353 11.843 19.435 11.8469 19.4347C11.8513 19.4344 11.8579 19.4341 11.8659 19.4341V20.0341C11.8831 20.0341 11.8975 20.0325 11.8975 20.0325L11.8407 19.4352ZM11.8723 19.4337C11.8632 19.4337 11.8556 19.4341 11.8502 19.4344C11.8476 19.4346 11.8454 19.4348 11.8439 19.4349C11.8426 19.435 11.8414 19.4352 11.8413 19.4352L11.897 20.0326C11.898 20.0325 11.8949 20.0328 11.8912 20.033C11.8869 20.0333 11.8803 20.0337 11.8723 20.0337V19.4337ZM12.6455 19.3402C12.3701 19.3764 12.1028 19.408 11.8412 19.4353L11.9034 20.0321C12.1706 20.0042 12.4433 19.972 12.7239 19.935L12.6455 19.3402ZM12.6873 19.3376H12.6847V19.9376H12.6873V19.3376Z" fill="white" mask="url(#path-1-outside-1_129_2619)"/>
</svg>
