<svg width="20" height="23" viewBox="0 0 20 23" fill="none" xmlns="http://www.w3.org/2000/svg">
<mask id="path-1-outside-1_129_2928" maskUnits="userSpaceOnUse" x="-0.57666" y="-0.0516357" width="20" height="23" fill="black">
<rect fill="white" x="-0.57666" y="-0.0516357" width="20" height="23"/>
<path fill-rule="evenodd" clip-rule="evenodd" d="M15.9818 8.82565V12.367C15.9818 14.8 16.8779 16.9581 18.6445 18.7815C18.7454 18.8855 18.7818 19.039 18.7389 19.1792C18.6961 19.3198 18.5815 19.4241 18.4416 19.4489L14.8425 20.0943C14.1758 20.214 13.5614 20.312 12.9762 20.3927C12.3148 21.7401 11.0147 22.6048 9.59441 22.6048C8.17449 22.6048 6.8748 21.7405 6.21301 20.3939C5.62554 20.3128 5.00812 20.2144 4.33761 20.0943L0.738127 19.4489C0.598183 19.4237 0.48327 19.3198 0.440794 19.1792C0.398318 19.0386 0.434726 18.8855 0.535228 18.7815C2.22252 17.0404 3.07811 14.8823 3.07811 12.367V8.82329C3.09328 6.33521 4.77564 4.42003 6.43601 3.62545C6.8236 3.4396 7.22295 3.29116 7.62913 3.17736V2.9171C7.62913 1.83154 8.47979 0.948364 9.52539 0.948364C10.571 0.948364 11.4216 1.83154 11.4216 2.9171V3.14311C11.8726 3.26005 12.3163 3.41755 12.7468 3.6219C14.2493 4.33498 15.9981 6.12574 15.9818 8.82565ZM9.5265 1.73621C8.8992 1.73621 8.38872 2.26619 8.38872 2.91744V3.00761C9.14155 2.88122 9.90842 2.87649 10.6643 2.9891V2.91744C10.6643 2.26619 10.1538 1.73621 9.5265 1.73621ZM9.59693 21.8179C8.63667 21.8179 7.73936 21.3226 7.16327 20.5127C8.0109 20.6032 8.80202 20.6489 9.59276 20.6489C10.3865 20.6489 11.1803 20.6032 12.0314 20.5115C11.4549 21.3222 10.5572 21.8179 9.59693 21.8179ZM12.6869 19.6377C13.3172 19.5542 13.9843 19.4483 14.7121 19.318L17.6156 18.7979C16.0463 16.952 15.2214 14.7431 15.2214 12.3676V8.82387C15.2347 6.64606 13.8288 5.00257 12.4297 4.33832C11.9606 4.11585 11.4736 3.95363 10.9791 3.84653C10.9768 3.84616 10.9744 3.84649 10.9721 3.84681C10.9695 3.84718 10.9669 3.84755 10.9643 3.84692C10.0188 3.64572 9.02443 3.65556 8.08958 3.8737C8.08768 3.87409 8.08569 3.87419 8.0837 3.87429C8.08171 3.87439 8.07972 3.87449 8.07782 3.87488C7.62538 3.98237 7.18051 4.13554 6.75158 4.34068C5.30929 5.03131 3.84766 6.68583 3.83477 8.82584V12.3672C3.83477 14.8446 3.06982 17.004 1.55926 18.7971L4.46432 19.3176C5.19514 19.4483 5.86489 19.555 6.49748 19.6381H6.5009C6.77623 19.6743 7.04398 19.7062 7.30643 19.7334L7.33221 19.7358C7.56697 19.7602 7.7968 19.7799 8.02397 19.7968C8.0715 19.8003 8.11866 19.8035 8.16582 19.8066L8.16657 19.8066C8.36643 19.8204 8.56402 19.8307 8.76009 19.8389C8.78112 19.8397 8.80223 19.8407 8.82335 19.8417C8.84452 19.8427 8.86569 19.8436 8.88676 19.8444C9.35817 19.8606 9.82351 19.8606 10.2953 19.844C10.3197 19.8433 10.3443 19.8422 10.3688 19.8411C10.385 19.8403 10.4013 19.8396 10.4174 19.8389C10.6169 19.831 10.8175 19.82 11.0204 19.8062C11.064 19.8035 11.108 19.8003 11.152 19.7972C11.3864 19.7799 11.6231 19.7594 11.8654 19.7342C11.8665 19.7342 11.8676 19.7341 11.8686 19.734C11.8697 19.7339 11.8707 19.7338 11.8718 19.7338C12.1362 19.7062 12.4062 19.6743 12.6842 19.6377H12.6869Z"/>
</mask>
<path d="M15.9818 8.82565L15.6818 8.82384V8.82565H15.9818ZM18.6445 18.7815L18.429 18.9903L18.4292 18.9905L18.6445 18.7815ZM18.7389 19.1792L18.452 19.0915L18.452 19.0917L18.7389 19.1792ZM18.4416 19.4489L18.3892 19.1535L18.3887 19.1536L18.4416 19.4489ZM14.8425 20.0943L14.7896 19.799L14.7895 19.799L14.8425 20.0943ZM12.9762 20.3927L12.9352 20.0956L12.7772 20.1174L12.7069 20.2605L12.9762 20.3927ZM6.21301 20.3939L6.48225 20.2616L6.41194 20.1185L6.25404 20.0967L6.21301 20.3939ZM4.33761 20.0943L4.28466 20.3896L4.28472 20.3896L4.33761 20.0943ZM0.738127 19.4489L0.684961 19.7442L0.685184 19.7442L0.738127 19.4489ZM0.440794 19.1792L0.727969 19.0924L0.440794 19.1792ZM0.535228 18.7815L0.31979 18.5728L0.31955 18.573L0.535228 18.7815ZM3.07811 8.82329L2.77811 8.82146V8.82329H3.07811ZM6.43601 3.62545L6.56551 3.89605L6.56571 3.89596L6.43601 3.62545ZM7.62913 3.17736L7.71006 3.46624L7.92913 3.40487V3.17736H7.62913ZM11.4216 3.14311H11.1216V3.37523L11.3463 3.4335L11.4216 3.14311ZM12.7468 3.6219L12.6181 3.89291L12.6181 3.89293L12.7468 3.6219ZM8.38872 3.00761H8.08872V3.36218L8.43839 3.30347L8.38872 3.00761ZM10.6643 2.9891L10.6201 3.28583L10.9643 3.33711V2.9891H10.6643ZM7.16327 20.5127L7.19515 20.2144L6.53261 20.1436L6.91881 20.6865L7.16327 20.5127ZM12.0314 20.5115L12.2758 20.6853L12.6624 20.1417L11.9992 20.2132L12.0314 20.5115ZM14.7121 19.318L14.7649 19.6133L14.765 19.6133L14.7121 19.318ZM12.6869 19.6377V19.9377H12.7066L12.7262 19.9351L12.6869 19.6377ZM17.6156 18.7979L17.6685 19.0932L18.1822 19.0011L17.8442 18.6035L17.6156 18.7979ZM15.2214 8.82387L14.9214 8.82205V8.82387H15.2214ZM12.4297 4.33832L12.5584 4.06731L12.5583 4.06725L12.4297 4.33832ZM10.9791 3.84653L11.0426 3.55333L11.0345 3.55158L11.0264 3.55028L10.9791 3.84653ZM10.9721 3.84681L11.014 4.14388L11.014 4.14388L10.9721 3.84681ZM10.9643 3.84692L11.0342 3.55509L11.0267 3.55349L10.9643 3.84692ZM8.08958 3.8737L8.15057 4.16753L8.15775 4.16585L8.08958 3.8737ZM8.0837 3.87429L8.09852 4.17392L8.09852 4.17392L8.0837 3.87429ZM8.07782 3.87488L8.01679 3.58103L8.00848 3.583L8.07782 3.87488ZM6.75158 4.34068L6.62215 4.07004L6.62202 4.0701L6.75158 4.34068ZM3.83477 8.82584L3.53477 8.82404V8.82584H3.83477ZM1.55926 18.7971L1.32982 18.6038L0.995366 19.0008L1.50635 19.0924L1.55926 18.7971ZM4.46432 19.3176L4.41141 19.6129L4.4115 19.6129L4.46432 19.3176ZM6.49748 19.6381L6.45842 19.9356L6.47787 19.9381H6.49748V19.6381ZM6.5009 19.6381L6.54003 19.3407L6.52055 19.3381H6.5009V19.6381ZM7.30643 19.7334L7.27553 20.0318L7.27905 20.0321L7.30643 19.7334ZM7.33221 19.7358L7.36325 19.4373L7.35959 19.437L7.33221 19.7358ZM8.02397 19.7968L8.00167 20.096L8.00178 20.096L8.02397 19.7968ZM8.16582 19.8066L8.18658 19.5073L8.18572 19.5072L8.16582 19.8066ZM8.16657 19.8066L8.14581 20.1059L8.14593 20.1059L8.16657 19.8066ZM8.76009 19.8389L8.74745 20.1387L8.74889 20.1387L8.76009 19.8389ZM8.82335 19.8417L8.83731 19.542L8.83729 19.542L8.82335 19.8417ZM8.88676 19.8444L8.87556 20.1442L8.87649 20.1443L8.88676 19.8444ZM10.2953 19.844L10.2866 19.5442L10.2848 19.5442L10.2953 19.844ZM10.3688 19.8411L10.3827 20.1407L10.3827 20.1407L10.3688 19.8411ZM10.4174 19.8389L10.4291 20.1387L10.4293 20.1387L10.4174 19.8389ZM11.0204 19.8062L11.0015 19.5068L11.0001 19.5069L11.0204 19.8062ZM11.152 19.7972L11.1735 20.0964L11.1741 20.0964L11.152 19.7972ZM11.8654 19.7342V19.4342H11.8498L11.8344 19.4358L11.8654 19.7342ZM11.8686 19.734L11.8408 19.4353L11.8402 19.4353L11.8686 19.734ZM11.8718 19.7338V20.0338H11.8874L11.903 20.0322L11.8718 19.7338ZM12.6842 19.6377V19.3377H12.6645L12.645 19.3403L12.6842 19.6377ZM16.2818 12.367V8.82565H15.6818V12.367H16.2818ZM18.86 18.5728C17.145 16.8026 16.2818 14.7183 16.2818 12.367H15.6818C15.6818 14.8816 16.6109 17.1136 18.429 18.9903L18.86 18.5728ZM19.0258 19.2669C19.1001 19.0239 19.038 18.7563 18.8598 18.5726L18.4292 18.9905C18.4527 19.0147 18.4635 19.0542 18.452 19.0915L19.0258 19.2669ZM18.494 19.7443C18.7505 19.6988 18.9518 19.5096 19.0259 19.2667L18.452 19.0917C18.4403 19.1299 18.4125 19.1494 18.3892 19.1535L18.494 19.7443ZM14.8954 20.3896L18.4945 19.7442L18.3887 19.1536L14.7896 19.799L14.8954 20.3896ZM13.0172 20.6899C13.6068 20.6086 14.2253 20.5099 14.8955 20.3896L14.7895 19.799C14.1263 19.9181 13.5159 20.0155 12.9352 20.0956L13.0172 20.6899ZM9.59441 22.9048C11.1403 22.9048 12.5388 21.9646 13.2455 20.5249L12.7069 20.2605C12.0908 21.5156 10.8891 22.3048 9.59441 22.3048V22.9048ZM5.94376 20.5262C6.65087 21.9651 8.04893 22.9048 9.59441 22.9048V22.3048C8.30006 22.3048 7.09873 21.516 6.48225 20.2616L5.94376 20.5262ZM4.28472 20.3896C4.95871 20.5103 5.58011 20.6094 6.17197 20.6911L6.25404 20.0967C5.67098 20.0162 5.05753 19.9185 4.39049 19.799L4.28472 20.3896ZM0.685184 19.7442L4.28466 20.3896L4.39055 19.799L0.79107 19.1536L0.685184 19.7442ZM0.153619 19.266C0.22754 19.5106 0.43009 19.6983 0.684961 19.7442L0.791294 19.1537C0.766277 19.1492 0.739 19.1289 0.727969 19.0924L0.153619 19.266ZM0.31955 18.573C0.142052 18.7566 0.080265 19.0232 0.153619 19.266L0.727969 19.0924C0.71637 19.0541 0.7274 19.0144 0.750905 18.9901L0.31955 18.573ZM2.77811 12.367C2.77811 14.8076 1.95064 16.8899 0.31979 18.5728L0.750665 18.9903C2.4944 17.1909 3.37811 14.957 3.37811 12.367H2.77811ZM2.77811 8.82329V12.367H3.37811V8.82329H2.77811ZM6.3065 3.35484C4.56522 4.18814 2.79413 6.19538 2.77812 8.82146L3.3781 8.82512C3.39243 6.47504 4.98606 4.65191 6.56551 3.89605L6.3065 3.35484ZM7.5482 2.88848C7.12593 3.00679 6.7102 3.16127 6.3063 3.35494L6.56571 3.89596C6.937 3.71793 7.31997 3.57553 7.71006 3.46624L7.5482 2.88848ZM7.32913 2.9171V3.17736H7.92913V2.9171H7.32913ZM9.52539 0.648364C8.3036 0.648364 7.32913 1.67656 7.32913 2.9171H7.92913C7.92913 1.98652 8.65598 1.24836 9.52539 1.24836V0.648364ZM11.7216 2.9171C11.7216 1.67656 10.7472 0.648364 9.52539 0.648364V1.24836C10.3948 1.24836 11.1216 1.98652 11.1216 2.9171H11.7216ZM11.7216 3.14311V2.9171H11.1216V3.14311H11.7216ZM12.8754 3.35089C12.4267 3.13787 11.965 2.97409 11.497 2.85271L11.3463 3.4335C11.7802 3.54601 12.2059 3.69723 12.6181 3.89291L12.8754 3.35089ZM16.2818 8.82747C16.2989 5.9847 14.4572 4.10152 12.8754 3.35087L12.6181 3.89293C14.0415 4.56843 15.6972 6.26677 15.6818 8.82384L16.2818 8.82747ZM8.68872 2.91744C8.68872 2.42118 9.07539 2.03621 9.5265 2.03621V1.43621C8.72302 1.43621 8.08872 2.1112 8.08872 2.91744H8.68872ZM8.68872 3.00761V2.91744H8.08872V3.00761H8.68872ZM10.7085 2.69238C9.92212 2.57522 9.12356 2.58004 8.33905 2.71175L8.43839 3.30347C9.15954 3.1824 9.89472 3.17776 10.6201 3.28583L10.7085 2.69238ZM10.3643 2.91744V2.9891H10.9643V2.91744H10.3643ZM9.5265 2.03621C9.97762 2.03621 10.3643 2.42118 10.3643 2.91744H10.9643C10.9643 2.1112 10.33 1.43621 9.5265 1.43621V2.03621ZM6.91881 20.6865C7.54604 21.5684 8.53105 22.1179 9.59693 22.1179V21.5179C8.74229 21.5179 7.93268 21.0768 7.40774 20.3388L6.91881 20.6865ZM9.59276 20.3489C8.81391 20.3489 8.0335 20.3039 7.19515 20.2144L7.1314 20.811C7.9883 20.9025 8.79013 20.9489 9.59276 20.9489V20.3489ZM11.9992 20.2132C11.1577 20.3039 10.3747 20.3489 9.59276 20.3489V20.9489C10.3984 20.9489 11.203 20.9025 12.0635 20.8097L11.9992 20.2132ZM9.59693 22.1179C10.6629 22.1179 11.6483 21.5679 12.2758 20.6853L11.7869 20.3376C11.2615 21.0765 10.4515 21.5179 9.59693 21.5179V22.1179ZM14.6592 19.0227C13.9349 19.1524 13.2724 19.2576 12.6475 19.3403L12.7262 19.9351C13.362 19.8509 14.0336 19.7443 14.7649 19.6133L14.6592 19.0227ZM17.5627 18.5026L14.6592 19.0227L14.765 19.6133L17.6685 19.0932L17.5627 18.5026ZM14.9214 12.3676C14.9214 14.8161 15.7728 17.0935 17.387 18.9922L17.8442 18.6035C16.3197 16.8105 15.5214 14.67 15.5214 12.3676H14.9214ZM14.9214 8.82387V12.3676H15.5214V8.82387H14.9214ZM12.3011 4.60932C13.6124 5.23195 14.9338 6.779 14.9214 8.82205L15.5214 8.8257C15.5355 6.51313 14.0451 4.77319 12.5584 4.06731L12.3011 4.60932ZM10.9156 4.13973C11.3887 4.24218 11.8537 4.39719 12.3012 4.60939L12.5583 4.06725C12.0675 3.83451 11.5586 3.66507 11.0426 3.55333L10.9156 4.13973ZM11.014 4.14388C11.0171 4.14344 11.0071 4.14498 10.9953 4.14576C10.982 4.14664 10.9594 4.14719 10.9318 4.14278L11.0264 3.55028C10.9965 3.5455 10.9716 3.54603 10.9559 3.54706C10.948 3.54757 10.9416 3.54829 10.9375 3.54879C10.9337 3.54926 10.9304 3.54973 10.9302 3.54975L11.014 4.14388ZM10.8944 4.13866C10.9309 4.14742 10.962 4.14784 10.9819 4.14693C10.9919 4.14647 11 4.14563 11.0051 4.14504C11.0098 4.14448 11.0139 4.14389 11.014 4.14388L10.9303 3.54975C10.9265 3.55028 10.9393 3.54825 10.9545 3.54756C10.9719 3.54676 11.0003 3.54705 11.0342 3.55519L10.8944 4.13866ZM8.15775 4.16585C9.04956 3.95776 9.99936 3.94829 10.9019 4.14035L11.0267 3.55349C10.0383 3.34314 8.9993 3.35337 8.02141 3.58155L8.15775 4.16585ZM8.09852 4.17392C8.09853 4.17392 8.10524 4.17363 8.11284 4.17296C8.12103 4.17224 8.13441 4.17079 8.15055 4.16744L8.02861 3.57996C8.04285 3.577 8.05429 3.57579 8.06051 3.57525C8.06615 3.57475 8.07086 3.57456 8.06888 3.57466L8.09852 4.17392ZM8.13883 4.16861C8.12457 4.17157 8.11312 4.17278 8.1069 4.17333C8.10125 4.17382 8.09653 4.17402 8.09852 4.17392L8.06888 3.57465C8.06888 3.57466 8.06216 3.57495 8.05455 3.57562C8.04636 3.57633 8.03297 3.57779 8.01681 3.58115L8.13883 4.16861ZM6.88102 4.61132C7.28949 4.41596 7.71407 4.26965 8.14717 4.16676L8.00848 3.583C7.53668 3.69509 7.07154 3.85512 6.62215 4.07004L6.88102 4.61132ZM4.13476 8.82765C4.14681 6.82699 5.51829 5.26385 6.88115 4.61126L6.62202 4.0701C5.10029 4.79877 3.5485 6.54468 3.53477 8.82404L4.13476 8.82765ZM4.13477 12.3672V8.82584H3.53477V12.3672H4.13477ZM1.7887 18.9904C3.34748 17.14 4.13477 14.9111 4.13477 12.3672H3.53477C3.53477 14.7782 2.79215 16.8679 1.32982 18.6038L1.7887 18.9904ZM4.51723 19.0223L1.61217 18.5018L1.50635 19.0924L4.41141 19.6129L4.51723 19.0223ZM6.53655 19.3407C5.90966 19.2583 5.24463 19.1524 4.51714 19.0223L4.4115 19.6129C5.14564 19.7442 5.82013 19.8517 6.45842 19.9356L6.53655 19.3407ZM6.5009 19.3381H6.49748V19.9381H6.5009V19.3381ZM7.33732 19.435C7.078 19.4081 6.81302 19.3766 6.54003 19.3407L6.46176 19.9356C6.73945 19.9721 7.00997 20.0043 7.27553 20.0318L7.33732 19.435ZM7.35959 19.437L7.3338 19.4347L7.27905 20.0321L7.30484 20.0345L7.35959 19.437ZM8.04626 19.4976C7.82132 19.4809 7.59448 19.4614 7.36324 19.4374L7.30119 20.0342C7.53946 20.0589 7.77228 20.0789 8.00167 20.096L8.04626 19.4976ZM8.18572 19.5072C8.13837 19.5041 8.09235 19.501 8.04615 19.4976L8.00178 20.096C8.05065 20.0996 8.09896 20.1028 8.14593 20.1059L8.18572 19.5072ZM8.18733 19.5074L8.18658 19.5073L8.14506 20.1059L8.14581 20.1059L8.18733 19.5074ZM8.77273 19.5392C8.57856 19.531 8.38374 19.5209 8.1872 19.5073L8.14593 20.1059C8.34912 20.1199 8.54948 20.1303 8.74745 20.1387L8.77273 19.5392ZM8.83729 19.542C8.81643 19.541 8.79393 19.54 8.7713 19.5391L8.74889 20.1387C8.7683 20.1394 8.78803 20.1404 8.80941 20.1414L8.83729 19.542ZM8.89797 19.5446C8.8785 19.5439 8.85871 19.543 8.83731 19.542L8.80939 20.1414C8.83032 20.1423 8.85287 20.1434 8.87556 20.1442L8.89797 19.5446ZM10.2848 19.5442C9.82 19.5605 9.36159 19.5605 8.89703 19.5446L8.87649 20.1443C9.35475 20.1606 9.82702 20.1606 10.3058 20.1439L10.2848 19.5442ZM10.3549 19.5414C10.3299 19.5425 10.308 19.5435 10.2866 19.5442L10.304 20.1439C10.3315 20.1431 10.3586 20.1419 10.3827 20.1407L10.3549 19.5414ZM10.4058 19.5392C10.3883 19.5398 10.371 19.5406 10.3549 19.5414L10.3827 20.1407C10.3991 20.14 10.4142 20.1393 10.4291 20.1387L10.4058 19.5392ZM11.0001 19.5069C10.7997 19.5205 10.602 19.5314 10.4056 19.5392L10.4293 20.1387C10.6318 20.1307 10.8353 20.1195 11.0408 20.1056L11.0001 19.5069ZM11.1306 19.498C11.0864 19.5011 11.0437 19.5042 11.0015 19.5068L11.0393 20.1056C11.0844 20.1028 11.1297 20.0996 11.1735 20.0964L11.1306 19.498ZM11.8344 19.4358C11.5954 19.4606 11.3617 19.4809 11.1299 19.498L11.1741 20.0964C11.4111 20.0789 11.6507 20.0581 11.8964 20.0326L11.8344 19.4358ZM11.8402 19.4353C11.8394 19.4354 11.8425 19.4351 11.8464 19.4348C11.8508 19.4345 11.8574 19.4342 11.8654 19.4342V20.0342C11.8826 20.0342 11.897 20.0326 11.897 20.0326L11.8402 19.4353ZM11.8718 19.4338C11.8627 19.4338 11.8551 19.4342 11.8497 19.4346C11.8471 19.4347 11.8449 19.4349 11.8434 19.435C11.8421 19.4352 11.8409 19.4353 11.8408 19.4353L11.8965 20.0327C11.8975 20.0326 11.8944 20.0329 11.8907 20.0332C11.8864 20.0335 11.8798 20.0338 11.8718 20.0338V19.4338ZM12.645 19.3403C12.3696 19.3766 12.1023 19.4081 11.8407 19.4354L11.903 20.0322C12.1701 20.0043 12.4428 19.9721 12.7234 19.9352L12.645 19.3403ZM12.6869 19.3377H12.6842V19.9377H12.6869V19.3377Z" fill="white" mask="url(#path-1-outside-1_129_2928)"/>
</svg>
