<svg width="20" height="23" viewBox="0 0 20 23" fill="none" xmlns="http://www.w3.org/2000/svg">
<mask id="path-1-outside-1_129_2116" maskUnits="userSpaceOnUse" x="-0.57666" y="-0.0517578" width="20" height="23" fill="black">
<rect fill="white" x="-0.57666" y="-0.0517578" width="20" height="23"/>
<path fill-rule="evenodd" clip-rule="evenodd" d="M15.9818 8.82553V12.3669C15.9818 14.7998 16.8779 16.958 18.6445 18.7814C18.7454 18.8854 18.7818 19.0389 18.7389 19.1791C18.6961 19.3197 18.5815 19.424 18.4416 19.4488L14.8425 20.0942C14.1758 20.2139 13.5614 20.3119 12.9762 20.3926C12.3148 21.74 11.0147 22.6047 9.59441 22.6047C8.17449 22.6047 6.8748 21.7404 6.21301 20.3938C5.62554 20.3127 5.00812 20.2143 4.33761 20.0942L0.738127 19.4488C0.598183 19.4236 0.48327 19.3197 0.440794 19.1791C0.398318 19.0385 0.434726 18.8854 0.535228 18.7814C2.22252 17.0403 3.07811 14.8821 3.07811 12.3669V8.82317C3.09328 6.33509 4.77564 4.4199 6.43601 3.62532C6.8236 3.43948 7.22295 3.29103 7.62913 3.17724V2.91697C7.62913 1.83142 8.47979 0.948242 9.52539 0.948242C10.571 0.948242 11.4216 1.83142 11.4216 2.91697V3.14298C11.8726 3.25993 12.3163 3.41743 12.7468 3.62178C14.2493 4.33485 15.9981 6.12561 15.9818 8.82553ZM9.5265 1.73608C8.8992 1.73608 8.38872 2.26607 8.38872 2.91732V3.00749C9.14155 2.8811 9.90842 2.87637 10.6643 2.98898V2.91732C10.6643 2.26607 10.1538 1.73608 9.5265 1.73608ZM9.59693 21.8178C8.63667 21.8178 7.73936 21.3225 7.16327 20.5125C8.0109 20.6031 8.80202 20.6488 9.59276 20.6488C10.3865 20.6488 11.1803 20.6031 12.0314 20.5114C11.4549 21.3221 10.5572 21.8178 9.59693 21.8178ZM12.6869 19.6376C13.3172 19.5541 13.9843 19.4482 14.7121 19.3179L17.6156 18.7977C16.0463 16.9519 15.2214 14.7429 15.2214 12.3675V8.82375C15.2347 6.64594 13.8288 5.00245 12.4297 4.3382C11.9606 4.11573 11.4736 3.95351 10.9791 3.84641C10.9768 3.84604 10.9744 3.84636 10.9721 3.84669C10.9695 3.84706 10.9669 3.84743 10.9643 3.8468C10.0188 3.6456 9.02443 3.65544 8.08958 3.87358C8.08768 3.87397 8.08569 3.87407 8.0837 3.87417C8.08171 3.87427 8.07972 3.87436 8.07782 3.87476C7.62538 3.98225 7.18051 4.13542 6.75158 4.34056C5.30929 5.03119 3.84766 6.68571 3.83477 8.82572V12.3671C3.83477 14.8445 3.06982 17.0038 1.55926 18.7969L4.46432 19.3175C5.19514 19.4482 5.86489 19.5549 6.49748 19.638H6.5009C6.77623 19.6742 7.04398 19.7061 7.30643 19.7333L7.33221 19.7356C7.56697 19.7601 7.7968 19.7797 8.02397 19.7967C8.0715 19.8002 8.11866 19.8033 8.16582 19.8065L8.16657 19.8065C8.36643 19.8203 8.56402 19.8305 8.76009 19.8388C8.78112 19.8396 8.80223 19.8406 8.82335 19.8416C8.84452 19.8425 8.86569 19.8435 8.88676 19.8443C9.35817 19.8605 9.82351 19.8605 10.2953 19.8439C10.3197 19.8432 10.3443 19.8421 10.3688 19.8409C10.385 19.8402 10.4013 19.8394 10.4174 19.8388C10.6169 19.8309 10.8175 19.8199 11.0204 19.8061C11.064 19.8034 11.108 19.8002 11.152 19.7971C11.3864 19.7797 11.6231 19.7593 11.8654 19.7341C11.8665 19.7341 11.8676 19.734 11.8686 19.7339C11.8697 19.7338 11.8707 19.7337 11.8718 19.7337C12.1362 19.7061 12.4062 19.6742 12.6842 19.6376H12.6869Z"/>
</mask>
<path d="M15.9818 8.82553L15.6818 8.82372V8.82553H15.9818ZM18.6445 18.7814L18.429 18.9902L18.4292 18.9903L18.6445 18.7814ZM18.7389 19.1791L18.452 19.0914L18.452 19.0916L18.7389 19.1791ZM18.4416 19.4488L18.3892 19.1534L18.3887 19.1535L18.4416 19.4488ZM14.8425 20.0942L14.7896 19.7989L14.7895 19.7989L14.8425 20.0942ZM12.9762 20.3926L12.9352 20.0954L12.7772 20.1172L12.7069 20.2604L12.9762 20.3926ZM6.21301 20.3938L6.48225 20.2615L6.41194 20.1184L6.25404 20.0966L6.21301 20.3938ZM4.33761 20.0942L4.28466 20.3895L4.28472 20.3895L4.33761 20.0942ZM0.738127 19.4488L0.684961 19.7441L0.685184 19.7441L0.738127 19.4488ZM0.440794 19.1791L0.727969 19.0923L0.440794 19.1791ZM0.535228 18.7814L0.31979 18.5726L0.31955 18.5729L0.535228 18.7814ZM3.07811 8.82317L2.77811 8.82134V8.82317H3.07811ZM6.43601 3.62532L6.56551 3.89593L6.56571 3.89583L6.43601 3.62532ZM7.62913 3.17724L7.71006 3.46612L7.92913 3.40474V3.17724H7.62913ZM11.4216 3.14298H11.1216V3.37511L11.3463 3.43338L11.4216 3.14298ZM12.7468 3.62178L12.6181 3.89279L12.6181 3.89281L12.7468 3.62178ZM8.38872 3.00749H8.08872V3.36205L8.43839 3.30335L8.38872 3.00749ZM10.6643 2.98898L10.6201 3.28571L10.9643 3.33699V2.98898H10.6643ZM7.16327 20.5125L7.19515 20.2142L6.53261 20.1434L6.91881 20.6864L7.16327 20.5125ZM12.0314 20.5114L12.2758 20.6852L12.6624 20.1416L11.9992 20.2131L12.0314 20.5114ZM14.7121 19.3179L14.7649 19.6132L14.765 19.6132L14.7121 19.3179ZM12.6869 19.6376V19.9376H12.7066L12.7262 19.935L12.6869 19.6376ZM17.6156 18.7977L17.6685 19.093L18.1822 19.001L17.8442 18.6034L17.6156 18.7977ZM15.2214 8.82375L14.9214 8.82192V8.82375H15.2214ZM12.4297 4.3382L12.5584 4.06719L12.5583 4.06713L12.4297 4.3382ZM10.9791 3.84641L11.0426 3.5532L11.0345 3.55146L11.0264 3.55016L10.9791 3.84641ZM10.9721 3.84669L11.014 4.14376L11.014 4.14375L10.9721 3.84669ZM10.9643 3.8468L11.0342 3.55497L11.0267 3.55337L10.9643 3.8468ZM8.08958 3.87358L8.15057 4.1674L8.15775 4.16573L8.08958 3.87358ZM8.0837 3.87417L8.09852 4.1738L8.09852 4.1738L8.0837 3.87417ZM8.07782 3.87476L8.01679 3.58091L8.00848 3.58288L8.07782 3.87476ZM6.75158 4.34056L6.62215 4.06992L6.62202 4.06998L6.75158 4.34056ZM3.83477 8.82572L3.53477 8.82391V8.82572H3.83477ZM1.55926 18.7969L1.32982 18.6037L0.995366 19.0007L1.50635 19.0922L1.55926 18.7969ZM4.46432 19.3175L4.41141 19.6128L4.4115 19.6128L4.46432 19.3175ZM6.49748 19.638L6.45842 19.9354L6.47787 19.938H6.49748V19.638ZM6.5009 19.638L6.54003 19.3406L6.52055 19.338H6.5009V19.638ZM7.30643 19.7333L7.27553 20.0317L7.27905 20.032L7.30643 19.7333ZM7.33221 19.7356L7.36325 19.4372L7.35959 19.4369L7.33221 19.7356ZM8.02397 19.7967L8.00167 20.0958L8.00178 20.0958L8.02397 19.7967ZM8.16582 19.8065L8.18658 19.5072L8.18572 19.5071L8.16582 19.8065ZM8.16657 19.8065L8.14581 20.1058L8.14593 20.1058L8.16657 19.8065ZM8.76009 19.8388L8.74745 20.1385L8.74889 20.1386L8.76009 19.8388ZM8.82335 19.8416L8.83731 19.5419L8.83729 19.5419L8.82335 19.8416ZM8.88676 19.8443L8.87556 20.1441L8.87649 20.1441L8.88676 19.8443ZM10.2953 19.8439L10.2866 19.544L10.2848 19.5441L10.2953 19.8439ZM10.3688 19.8409L10.3827 20.1406L10.3827 20.1406L10.3688 19.8409ZM10.4174 19.8388L10.4291 20.1386L10.4293 20.1386L10.4174 19.8388ZM11.0204 19.8061L11.0015 19.5067L11.0001 19.5068L11.0204 19.8061ZM11.152 19.7971L11.1735 20.0963L11.1741 20.0962L11.152 19.7971ZM11.8654 19.7341V19.4341H11.8498L11.8344 19.4357L11.8654 19.7341ZM11.8686 19.7339L11.8408 19.4352L11.8402 19.4352L11.8686 19.7339ZM11.8718 19.7337V20.0337H11.8874L11.903 20.0321L11.8718 19.7337ZM12.6842 19.6376V19.3376H12.6645L12.645 19.3402L12.6842 19.6376ZM16.2818 12.3669V8.82553H15.6818V12.3669H16.2818ZM18.86 18.5727C17.145 16.8025 16.2818 14.7182 16.2818 12.3669H15.6818C15.6818 14.8815 16.6109 17.1135 18.429 18.9902L18.86 18.5727ZM19.0258 19.2668C19.1001 19.0238 19.038 18.7561 18.8598 18.5725L18.4292 18.9903C18.4527 19.0146 18.4635 19.0541 18.452 19.0914L19.0258 19.2668ZM18.494 19.7442C18.7505 19.6987 18.9518 19.5095 19.0259 19.2666L18.452 19.0916C18.4403 19.1298 18.4125 19.1493 18.3892 19.1534L18.494 19.7442ZM14.8954 20.3895L18.4945 19.7441L18.3887 19.1535L14.7896 19.7989L14.8954 20.3895ZM13.0172 20.6898C13.6068 20.6085 14.2253 20.5098 14.8955 20.3894L14.7895 19.7989C14.1263 19.9179 13.5159 20.0153 12.9352 20.0954L13.0172 20.6898ZM9.59441 22.9047C11.1403 22.9047 12.5388 21.9645 13.2455 20.5248L12.7069 20.2604C12.0908 21.5155 10.8891 22.3047 9.59441 22.3047V22.9047ZM5.94376 20.5261C6.65087 21.9649 8.04893 22.9047 9.59441 22.9047V22.3047C8.30006 22.3047 7.09873 21.5159 6.48225 20.2615L5.94376 20.5261ZM4.28472 20.3895C4.95871 20.5102 5.58011 20.6093 6.17197 20.691L6.25404 20.0966C5.67098 20.0161 5.05753 19.9183 4.39049 19.7989L4.28472 20.3895ZM0.685184 19.7441L4.28466 20.3895L4.39055 19.7989L0.79107 19.1535L0.685184 19.7441ZM0.153619 19.2659C0.22754 19.5105 0.43009 19.6982 0.684961 19.7441L0.791294 19.1536C0.766277 19.1491 0.739 19.1288 0.727969 19.0923L0.153619 19.2659ZM0.31955 18.5729C0.142052 18.7565 0.080265 19.0231 0.153619 19.2659L0.727969 19.0923C0.71637 19.0539 0.7274 19.0142 0.750905 18.9899L0.31955 18.5729ZM2.77811 12.3669C2.77811 14.8074 1.95064 16.8897 0.31979 18.5726L0.750665 18.9902C2.4944 17.1908 3.37811 14.9568 3.37811 12.3669H2.77811ZM2.77811 8.82317V12.3669H3.37811V8.82317H2.77811ZM6.3065 3.35471C4.56522 4.18802 2.79413 6.19526 2.77812 8.82134L3.3781 8.825C3.39243 6.47492 4.98606 4.65179 6.56551 3.89593L6.3065 3.35471ZM7.5482 2.88836C7.12593 3.00666 6.7102 3.16114 6.3063 3.35481L6.56571 3.89583C6.937 3.71781 7.31997 3.5754 7.71006 3.46612L7.5482 2.88836ZM7.32913 2.91697V3.17724H7.92913V2.91697H7.32913ZM9.52539 0.648242C8.3036 0.648242 7.32913 1.67643 7.32913 2.91697H7.92913C7.92913 1.9864 8.65598 1.24824 9.52539 1.24824V0.648242ZM11.7216 2.91697C11.7216 1.67643 10.7472 0.648242 9.52539 0.648242V1.24824C10.3948 1.24824 11.1216 1.9864 11.1216 2.91697H11.7216ZM11.7216 3.14298V2.91697H11.1216V3.14298H11.7216ZM12.8754 3.35077C12.4267 3.13774 11.965 2.97397 11.497 2.85259L11.3463 3.43338C11.7802 3.54589 12.2059 3.69711 12.6181 3.89279L12.8754 3.35077ZM16.2818 8.82734C16.2989 5.98458 14.4572 4.1014 12.8754 3.35075L12.6181 3.89281C14.0415 4.56831 15.6972 6.26665 15.6818 8.82372L16.2818 8.82734ZM8.68872 2.91732C8.68872 2.42105 9.07539 2.03608 9.5265 2.03608V1.43608C8.72302 1.43608 8.08872 2.11108 8.08872 2.91732H8.68872ZM8.68872 3.00749V2.91732H8.08872V3.00749H8.68872ZM10.7085 2.69226C9.92212 2.5751 9.12356 2.57992 8.33905 2.71163L8.43839 3.30335C9.15954 3.18227 9.89472 3.17764 10.6201 3.28571L10.7085 2.69226ZM10.3643 2.91732V2.98898H10.9643V2.91732H10.3643ZM9.5265 2.03608C9.97762 2.03608 10.3643 2.42105 10.3643 2.91732H10.9643C10.9643 2.11108 10.33 1.43608 9.5265 1.43608V2.03608ZM6.91881 20.6864C7.54604 21.5683 8.53105 22.1178 9.59693 22.1178V21.5178C8.74229 21.5178 7.93268 21.0767 7.40774 20.3386L6.91881 20.6864ZM9.59276 20.3488C8.81391 20.3488 8.0335 20.3038 7.19515 20.2142L7.1314 20.8108C7.9883 20.9024 8.79013 20.9488 9.59276 20.9488V20.3488ZM11.9992 20.2131C11.1577 20.3038 10.3747 20.3488 9.59276 20.3488V20.9488C10.3984 20.9488 11.203 20.9024 12.0635 20.8096L11.9992 20.2131ZM9.59693 22.1178C10.6629 22.1178 11.6483 21.5678 12.2758 20.6852L11.7869 20.3375C11.2615 21.0764 10.4515 21.5178 9.59693 21.5178V22.1178ZM14.6592 19.0226C13.9349 19.1523 13.2724 19.2574 12.6475 19.3402L12.7262 19.935C13.362 19.8508 14.0336 19.7441 14.7649 19.6132L14.6592 19.0226ZM17.5627 18.5024L14.6592 19.0226L14.765 19.6132L17.6685 19.093L17.5627 18.5024ZM14.9214 12.3675C14.9214 14.816 15.7728 17.0934 17.387 18.9921L17.8442 18.6034C16.3197 16.8103 15.5214 14.6699 15.5214 12.3675H14.9214ZM14.9214 8.82375V12.3675H15.5214V8.82375H14.9214ZM12.3011 4.6092C13.6124 5.23183 14.9338 6.77888 14.9214 8.82192L15.5214 8.82558C15.5355 6.51301 14.0451 4.77307 12.5584 4.06719L12.3011 4.6092ZM10.9156 4.13961C11.3887 4.24206 11.8537 4.39707 12.3012 4.60926L12.5583 4.06713C12.0675 3.83439 11.5586 3.66495 11.0426 3.5532L10.9156 4.13961ZM11.014 4.14375C11.0171 4.14332 11.0071 4.14486 10.9953 4.14564C10.982 4.14652 10.9594 4.14707 10.9318 4.14265L11.0264 3.55016C10.9965 3.54538 10.9716 3.54591 10.9559 3.54693C10.948 3.54745 10.9416 3.54817 10.9375 3.54867C10.9337 3.54913 10.9304 3.54961 10.9302 3.54963L11.014 4.14375ZM10.8944 4.13854C10.9309 4.1473 10.962 4.14772 10.9819 4.1468C10.9919 4.14635 11 4.14551 11.0051 4.14491C11.0098 4.14436 11.0139 4.14376 11.014 4.14376L10.9303 3.54963C10.9265 3.55016 10.9393 3.54813 10.9545 3.54743C10.9719 3.54664 11.0003 3.54693 11.0342 3.55506L10.8944 4.13854ZM8.15775 4.16573C9.04956 3.95764 9.99936 3.94817 10.9019 4.14023L11.0267 3.55337C10.0383 3.34302 8.9993 3.35325 8.02141 3.58142L8.15775 4.16573ZM8.09852 4.1738C8.09853 4.1738 8.10524 4.1735 8.11284 4.17284C8.12103 4.17212 8.13441 4.17066 8.15055 4.16732L8.02861 3.57984C8.04285 3.57688 8.05429 3.57567 8.06051 3.57513C8.06615 3.57463 8.07086 3.57443 8.06888 3.57453L8.09852 4.1738ZM8.13883 4.16849C8.12457 4.17145 8.11312 4.17266 8.1069 4.17321C8.10125 4.1737 8.09653 4.1739 8.09852 4.1738L8.06888 3.57453C8.06888 3.57453 8.06216 3.57483 8.05455 3.5755C8.04636 3.57621 8.03297 3.57767 8.01681 3.58103L8.13883 4.16849ZM6.88102 4.6112C7.28949 4.41584 7.71407 4.26953 8.14717 4.16663L8.00848 3.58288C7.53668 3.69497 7.07154 3.85499 6.62215 4.06992L6.88102 4.6112ZM4.13476 8.82753C4.14681 6.82687 5.51829 5.26373 6.88115 4.61114L6.62202 4.06998C5.10029 4.79865 3.5485 6.54455 3.53477 8.82391L4.13476 8.82753ZM4.13477 12.3671V8.82572H3.53477V12.3671H4.13477ZM1.7887 18.9902C3.34748 17.1399 4.13477 14.911 4.13477 12.3671H3.53477C3.53477 14.778 2.79215 16.8678 1.32982 18.6037L1.7887 18.9902ZM4.51723 19.0222L1.61217 18.5017L1.50635 19.0922L4.41141 19.6128L4.51723 19.0222ZM6.53655 19.3405C5.90966 19.2582 5.24463 19.1523 4.51714 19.0222L4.4115 19.6128C5.14564 19.7441 5.82013 19.8516 6.45842 19.9354L6.53655 19.3405ZM6.5009 19.338H6.49748V19.938H6.5009V19.338ZM7.33732 19.4349C7.078 19.408 6.81302 19.3765 6.54003 19.3406L6.46176 19.9354C6.73945 19.972 7.00997 20.0042 7.27553 20.0317L7.33732 19.4349ZM7.35959 19.4369L7.3338 19.4345L7.27905 20.032L7.30484 20.0344L7.35959 19.4369ZM8.04626 19.4975C7.82132 19.4807 7.59448 19.4613 7.36324 19.4373L7.30119 20.034C7.53946 20.0588 7.77228 20.0787 8.00167 20.0958L8.04626 19.4975ZM8.18572 19.5071C8.13837 19.504 8.09235 19.5009 8.04615 19.4975L8.00178 20.0958C8.05065 20.0995 8.09896 20.1027 8.14593 20.1058L8.18572 19.5071ZM8.18733 19.5072L8.18658 19.5072L8.14506 20.1057L8.14581 20.1058L8.18733 19.5072ZM8.77273 19.5391C8.57856 19.5309 8.38374 19.5208 8.1872 19.5072L8.14593 20.1058C8.34912 20.1198 8.54948 20.1302 8.74745 20.1385L8.77273 19.5391ZM8.83729 19.5419C8.81643 19.5409 8.79393 19.5399 8.7713 19.539L8.74889 20.1386C8.7683 20.1393 8.78803 20.1402 8.80941 20.1412L8.83729 19.5419ZM8.89797 19.5445C8.8785 19.5438 8.85871 19.5429 8.83731 19.5419L8.80939 20.1412C8.83032 20.1422 8.85287 20.1433 8.87556 20.1441L8.89797 19.5445ZM10.2848 19.5441C9.82 19.5604 9.36159 19.5604 8.89703 19.5445L8.87649 20.1441C9.35475 20.1605 9.82702 20.1605 10.3058 20.1437L10.2848 19.5441ZM10.3549 19.5413C10.3299 19.5424 10.308 19.5434 10.2866 19.544L10.304 20.1438C10.3315 20.143 10.3586 20.1417 10.3827 20.1406L10.3549 19.5413ZM10.4058 19.539C10.3883 19.5397 10.371 19.5405 10.3549 19.5413L10.3827 20.1406C10.3991 20.1399 10.4142 20.1392 10.4291 20.1386L10.4058 19.539ZM11.0001 19.5068C10.7997 19.5204 10.602 19.5313 10.4056 19.539L10.4293 20.1386C10.6318 20.1306 10.8353 20.1194 11.0408 20.1054L11.0001 19.5068ZM11.1306 19.4978C11.0864 19.501 11.0437 19.5041 11.0015 19.5067L11.0393 20.1055C11.0844 20.1027 11.1297 20.0994 11.1735 20.0963L11.1306 19.4978ZM11.8344 19.4357C11.5954 19.4605 11.3617 19.4807 11.1299 19.4979L11.1741 20.0962C11.4111 20.0787 11.6507 20.058 11.8964 20.0325L11.8344 19.4357ZM11.8402 19.4352C11.8394 19.4353 11.8425 19.435 11.8464 19.4347C11.8508 19.4344 11.8574 19.4341 11.8654 19.4341V20.0341C11.8826 20.0341 11.897 20.0325 11.897 20.0325L11.8402 19.4352ZM11.8718 19.4337C11.8627 19.4337 11.8551 19.4341 11.8497 19.4344C11.8471 19.4346 11.8449 19.4348 11.8434 19.4349C11.8421 19.435 11.8409 19.4352 11.8408 19.4352L11.8965 20.0326C11.8975 20.0325 11.8944 20.0328 11.8907 20.033C11.8864 20.0333 11.8798 20.0337 11.8718 20.0337V19.4337ZM12.645 19.3402C12.3696 19.3764 12.1023 19.408 11.8407 19.4353L11.903 20.0321C12.1701 20.0042 12.4428 19.972 12.7234 19.935L12.645 19.3402ZM12.6869 19.3376H12.6842V19.9376H12.6869V19.3376Z" fill="white" mask="url(#path-1-outside-1_129_2116)"/>
</svg>
