<svg width="10" height="6" viewBox="0 0 10 6" fill="none" xmlns="http://www.w3.org/2000/svg">
<path d="M8.59022 1.07182L8.59023 1.07183C8.87246 1.19989 8.99857 1.53239 8.86835 1.8151L8.8683 1.8152C8.73836 2.09675 8.4043 2.21954 8.1218 2.09131C6.77445 1.47978 5.11785 1.47843 3.78076 2.09109L3.78076 2.09109C3.07233 2.41565 1.89859 3.34439 1.88962 4.76763C1.88786 5.07761 1.63428 5.32472 1.32612 5.32472H1.32611H1.32611H1.3261H1.3261H1.32609H1.32609H1.32608H1.32608H1.32607H1.32607H1.32606H1.32606H1.32605H1.32605H1.32604H1.32604H1.32603H1.32603H1.32602H1.32602H1.32601H1.32601H1.326H1.326H1.32599H1.32599H1.32598H1.32598H1.32598H1.32597H1.32597H1.32596H1.32596H1.32595H1.32595H1.32594H1.32594H1.32593H1.32593H1.32592H1.32592H1.32591H1.32591H1.3259H1.3259H1.32589H1.32589H1.32588H1.32588H1.32587H1.32587H1.32586H1.32586H1.32585H1.32585H1.32584H1.32584H1.32583H1.32583H1.32582H1.32582H1.32582H1.32581H1.32581H1.3258H1.3258H1.32579H1.32579H1.32578H1.32578H1.32577H1.32577H1.32576H1.32576H1.32575H1.32575H1.32574H1.32574H1.32573H1.32573H1.32572H1.32572H1.32571H1.32571H1.3257H1.3257H1.32569H1.32569H1.32568H1.32568H1.32567H1.32567H1.32566H1.32566H1.32566H1.32565H1.32565H1.32564H1.32564H1.32563H1.32563H1.32562H1.32562H1.32561H1.32561H1.3256H1.3256H1.32559H1.32559H1.32558H1.32558H1.32557H1.32557H1.32556H1.32556H1.32555H1.32555H1.32554H1.32554H1.32553H1.32553H1.32552H1.32552H1.32551H1.32551H1.3255H1.3255H1.3255H1.32549H1.32549H1.32548H1.32548H1.32547H1.32547H1.32546H1.32546H1.32545H1.32545H1.32544H1.32544H1.32543H1.32543H1.32542H1.32542H1.32541H1.32541H1.3254H1.3254H1.32539H1.32539H1.32538H1.32538H1.32537H1.32537H1.32536H1.32536H1.32535H1.32535H1.32535H1.32534H1.32534H1.32533H1.32533H1.32532H1.32532H1.32531H1.32531H1.3253H1.3253H1.32529H1.32529H1.32528H1.32528H1.32527H1.32527H1.32526H1.32526H1.32525H1.32525H1.32524H1.32524H1.32523H1.32523H1.32522H1.32522H1.32521H1.32521H1.3252H1.3252H1.32519H1.32519H1.32519H1.32518H1.32518H1.32517H1.32517H1.32516H1.32516H1.32515H1.32515H1.32514H1.32514H1.32513H1.32513H1.32512H1.32512H1.32511H1.32511H1.3251H1.3251H1.32509H1.32509H1.32508H1.32508H1.32507H1.32507H1.32506H1.32506H1.32505H1.32505H1.32504H1.32504H1.32503H1.32503H1.32503H1.32502H1.32502H1.32501H1.32501H1.325H1.325H1.32499H1.32499H1.32498H1.32498H1.32497H1.32497H1.32496H1.32496H1.32495H1.32495H1.32494H1.32494H1.32493H1.32493H1.32492H1.32492H1.32491H1.32491H1.3249H1.3249H1.32489H1.32489H1.32488H1.32488H1.32488H1.32487H1.32487H1.32486H1.32486H1.32485H1.32485H1.32484H1.32484H1.32483H1.32483H1.32482H1.32482H1.32481H1.32481H1.3248H1.3248H1.32479H1.32479H1.32478H1.32478H1.32477H1.32477H1.32476H1.32476H1.32475H1.32475H1.32474H1.32474H1.32473H1.32473H1.32472H1.32472H1.32472H1.32471H1.32471H1.3247H1.3247H1.32469H1.32469H1.32468H1.32468H1.32467H1.32467H1.32466H1.32466H1.32465H1.32465H1.32464H1.32464H1.32463H1.32463H1.32462H1.32462H1.32461H1.32461H1.3246H1.3246H1.32459H1.32459H1.32458H1.32458H1.32457H1.32457H1.32456H1.32456H1.32456H1.32455H1.32455H1.32454H1.32454H1.32453H1.32453H1.32452H1.32452H1.32451H1.32451H1.3245H1.3245H1.32449H1.32449H1.32448H1.32448H1.32447H1.32447H1.32446H1.32446H1.32445H1.32445H1.32444H1.32444H1.32443H1.32443H1.32442H1.32442H1.32441H1.32441H1.3244H1.3244H1.3244H1.32439H1.32439H1.32438H1.32438H1.32437H1.32437H1.32436H1.32436H1.32435H1.32435H1.32434H1.32434H1.32433H1.32433H1.32432H1.32432H1.32431H1.32431H1.3243H1.3243H1.32429H1.32429H1.32428H1.32428H1.32427H1.32427H1.32426H1.32426H1.32425H1.32425H1.32425H1.32424H1.32424H1.32423H1.32423H1.32422H1.32422H1.32421H1.32421H1.3242H1.3242H1.32419H1.32419H1.32418H1.32418H1.32417H1.32417H1.32416H1.32416H1.32415H1.32415H1.32414H1.32414H1.32413H1.32413H1.32412H1.32412H1.32411H1.32411H1.3241H1.3241H1.32409H1.32409H1.32409H1.32408H1.32408H1.32407H1.32407H1.32406H1.32406H1.32405H1.32405H1.32404H1.32404H1.32403H1.32403H1.32402H1.32402H1.32401H1.32401H1.324H1.324H1.32399H1.32399H1.32398H1.32398H1.32397H1.32397H1.32396H1.32396H1.32395H1.32395H1.32394H1.32394H1.32393H1.32393H1.32393H1.32392H1.32392H1.32391H1.32391H1.3239H1.3239H1.32389H1.32389H1.32388H1.32388H1.32387H1.32387H1.32386H1.32386H1.32385H1.32385H1.32384H1.32384H1.32383H1.32383H1.32382H1.32382H1.32381H1.32381H1.3238H1.3238H1.32379H1.32379H1.32378H1.32378H1.32377H1.32377H1.32377H1.32376H1.32376H1.32375H1.32375H1.32374H1.32374H1.32373H1.32373H1.32372H1.32372H1.32371H1.32371H1.3237H1.3237H1.32369H1.32369H1.32368H1.32368H1.32367H1.32367H1.32366H1.32366H1.32365H1.32365H1.32364H1.32364H1.32363H1.32256L1.32256 5.32472C1.01221 5.32249 0.760907 5.07133 0.762606 4.76093L0.762607 4.76079C0.77556 2.75443 2.37828 1.49918 3.30973 1.07286L8.59022 1.07182ZM8.59022 1.07182C6.94866 0.327033 4.94117 0.325978 3.30974 1.07285L8.59022 1.07182Z" stroke="white" stroke-width="0.3"/>
</svg>
