<svg width="25" height="25" viewBox="0 0 25 25" fill="none" xmlns="http://www.w3.org/2000/svg">
<g clip-path="url(#clip0_99_6498)">
<path d="M4.6875 0C3.82324 0 3.125 0.698242 3.125 1.5625V4.2334C1.74316 4.83398 0.78125 6.21094 0.78125 7.8125C0.78125 9.41406 1.74316 10.791 3.125 11.3916V23.4375C3.125 24.3018 3.82324 25 4.6875 25C5.55176 25 6.25 24.3018 6.25 23.4375V11.3916C7.63184 10.791 8.59375 9.41406 8.59375 7.8125C8.59375 6.21094 7.63184 4.83398 6.25 4.2334V1.5625C6.25 0.698242 5.55176 0 4.6875 0ZM4.6875 6.25C5.1019 6.25 5.49933 6.41462 5.79235 6.70765C6.08538 7.00067 6.25 7.3981 6.25 7.8125C6.25 8.2269 6.08538 8.62433 5.79235 8.91735C5.49933 9.21038 5.1019 9.375 4.6875 9.375C4.2731 9.375 3.87567 9.21038 3.58265 8.91735C3.28962 8.62433 3.125 8.2269 3.125 7.8125C3.125 7.3981 3.28962 7.00067 3.58265 6.70765C3.87567 6.41462 4.2731 6.25 4.6875 6.25ZM12.5 15.625C12.9144 15.625 13.3118 15.7896 13.6049 16.0826C13.8979 16.3757 14.0625 16.7731 14.0625 17.1875C14.0625 17.6019 13.8979 17.9993 13.6049 18.2924C13.3118 18.5854 12.9144 18.75 12.5 18.75C12.0856 18.75 11.6882 18.5854 11.3951 18.2924C11.1021 17.9993 10.9375 17.6019 10.9375 17.1875C10.9375 16.7731 11.1021 16.3757 11.3951 16.0826C11.6882 15.7896 12.0856 15.625 12.5 15.625ZM16.4062 17.1875C16.4062 15.5859 15.4443 14.209 14.0625 13.6084L14.0625 1.5625C14.0625 0.698242 13.3643 0 12.5 0C11.6357 0 10.9375 0.698242 10.9375 1.5625L10.9375 13.6084C9.55566 14.209 8.59375 15.5859 8.59375 17.1875C8.59375 18.7891 9.55566 20.166 10.9375 20.7666V23.4375C10.9375 24.3018 11.6357 25 12.5 25C13.3643 25 14.0625 24.3018 14.0625 23.4375V20.7666C15.4443 20.166 16.4062 18.7891 16.4062 17.1875ZM18.75 9.375C18.75 8.9606 18.9146 8.56317 19.2076 8.27015C19.5007 7.97712 19.8981 7.8125 20.3125 7.8125C20.7269 7.8125 21.1243 7.97712 21.4174 8.27015C21.7104 8.56317 21.875 8.9606 21.875 9.375C21.875 9.7894 21.7104 10.1868 21.4174 10.4799C21.1243 10.7729 20.7269 10.9375 20.3125 10.9375C19.8981 10.9375 19.5007 10.7729 19.2076 10.4799C18.9146 10.1868 18.75 9.7894 18.75 9.375ZM21.875 12.9541C23.2568 12.3535 24.2187 10.9766 24.2188 9.375C24.2188 7.77344 23.2568 6.39648 21.875 5.7959V1.5625C21.875 0.698242 21.1768 0 20.3125 0C19.4482 0 18.75 0.698242 18.75 1.5625V5.7959C17.3682 6.39648 16.4062 7.77344 16.4062 9.375C16.4062 10.9766 17.3682 12.3535 18.75 12.9541V23.4375C18.75 24.3018 19.4482 25 20.3125 25C21.1768 25 21.875 24.3018 21.875 23.4375V12.9541Z" fill="white"/>
</g>
<defs>
<clipPath id="clip0_99_6498">
<rect width="25" height="25" fill="white" transform="matrix(0 1 -1 0 25 0)"/>
</clipPath>
</defs>
</svg>
