<svg width="21" height="21" viewBox="0 0 21 21" fill="none" xmlns="http://www.w3.org/2000/svg">
<g clip-path="url(#clip0_112_5907)">
<path d="M5.66071 0.882812L5.33929 1.44141H1.05357C0.263393 1.44141 -0.375 2 -0.375 2.69141C-0.375 3.38281 0.263393 3.94141 1.05357 3.94141H18.1964C18.9866 3.94141 19.625 3.38281 19.625 2.69141C19.625 2 18.9866 1.44141 18.1964 1.44141H13.9107L13.5893 0.882812C13.3482 0.457031 12.8527 0.191406 12.3125 0.191406H6.9375C6.39732 0.191406 5.90179 0.457031 5.66071 0.882812ZM18.1964 5.19141H1.05357L2 18.4336C2.07143 19.4219 3.00893 20.1914 4.13839 20.1914H15.1116C16.2411 20.1914 17.1786 19.4219 17.25 18.4336L18.1964 5.19141Z" fill="#1E43A5"/>
</g>
<defs>
<clipPath id="clip0_112_5907">
<rect width="20" height="20" fill="white" transform="translate(0.625 0.191406)"/>
</clipPath>
</defs>
</svg>
