<svg width="20" height="20" viewBox="0 0 20 20" fill="none" xmlns="http://www.w3.org/2000/svg">
<g clip-path="url(#clip0_99_7250)">
<path d="M5.03571 0.691406L4.71429 1.25H0.428571C-0.361607 1.25 -1 1.80859 -1 2.5C-1 3.19141 -0.361607 3.75 0.428571 3.75H17.5714C18.3616 3.75 19 3.19141 19 2.5C19 1.80859 18.3616 1.25 17.5714 1.25H13.2857L12.9643 0.691406C12.7232 0.265625 12.2277 0 11.6875 0H6.3125C5.77232 0 5.27679 0.265625 5.03571 0.691406ZM17.5714 5H0.428571L1.375 18.2422C1.44643 19.2305 2.38393 20 3.51339 20H14.4866C15.6161 20 16.5536 19.2305 16.625 18.2422L17.5714 5Z" fill="#1E43A5"/>
</g>
<defs>
<clipPath id="clip0_99_7250">
<rect width="20" height="20" fill="white"/>
</clipPath>
</defs>
</svg>
