<svg width="20" height="21" viewBox="0 0 20 21" fill="none" xmlns="http://www.w3.org/2000/svg">
<g clip-path="url(#clip0_112_6025)">
<path d="M5.03571 1.6333L4.71429 2.19189H0.428571C-0.361607 2.19189 -1 2.75049 -1 3.44189C-1 4.1333 -0.361607 4.69189 0.428571 4.69189H17.5714C18.3616 4.69189 19 4.1333 19 3.44189C19 2.75049 18.3616 2.19189 17.5714 2.19189H13.2857L12.9643 1.6333C12.7232 1.20752 12.2277 0.941895 11.6875 0.941895H6.3125C5.77232 0.941895 5.27679 1.20752 5.03571 1.6333ZM17.5714 5.94189H0.428571L1.375 19.1841C1.44643 20.1724 2.38393 20.9419 3.51339 20.9419H14.4866C15.6161 20.9419 16.5536 20.1724 16.625 19.1841L17.5714 5.94189Z" fill="#1E43A5"/>
</g>
<defs>
<clipPath id="clip0_112_6025">
<rect width="20" height="20" fill="white" transform="translate(0 0.941895)"/>
</clipPath>
</defs>
</svg>
