<svg width="27" height="25" viewBox="0 0 27 25" fill="none" xmlns="http://www.w3.org/2000/svg">
<path d="M8.32867 0.864258L7.91114 1.5625H2.344C1.31755 1.5625 0.488281 2.26074 0.488281 3.125C0.488281 3.98926 1.31755 4.6875 2.344 4.6875H24.6126C25.639 4.6875 26.4683 3.98926 26.4683 3.125C26.4683 2.26074 25.639 1.5625 24.6126 1.5625H19.0454L18.6279 0.864258C18.3147 0.332031 17.671 0 16.9693 0H9.98722C9.28553 0 8.64183 0.332031 8.32867 0.864258ZM24.6126 6.25H2.344L3.57341 22.8027C3.66619 24.0381 4.884 25 6.35118 25H20.6054C22.0726 25 23.2904 24.0381 23.3832 22.8027L24.6126 6.25Z" fill="#74C0FC"/>
</svg>
