<svg width="31" height="24" viewBox="0 0 31 24" fill="none" xmlns="http://www.w3.org/2000/svg">
<path d="M3.3125 0.745483C1.75977 0.745483 0.5 2.00525 0.5 3.55798C0.5 4.44275 0.916016 5.27478 1.625 5.80798L14.375 15.3705C15.043 15.8685 15.957 15.8685 16.625 15.3705L29.375 5.80798C30.084 5.27478 30.5 4.44275 30.5 3.55798C30.5 2.00525 29.2402 0.745483 27.6875 0.745483H3.3125ZM0.5 7.30798V19.4955C0.5 21.5638 2.18164 23.2455 4.25 23.2455H26.75C28.8184 23.2455 30.5 21.5638 30.5 19.4955V7.30798L17.75 16.8705C16.4141 17.8724 14.5859 17.8724 13.25 16.8705L0.5 7.30798Z" fill="#1E43A5"/>
</svg>
