<svg width="16" height="15" viewBox="0 0 16 15" fill="none" xmlns="http://www.w3.org/2000/svg">
<path d="M8 15C6.01088 15 4.10322 14.2098 2.6967 12.8033C1.29018 11.3968 0.5 9.48912 0.5 7.5C0.5 5.51088 1.29018 3.60322 2.6967 2.1967C4.10322 0.790176 6.01088 0 8 0C9.98912 0 11.8968 0.790176 13.3033 2.1967C14.7098 3.60322 15.5 5.51088 15.5 7.5C15.5 9.48912 14.7098 11.3968 13.3033 12.8033C11.8968 14.2098 9.98912 15 8 15ZM9.17188 9.84375H8.46875V7.96875H9.17188C9.56152 7.96875 9.875 7.65527 9.875 7.26562C9.875 6.87598 9.56152 6.5625 9.17188 6.5625H7.76562C7.37598 6.5625 7.0625 6.87598 7.0625 7.26562V9.84375H6.82812C6.43848 9.84375 6.125 10.1572 6.125 10.5469C6.125 10.9365 6.43848 11.25 6.82812 11.25H9.17188C9.56152 11.25 9.875 10.9365 9.875 10.5469C9.875 10.1572 9.56152 9.84375 9.17188 9.84375ZM8 3.75C7.75136 3.75 7.5129 3.84877 7.33709 4.02459C7.16127 4.2004 7.0625 4.43886 7.0625 4.6875C7.0625 4.93614 7.16127 5.1746 7.33709 5.35041C7.5129 5.52623 7.75136 5.625 8 5.625C8.24864 5.625 8.4871 5.52623 8.66291 5.35041C8.83873 5.1746 8.9375 4.93614 8.9375 4.6875C8.9375 4.43886 8.83873 4.2004 8.66291 4.02459C8.4871 3.84877 8.24864 3.75 8 3.75Z" fill="#1E43A5"/>
<path d="M3.05025 12.4497C4.36301 13.7625 6.14349 14.5 8 14.5C9.85652 14.5 11.637 13.7625 12.9497 12.4497C14.2625 11.137 15 9.35651 15 7.5C15 5.64348 14.2625 3.86301 12.9497 2.55025C11.637 1.2375 9.85652 0.5 8 0.5C6.14349 0.5 4.36301 1.2375 3.05025 2.55025C1.7375 3.86301 1 5.64348 1 7.5C1 9.35651 1.7375 11.137 3.05025 12.4497ZM8.96875 8.46875V9.34375H9.17188C9.83767 9.34375 10.375 9.88108 10.375 10.5469C10.375 11.2127 9.83767 11.75 9.17188 11.75H6.82812C6.16233 11.75 5.625 11.2127 5.625 10.5469C5.625 9.97239 6.02506 9.49355 6.5625 9.37301V7.26562C6.5625 6.65146 7.01974 6.1466 7.61326 6.072C7.37726 6.00607 7.15985 5.88029 6.98353 5.70397C6.71395 5.43438 6.5625 5.06875 6.5625 4.6875C6.5625 4.30625 6.71395 3.94062 6.98353 3.67103C7.25312 3.40145 7.61875 3.25 8 3.25C8.38125 3.25 8.74688 3.40145 9.01647 3.67103C9.28605 3.94062 9.4375 4.30625 9.4375 4.6875C9.4375 5.06875 9.28605 5.43438 9.01647 5.70397C8.84828 5.87216 8.6427 5.99436 8.41927 6.0625H9.17188C9.83767 6.0625 10.375 6.59983 10.375 7.26562C10.375 7.93142 9.83767 8.46875 9.17188 8.46875H8.96875Z" stroke="black" stroke-opacity="0.45"/>
</svg>
