<svg width="20" height="21" viewBox="0 0 20 21" fill="none" xmlns="http://www.w3.org/2000/svg">
<path d="M17.3596 3.10595L17.8359 3.58225C18.206 3.95228 18.206 4.55061 17.8359 4.9167L16.6904 6.06614L14.8758 4.25145L16.0213 3.10595C16.3913 2.73592 16.9896 2.73592 17.3557 3.10595H17.3596ZM8.25862 10.8725L13.5413 5.58589L15.356 7.40059L10.0694 12.6833C9.95522 12.7974 9.81351 12.8801 9.65999 12.9234L7.35718 13.5808L8.01457 11.278C8.05787 11.1244 8.14053 10.9827 8.25469 10.8686L8.25862 10.8725ZM14.6868 1.7715L6.92024 9.53413C6.57777 9.8766 6.32977 10.2978 6.19987 10.7584L5.07405 14.6948C4.97958 15.0254 5.07012 15.3797 5.31418 15.6238C5.55823 15.8678 5.91251 15.9584 6.24317 15.8639L10.1796 14.7381C10.6441 14.6042 11.0653 14.3563 11.4038 14.0177L19.1704 6.25509C20.2765 5.14895 20.2765 3.35394 19.1704 2.2478L18.6941 1.7715C17.588 0.665361 15.7929 0.665361 14.6868 1.7715ZM3.46406 3.3067C1.55095 3.3067 0 4.85765 0 6.77076V17.4778C0 19.3909 1.55095 20.9419 3.46406 20.9419H14.1711C16.0842 20.9419 17.6352 19.3909 17.6352 17.4778V13.069C17.6352 12.5455 17.214 12.1243 16.6904 12.1243C16.1669 12.1243 15.7457 12.5455 15.7457 13.069V17.4778C15.7457 18.3478 15.0411 19.0524 14.1711 19.0524H3.46406C2.59411 19.0524 1.88948 18.3478 1.88948 17.4778V6.77076C1.88948 5.90081 2.59411 5.19619 3.46406 5.19619H7.87285C8.3964 5.19619 8.8176 4.77499 8.8176 4.25145C8.8176 3.7279 8.3964 3.3067 7.87285 3.3067H3.46406Z" fill="#1E43A5"/>
</svg>
