<svg width="15" height="15" viewBox="0 0 15 15" fill="none" xmlns="http://www.w3.org/2000/svg">
<path d="M7.5 15C5.51088 15 3.60322 14.2098 2.1967 12.8033C0.790176 11.3968 0 9.48912 0 7.5C0 5.51088 0.790176 3.60322 2.1967 2.1967C3.60322 0.790176 5.51088 0 7.5 0C9.48912 0 11.3968 0.790176 12.8033 2.1967C14.2098 3.60322 15 5.51088 15 7.5C15 9.48912 14.2098 11.3968 12.8033 12.8033C11.3968 14.2098 9.48912 15 7.5 15ZM8.67188 9.84375H7.96875V7.96875H8.67188C9.06152 7.96875 9.375 7.65527 9.375 7.26562C9.375 6.87598 9.06152 6.5625 8.67188 6.5625H7.26562C6.87598 6.5625 6.5625 6.87598 6.5625 7.26562V9.84375H6.32812C5.93848 9.84375 5.625 10.1572 5.625 10.5469C5.625 10.9365 5.93848 11.25 6.32812 11.25H8.67188C9.06152 11.25 9.375 10.9365 9.375 10.5469C9.375 10.1572 9.06152 9.84375 8.67188 9.84375ZM7.5 3.75C7.25136 3.75 7.0129 3.84877 6.83709 4.02459C6.66127 4.2004 6.5625 4.43886 6.5625 4.6875C6.5625 4.93614 6.66127 5.1746 6.83709 5.35041C7.0129 5.52623 7.25136 5.625 7.5 5.625C7.74864 5.625 7.9871 5.52623 8.16291 5.35041C8.33873 5.1746 8.4375 4.93614 8.4375 4.6875C8.4375 4.43886 8.33873 4.2004 8.16291 4.02459C7.9871 3.84877 7.74864 3.75 7.5 3.75Z" fill="#1E43A5"/>
<path d="M2.55025 12.4497C3.86301 13.7625 5.64349 14.5 7.5 14.5C9.35652 14.5 11.137 13.7625 12.4497 12.4497C13.7625 11.137 14.5 9.35651 14.5 7.5C14.5 5.64348 13.7625 3.86301 12.4497 2.55025C11.137 1.2375 9.35652 0.5 7.5 0.5C5.64349 0.5 3.86301 1.2375 2.55025 2.55025C1.2375 3.86301 0.5 5.64348 0.5 7.5C0.5 9.35651 1.2375 11.137 2.55025 12.4497ZM8.46875 8.46875V9.34375H8.67188C9.33767 9.34375 9.875 9.88108 9.875 10.5469C9.875 11.2127 9.33767 11.75 8.67188 11.75H6.32812C5.66233 11.75 5.125 11.2127 5.125 10.5469C5.125 9.97239 5.52506 9.49355 6.0625 9.37301V7.26562C6.0625 6.65146 6.51974 6.1466 7.11326 6.072C6.87726 6.00607 6.65985 5.88029 6.48353 5.70397C6.21395 5.43438 6.0625 5.06875 6.0625 4.6875C6.0625 4.30625 6.21395 3.94062 6.48353 3.67103C6.75312 3.40145 7.11875 3.25 7.5 3.25C7.88125 3.25 8.24688 3.40145 8.51647 3.67103C8.78605 3.94062 8.9375 4.30625 8.9375 4.6875C8.9375 5.06875 8.78605 5.43438 8.51647 5.70397C8.34828 5.87216 8.1427 5.99436 7.91927 6.0625H8.67188C9.33767 6.0625 9.875 6.59983 9.875 7.26562C9.875 7.93142 9.33767 8.46875 8.67188 8.46875H8.46875Z" stroke="black" stroke-opacity="0.45"/>
</svg>
