<svg width="21" height="21" viewBox="0 0 21 21" fill="none" xmlns="http://www.w3.org/2000/svg">
<path d="M17.9846 2.35546L18.4609 2.83176C18.831 3.20179 18.831 3.80013 18.4609 4.16621L17.3154 5.31565L15.5008 3.50096L16.6463 2.35546C17.0163 1.98543 17.6146 1.98543 17.9807 2.35546H17.9846ZM8.88362 10.122L14.1663 4.83541L15.981 6.6501L10.6944 11.9328C10.5802 12.0469 10.4385 12.1296 10.285 12.1729L7.98218 12.8303L8.63957 10.5275C8.68287 10.374 8.76553 10.2322 8.87969 10.1181L8.88362 10.122ZM15.3118 1.02101L7.54524 8.78364C7.20277 9.12611 6.95477 9.54731 6.82487 10.0079L5.69905 13.9443C5.60458 14.275 5.69512 14.6292 5.93918 14.8733C6.18323 15.1174 6.53751 15.2079 6.86817 15.1134L10.8046 13.9876C11.2691 13.8538 11.6903 13.6058 12.0288 13.2672L19.7954 5.5046C20.9015 4.39846 20.9015 2.60345 19.7954 1.49732L19.3191 1.02101C18.213 -0.0851278 16.4179 -0.0851278 15.3118 1.02101ZM4.08906 2.55621C2.17595 2.55621 0.625 4.10717 0.625 6.02027V16.7274C0.625 18.6405 2.17595 20.1914 4.08906 20.1914H14.7961C16.7092 20.1914 18.2602 18.6405 18.2602 16.7274V12.3186C18.2602 11.795 17.839 11.3738 17.3154 11.3738C16.7919 11.3738 16.3707 11.795 16.3707 12.3186V16.7274C16.3707 17.5973 15.6661 18.3019 14.7961 18.3019H4.08906C3.21911 18.3019 2.51448 17.5973 2.51448 16.7274V6.02027C2.51448 5.15032 3.21911 4.4457 4.08906 4.4457H8.49785C9.0214 4.4457 9.4426 4.0245 9.4426 3.50096C9.4426 2.97741 9.0214 2.55621 8.49785 2.55621H4.08906Z" fill="#1E43A5"/>
</svg>
