<svg width="30" height="40" viewBox="0 0 30 40" fill="none" xmlns="http://www.w3.org/2000/svg">
<path d="M14.9987 0C13.8134 0 12.8559 1.11719 12.8559 2.5V4C7.96747 5.15625 4.28443 10.2031 4.28443 16.25V17.7188C4.28443 21.3906 3.12595 24.9375 1.03666 27.6875L0.541129 28.3359C-0.0213711 29.0703 -0.1553 30.125 0.186218 31.0234C0.527736 31.9219 1.29783 32.5 2.14158 32.5H27.8559C28.6996 32.5 29.463 31.9219 29.8112 31.0234C30.1594 30.125 30.0188 29.0703 29.4563 28.3359L28.9608 27.6875C26.8715 24.9375 25.713 21.3984 25.713 17.7188V16.25C25.713 10.2031 22.03 5.15625 17.1416 4V2.5C17.1416 1.11719 16.184 0 14.9987 0ZM18.0322 38.5391C18.8358 37.6016 19.2844 36.3281 19.2844 35H14.9987H10.713C10.713 36.3281 11.1617 37.6016 11.9652 38.5391C12.7688 39.4766 13.8603 40 14.9987 40C16.1371 40 17.2286 39.4766 18.0322 38.5391Z" fill="white"/>
</svg>
