<svg width="20" height="14" viewBox="0 0 20 14" fill="none" xmlns="http://www.w3.org/2000/svg">
<path d="M10 0.5C5.45455 0.5 1.57273 3.19533 0 7C1.57273 10.8047 5.45455 13.5 10 13.5C14.5455 13.5 18.4273 10.8047 20 7C18.4273 3.19533 14.5455 0.5 10 0.5ZM10 11.3333C7.49091 11.3333 5.45455 9.392 5.45455 7C5.45455 4.608 7.49091 2.66667 10 2.66667C12.5091 2.66667 14.5455 4.608 14.5455 7C14.5455 9.392 12.5091 11.3333 10 11.3333ZM10 4.4C8.49091 4.4 7.27273 5.56133 7.27273 7C7.27273 8.43867 8.49091 9.6 10 9.6C11.5091 9.6 12.7273 8.43867 12.7273 7C12.7273 5.56133 11.5091 4.4 10 4.4Z" fill="#C3C3C3"/>
</svg>
