<svg width="2" height="4" viewBox="0 0 2 4" fill="none" xmlns="http://www.w3.org/2000/svg">
<g clip-path="url(#clip0_7_1451)">
<path d="M1.54778 0.676736C1.54778 0.801501 1.50938 0.9023 1.46185 0.9023H0.860343C0.812814 0.9023 0.774414 0.801501 0.774414 0.676736C0.774414 0.551971 0.812814 0.451172 0.860343 0.451172H1.46185C1.50938 0.451172 1.54778 0.551971 1.54778 0.676736ZM1.54778 2.48125C1.54778 2.60601 1.50938 2.70681 1.46185 2.70681H0.860343C0.812814 2.70681 0.774414 2.60601 0.774414 2.48125C0.774414 2.35648 0.812814 2.25568 0.860343 2.25568H1.46185C1.50938 2.25568 1.54778 2.35648 1.54778 2.48125ZM0.774414 1.57899C0.774414 1.45423 0.812814 1.35343 0.860343 1.35343H1.89149C1.93902 1.35343 1.97742 1.45423 1.97742 1.57899C1.97742 1.70376 1.93902 1.80456 1.89149 1.80456H0.860343C0.812814 1.80456 0.774414 1.70376 0.774414 1.57899ZM1.97742 3.3835C1.97742 3.50827 1.93902 3.60907 1.89149 3.60907H0.860343C0.812814 3.60907 0.774414 3.50827 0.774414 3.3835C0.774414 3.25874 0.812814 3.15794 0.860343 3.15794H1.89149C1.93902 3.15794 1.97742 3.25874 1.97742 3.3835Z" fill="black"/>
</g>
<defs>
<clipPath id="clip0_7_1451">
<rect width="1.20301" height="3.60902" fill="white" transform="translate(0.774414 0.225586)"/>
</clipPath>
</defs>
</svg>
