<svg width="66" height="59" viewBox="0 0 66 59" fill="none" xmlns="http://www.w3.org/2000/svg">
<path d="M46.753 14.4368C46.753 20.6401 38.4406 31.6947 34.7905 36.2506C33.9149 37.3413 32.2888 37.3413 31.4246 36.2506C27.7744 31.6947 19.4621 20.6401 19.4621 14.4368C19.4621 6.90426 25.5684 0.803223 33.1075 0.803223C40.6466 0.803223 46.753 6.90426 46.753 14.4368ZM47.6627 23.5713C48.0607 22.7874 48.4246 22.0035 48.7543 21.2309C48.8112 21.0946 48.868 20.9469 48.9249 20.8105L62.1155 15.5389C63.9122 14.8231 65.8566 16.141 65.8566 18.0725V48.839C65.8566 49.9524 65.1744 50.9522 64.1396 51.3726L47.6627 57.9508V23.5713ZM16.0052 16.516C16.2781 18.1179 16.8239 19.7312 17.4607 21.2309C17.7905 22.0035 18.1544 22.7874 18.5524 23.5713V52.1338L4.09953 57.9167C2.30288 58.6325 0.358398 57.3145 0.358398 55.3831V24.6166C0.358398 23.5032 1.04067 22.5034 2.07545 22.083L16.0166 16.516H16.0052ZM37.6333 38.5229C39.2139 36.546 41.6928 33.3307 44.0239 29.7746V58.0985L22.1911 51.8611V29.7746C24.5222 33.3307 27.0012 36.546 28.5818 38.5229C30.9129 41.4314 35.3022 41.4314 37.6333 38.5229ZM33.1075 18.0725C34.3139 18.0725 35.4708 17.5937 36.3238 16.7414C37.1768 15.8891 37.656 14.7332 37.656 13.5279C37.656 12.3226 37.1768 11.1667 36.3238 10.3145C35.4708 9.46219 34.3139 8.98339 33.1075 8.98339C31.9012 8.98339 30.7443 9.46219 29.8913 10.3145C29.0382 11.1667 28.559 12.3226 28.559 13.5279C28.559 14.7332 29.0382 15.8891 29.8913 16.7414C30.7443 17.5937 31.9012 18.0725 33.1075 18.0725Z" fill="#F96823"/>
</svg>
