<svg width="83" height="107" viewBox="0 0 83 107" fill="none" xmlns="http://www.w3.org/2000/svg">
<path d="M30.1047 13.797C30.1047 11.9775 31.4194 10.4888 33.0263 10.4888C34.6331 10.4888 35.9478 11.9775 35.9478 13.797V41.9173C35.9478 44.047 37.1529 45.9493 38.9424 46.6316C40.7318 47.314 42.7038 46.611 43.8359 44.9155C44.3837 44.1091 45.2236 43.5922 46.1731 43.5922C47.78 43.5922 49.0947 45.0809 49.0947 46.9004C49.0947 49.0301 50.2998 50.9324 52.0892 51.6147C53.8787 52.297 55.8507 51.594 56.9828 49.8986C57.5306 49.0922 58.3705 48.5752 59.32 48.5752C60.7442 48.5752 61.9311 49.7331 62.1868 51.2632C62.4789 52.9587 63.5197 54.3854 64.9439 54.985C66.3682 55.5846 67.9933 55.3158 69.1984 54.2407C69.6914 53.8064 70.3122 53.5377 71.0061 53.5377C72.6129 53.5377 73.9276 55.0264 73.9276 56.8459V60.1542V81.6166C73.9276 89.8459 68.0481 96.5038 60.7808 96.5038H50.5554H39.6545H39.4901C32.6611 96.5038 26.2702 92.6373 22.4723 86.1861L10.1471 65.2613C9.25236 63.7313 9.61755 61.6843 10.9505 60.6711C12.2834 59.658 14.1094 60.0715 15.0041 61.5809L22.0706 73.594C23.1479 75.4136 25.1382 76.22 26.9824 75.5997C28.8266 74.9794 30.0865 73.0358 30.0865 70.844V66.7294V13.797H30.1047ZM33.0263 0.563965C26.5807 0.563965 21.3402 6.49818 21.3402 13.797V54.6749C17.5422 49.7745 11.0235 48.6993 6.09346 52.4004C0.725158 56.4737 -0.735605 64.6824 2.86152 70.7613L15.1867 91.7068C20.6098 100.908 29.7213 106.429 39.4901 106.429H39.6545H50.5554H60.7808C72.8868 106.429 82.6922 95.3252 82.6922 81.6166V60.1128V56.8046C82.6922 49.5057 77.4517 43.5715 71.0061 43.5715C70.1844 43.5715 69.3993 43.6749 68.6324 43.8403C66.496 40.6561 63.118 38.6091 59.32 38.6091C58.0601 38.6091 56.855 38.8365 55.7229 39.2501C53.6048 35.8591 50.1172 33.6467 46.1731 33.6467C45.6801 33.6467 45.1871 33.688 44.7124 33.7501V13.797C44.7124 6.49818 39.4719 0.563965 33.0263 0.563965ZM41.7908 63.4211C41.7908 61.6016 40.4762 60.1128 38.8693 60.1128C37.2625 60.1128 35.9478 61.6016 35.9478 63.4211V83.2707C35.9478 85.0903 37.2625 86.579 38.8693 86.579C40.4762 86.579 41.7908 85.0903 41.7908 83.2707V63.4211ZM50.5554 60.1128C48.9486 60.1128 47.6339 61.6016 47.6339 63.4211V83.2707C47.6339 85.0903 48.9486 86.579 50.5554 86.579C52.1623 86.579 53.477 85.0903 53.477 83.2707V63.4211C53.477 61.6016 52.1623 60.1128 50.5554 60.1128ZM65.1631 63.4211C65.1631 61.6016 63.8484 60.1128 62.2415 60.1128C60.6347 60.1128 59.32 61.6016 59.32 63.4211V83.2707C59.32 85.0903 60.6347 86.579 62.2415 86.579C63.8484 86.579 65.1631 85.0903 65.1631 83.2707V63.4211Z" fill="white"/>
<path d="M30.1047 13.797C30.1047 11.9775 31.4194 10.4888 33.0263 10.4888C34.6331 10.4888 35.9478 11.9775 35.9478 13.797V41.9173C35.9478 44.047 37.1529 45.9493 38.9424 46.6316C40.7318 47.314 42.7038 46.611 43.8359 44.9155C44.3837 44.1091 45.2236 43.5922 46.1731 43.5922C47.78 43.5922 49.0947 45.0809 49.0947 46.9004C49.0947 49.0301 50.2998 50.9324 52.0892 51.6147C53.8787 52.297 55.8507 51.594 56.9828 49.8986C57.5306 49.0922 58.3705 48.5752 59.32 48.5752C60.7442 48.5752 61.9311 49.7331 62.1868 51.2632C62.4789 52.9587 63.5197 54.3854 64.9439 54.985C66.3682 55.5846 67.9933 55.3158 69.1984 54.2407C69.6914 53.8064 70.3122 53.5377 71.0061 53.5377C72.6129 53.5377 73.9276 55.0264 73.9276 56.8459V60.1542V81.6166C73.9276 89.8459 68.0481 96.5038 60.7808 96.5038H50.5554H39.6545H39.4901C32.6611 96.5038 26.2702 92.6373 22.4723 86.1861L10.1471 65.2613C9.25236 63.7313 9.61755 61.6843 10.9505 60.6711C12.2834 59.658 14.1094 60.0715 15.0041 61.5809L22.0706 73.594C23.1479 75.4136 25.1382 76.22 26.9824 75.5997C28.8266 74.9794 30.0865 73.0358 30.0865 70.844V66.7294V13.797H30.1047ZM33.0263 0.563965C26.5807 0.563965 21.3402 6.49818 21.3402 13.797V54.6749C17.5422 49.7745 11.0235 48.6993 6.09346 52.4004C0.725158 56.4737 -0.735605 64.6824 2.86152 70.7613L15.1867 91.7068C20.6098 100.908 29.7213 106.429 39.4901 106.429H39.6545H50.5554H60.7808C72.8868 106.429 82.6922 95.3252 82.6922 81.6166V60.1128V56.8046C82.6922 49.5057 77.4517 43.5715 71.0061 43.5715C70.1844 43.5715 69.3993 43.6749 68.6324 43.8403C66.496 40.6561 63.118 38.6091 59.32 38.6091C58.0601 38.6091 56.855 38.8365 55.7229 39.2501C53.6048 35.8591 50.1172 33.6467 46.1731 33.6467C45.6801 33.6467 45.1871 33.688 44.7124 33.7501V13.797C44.7124 6.49818 39.4719 0.563965 33.0263 0.563965ZM41.7908 63.4211C41.7908 61.6016 40.4762 60.1128 38.8693 60.1128C37.2625 60.1128 35.9478 61.6016 35.9478 63.4211V83.2707C35.9478 85.0903 37.2625 86.579 38.8693 86.579C40.4762 86.579 41.7908 85.0903 41.7908 83.2707V63.4211ZM50.5554 60.1128C48.9486 60.1128 47.6339 61.6016 47.6339 63.4211V83.2707C47.6339 85.0903 48.9486 86.579 50.5554 86.579C52.1623 86.579 53.477 85.0903 53.477 83.2707V63.4211C53.477 61.6016 52.1623 60.1128 50.5554 60.1128ZM65.1631 63.4211C65.1631 61.6016 63.8484 60.1128 62.2415 60.1128C60.6347 60.1128 59.32 61.6016 59.32 63.4211V83.2707C59.32 85.0903 60.6347 86.579 62.2415 86.579C63.8484 86.579 65.1631 85.0903 65.1631 83.2707V63.4211Z" stroke="#000E22"/>
</svg>
