<svg width="71" height="76" viewBox="0 0 71 76" fill="none" xmlns="http://www.w3.org/2000/svg">
<path d="M45.6821 5.41353C45.6821 8.40789 43.455 10.8271 40.6983 10.8271H5.81104C3.05432 10.8271 0.827148 8.40789 0.827148 5.41353C0.827148 2.41917 3.05432 0 5.81104 0H40.6983C43.455 0 45.6821 2.41917 45.6821 5.41353ZM45.6821 48.7218C45.6821 51.7162 43.455 54.1353 40.6983 54.1353H5.81104C3.05432 54.1353 0.827148 51.7162 0.827148 48.7218C0.827148 45.7274 3.05432 43.3083 5.81104 43.3083H40.6983C43.455 43.3083 45.6821 45.7274 45.6821 48.7218ZM0.827148 27.0677C0.827148 24.0733 3.05432 21.6541 5.81104 21.6541H65.6177C68.3744 21.6541 70.6016 24.0733 70.6016 27.0677C70.6016 30.062 68.3744 32.4812 65.6177 32.4812H5.81104C3.05432 32.4812 0.827148 30.062 0.827148 27.0677ZM70.6016 70.3759C70.6016 73.3703 68.3744 75.7895 65.6177 75.7895H5.81104C3.05432 75.7895 0.827148 73.3703 0.827148 70.3759C0.827148 67.3816 3.05432 64.9624 5.81104 64.9624H65.6177C68.3744 64.9624 70.6016 67.3816 70.6016 70.3759Z" fill="white"/>
</svg>
