<svg width="54" height="54" viewBox="0 0 54 54" fill="none" xmlns="http://www.w3.org/2000/svg">
<path d="M22.8877 10.447H15.4664H11.7038H10.4773V11.3617V15.4361V19.6353V28.886L0.519811 21.5166C0.686116 19.6353 1.65276 17.8891 3.19107 16.7562L5.48815 15.0515V10.447C5.48815 7.69258 7.72286 5.45787 10.4773 5.45787H18.4391L23.6257 1.62248C24.6339 0.874116 25.85 0.46875 27.1077 0.46875C28.3654 0.46875 29.5815 0.874116 30.5897 1.61209L35.7763 5.45787H43.7381C46.4925 5.45787 48.7272 7.69258 48.7272 10.447V15.0515L51.0243 16.7562C52.5626 17.8891 53.5292 19.6353 53.6955 21.5166L43.7381 28.886V19.6353V15.4361V11.3617V10.447H42.5116H38.749H31.3276H22.8877ZM0.499023 47.0339V25.6326L23.1164 42.3878C24.2701 43.2401 25.6733 43.7078 27.1077 43.7078C28.5421 43.7078 29.9452 43.2505 31.099 42.3878L53.7163 25.6326V47.0339C53.7163 50.703 50.7333 53.6861 47.0642 53.6861H7.15119C3.4821 53.6861 0.499023 50.703 0.499023 47.0339ZM18.7925 17.0992H35.4229C36.3376 17.0992 37.0859 17.8475 37.0859 18.7622C37.0859 19.6769 36.3376 20.4252 35.4229 20.4252H18.7925C17.8778 20.4252 17.1294 19.6769 17.1294 18.7622C17.1294 17.8475 17.8778 17.0992 18.7925 17.0992ZM18.7925 23.7513H35.4229C36.3376 23.7513 37.0859 24.4997 37.0859 25.4144C37.0859 26.329 36.3376 27.0774 35.4229 27.0774H18.7925C17.8778 27.0774 17.1294 26.329 17.1294 25.4144C17.1294 24.4997 17.8778 23.7513 18.7925 23.7513Z" fill="#F96823"/>
</svg>
