<svg width="58" height="58" viewBox="0 0 58 58" fill="none" xmlns="http://www.w3.org/2000/svg">
<path d="M29.1076 5.36655C16.2462 5.36655 5.82505 15.7877 5.82505 28.6491V33.1265C5.82505 34.6153 4.62734 35.813 3.1386 35.813C1.64986 35.813 0.452148 34.6153 0.452148 33.1265V28.6491C0.452148 12.8215 13.28 -0.00634766 29.1076 -0.00634766C44.9353 -0.00634766 57.7631 12.8215 57.7631 28.6491V44.779C57.7631 50.2191 53.3528 54.6294 47.9016 54.6294L35.5551 54.6182C34.626 56.2188 32.891 57.3046 30.8986 57.3046H27.3167C24.3504 57.3046 21.9438 54.898 21.9438 51.9317C21.9438 48.9654 24.3504 46.5588 27.3167 46.5588H30.8986C32.891 46.5588 34.626 47.6446 35.5551 49.2453L47.9128 49.2564C50.3866 49.2564 52.3902 47.2528 52.3902 44.779V28.6491C52.3902 15.7877 41.969 5.36655 29.1076 5.36655ZM16.5709 23.2762H18.3618C20.3431 23.2762 21.9438 24.8769 21.9438 26.8582V39.3949C21.9438 41.3762 20.3431 42.9769 18.3618 42.9769H16.5709C12.6195 42.9769 9.40699 39.7643 9.40699 35.813V30.4401C9.40699 26.4888 12.6195 23.2762 16.5709 23.2762ZM41.6444 23.2762C45.5957 23.2762 48.8083 26.4888 48.8083 30.4401V35.813C48.8083 39.7643 45.5957 42.9769 41.6444 42.9769H39.8534C37.8722 42.9769 36.2715 41.3762 36.2715 39.3949V26.8582C36.2715 24.8769 37.8722 23.2762 39.8534 23.2762H41.6444Z" fill="#F96823"/>
</svg>
